<?xml version="1.0" encoding="utf-8" standalone="no"?>
<!DOCTYPE svg PUBLIC "-//W3C//DTD SVG 1.1//EN"
  "http://www.w3.org/Graphics/SVG/1.1/DTD/svg11.dtd">
<svg xmlns:xlink="http://www.w3.org/1999/xlink" width="1440pt" height="576pt" viewBox="0 0 1440 576" xmlns="http://www.w3.org/2000/svg" version="1.1">
 <metadata>
  <rdf:RDF xmlns:dc="http://purl.org/dc/elements/1.1/" xmlns:cc="http://creativecommons.org/ns#" xmlns:rdf="http://www.w3.org/1999/02/22-rdf-syntax-ns#">
   <cc:Work>
    <dc:type rdf:resource="http://purl.org/dc/dcmitype/StillImage"/>
    <dc:date>2023-02-08T00:09:41.547311</dc:date>
    <dc:format>image/svg+xml</dc:format>
    <dc:creator>
     <cc:Agent>
      <dc:title>Matplotlib v3.5.2, https://matplotlib.org/</dc:title>
     </cc:Agent>
    </dc:creator>
   </cc:Work>
  </rdf:RDF>
 </metadata>
 <defs>
  <style type="text/css">*{stroke-linejoin: round; stroke-linecap: butt}</style>
 </defs>
 <g id="figure_1">
  <g id="patch_1">
   <path d="M 0 576 
L 1440 576 
L 1440 0 
L 0 0 
z
" style="fill: #ffffff"/>
  </g>
  <g id="axes_1">
   <g id="patch_2">
    <path d="M 24.19 548.12 
L 1429.2 548.12 
L 1429.2 10.8 
L 24.19 10.8 
z
" style="fill: #ffffff"/>
   </g>
   <g id="matplotlib.axis_1">
    <g id="xtick_1">
     <g id="line2d_1">
      <defs>
       <path id="m59b9211208" d="M 0 0 
L 0 3.5 
" style="stroke: #000000; stroke-width: 0.8"/>
      </defs>
      <g>
       <use xlink:href="#m59b9211208" x="87.968933" y="548.12" style="stroke: #000000; stroke-width: 0.8"/>
      </g>
     </g>
     <g id="text_1">
      <!-- 0 -->
      <g transform="translate(84.787683 562.718437)scale(0.1 -0.1)">
       <defs>
        <path id="DejaVuSans-30" d="M 2034 4250 
Q 1547 4250 1301 3770 
Q 1056 3291 1056 2328 
Q 1056 1369 1301 889 
Q 1547 409 2034 409 
Q 2525 409 2770 889 
Q 3016 1369 3016 2328 
Q 3016 3291 2770 3770 
Q 2525 4250 2034 4250 
z
M 2034 4750 
Q 2819 4750 3233 4129 
Q 3647 3509 3647 2328 
Q 3647 1150 3233 529 
Q 2819 -91 2034 -91 
Q 1250 -91 836 529 
Q 422 1150 422 2328 
Q 422 3509 836 4129 
Q 1250 4750 2034 4750 
z
" transform="scale(0.015625)"/>
       </defs>
       <use xlink:href="#DejaVuSans-30"/>
      </g>
     </g>
    </g>
    <g id="xtick_2">
     <g id="line2d_2">
      <g>
       <use xlink:href="#m59b9211208" x="258.28453" y="548.12" style="stroke: #000000; stroke-width: 0.8"/>
      </g>
     </g>
     <g id="text_2">
      <!-- 500 -->
      <g transform="translate(248.74078 562.718437)scale(0.1 -0.1)">
       <defs>
        <path id="DejaVuSans-35" d="M 691 4666 
L 3169 4666 
L 3169 4134 
L 1269 4134 
L 1269 2991 
Q 1406 3038 1543 3061 
Q 1681 3084 1819 3084 
Q 2600 3084 3056 2656 
Q 3513 2228 3513 1497 
Q 3513 744 3044 326 
Q 2575 -91 1722 -91 
Q 1428 -91 1123 -41 
Q 819 9 494 109 
L 494 744 
Q 775 591 1075 516 
Q 1375 441 1709 441 
Q 2250 441 2565 725 
Q 2881 1009 2881 1497 
Q 2881 1984 2565 2268 
Q 2250 2553 1709 2553 
Q 1456 2553 1204 2497 
Q 953 2441 691 2322 
L 691 4666 
z
" transform="scale(0.015625)"/>
       </defs>
       <use xlink:href="#DejaVuSans-35"/>
       <use xlink:href="#DejaVuSans-30" x="63.623047"/>
       <use xlink:href="#DejaVuSans-30" x="127.246094"/>
      </g>
     </g>
    </g>
    <g id="xtick_3">
     <g id="line2d_3">
      <g>
       <use xlink:href="#m59b9211208" x="428.600127" y="548.12" style="stroke: #000000; stroke-width: 0.8"/>
      </g>
     </g>
     <g id="text_3">
      <!-- 1000 -->
      <g transform="translate(415.875127 562.718437)scale(0.1 -0.1)">
       <defs>
        <path id="DejaVuSans-31" d="M 794 531 
L 1825 531 
L 1825 4091 
L 703 3866 
L 703 4441 
L 1819 4666 
L 2450 4666 
L 2450 531 
L 3481 531 
L 3481 0 
L 794 0 
L 794 531 
z
" transform="scale(0.015625)"/>
       </defs>
       <use xlink:href="#DejaVuSans-31"/>
       <use xlink:href="#DejaVuSans-30" x="63.623047"/>
       <use xlink:href="#DejaVuSans-30" x="127.246094"/>
       <use xlink:href="#DejaVuSans-30" x="190.869141"/>
      </g>
     </g>
    </g>
    <g id="xtick_4">
     <g id="line2d_4">
      <g>
       <use xlink:href="#m59b9211208" x="598.915724" y="548.12" style="stroke: #000000; stroke-width: 0.8"/>
      </g>
     </g>
     <g id="text_4">
      <!-- 1500 -->
      <g transform="translate(586.190724 562.718437)scale(0.1 -0.1)">
       <use xlink:href="#DejaVuSans-31"/>
       <use xlink:href="#DejaVuSans-35" x="63.623047"/>
       <use xlink:href="#DejaVuSans-30" x="127.246094"/>
       <use xlink:href="#DejaVuSans-30" x="190.869141"/>
      </g>
     </g>
    </g>
    <g id="xtick_5">
     <g id="line2d_5">
      <g>
       <use xlink:href="#m59b9211208" x="769.23132" y="548.12" style="stroke: #000000; stroke-width: 0.8"/>
      </g>
     </g>
     <g id="text_5">
      <!-- 2000 -->
      <g transform="translate(756.50632 562.718437)scale(0.1 -0.1)">
       <defs>
        <path id="DejaVuSans-32" d="M 1228 531 
L 3431 531 
L 3431 0 
L 469 0 
L 469 531 
Q 828 903 1448 1529 
Q 2069 2156 2228 2338 
Q 2531 2678 2651 2914 
Q 2772 3150 2772 3378 
Q 2772 3750 2511 3984 
Q 2250 4219 1831 4219 
Q 1534 4219 1204 4116 
Q 875 4013 500 3803 
L 500 4441 
Q 881 4594 1212 4672 
Q 1544 4750 1819 4750 
Q 2544 4750 2975 4387 
Q 3406 4025 3406 3419 
Q 3406 3131 3298 2873 
Q 3191 2616 2906 2266 
Q 2828 2175 2409 1742 
Q 1991 1309 1228 531 
z
" transform="scale(0.015625)"/>
       </defs>
       <use xlink:href="#DejaVuSans-32"/>
       <use xlink:href="#DejaVuSans-30" x="63.623047"/>
       <use xlink:href="#DejaVuSans-30" x="127.246094"/>
       <use xlink:href="#DejaVuSans-30" x="190.869141"/>
      </g>
     </g>
    </g>
    <g id="xtick_6">
     <g id="line2d_6">
      <g>
       <use xlink:href="#m59b9211208" x="939.546917" y="548.12" style="stroke: #000000; stroke-width: 0.8"/>
      </g>
     </g>
     <g id="text_6">
      <!-- 2500 -->
      <g transform="translate(926.821917 562.718437)scale(0.1 -0.1)">
       <use xlink:href="#DejaVuSans-32"/>
       <use xlink:href="#DejaVuSans-35" x="63.623047"/>
       <use xlink:href="#DejaVuSans-30" x="127.246094"/>
       <use xlink:href="#DejaVuSans-30" x="190.869141"/>
      </g>
     </g>
    </g>
    <g id="xtick_7">
     <g id="line2d_7">
      <g>
       <use xlink:href="#m59b9211208" x="1109.862514" y="548.12" style="stroke: #000000; stroke-width: 0.8"/>
      </g>
     </g>
     <g id="text_7">
      <!-- 3000 -->
      <g transform="translate(1097.137514 562.718437)scale(0.1 -0.1)">
       <defs>
        <path id="DejaVuSans-33" d="M 2597 2516 
Q 3050 2419 3304 2112 
Q 3559 1806 3559 1356 
Q 3559 666 3084 287 
Q 2609 -91 1734 -91 
Q 1441 -91 1130 -33 
Q 819 25 488 141 
L 488 750 
Q 750 597 1062 519 
Q 1375 441 1716 441 
Q 2309 441 2620 675 
Q 2931 909 2931 1356 
Q 2931 1769 2642 2001 
Q 2353 2234 1838 2234 
L 1294 2234 
L 1294 2753 
L 1863 2753 
Q 2328 2753 2575 2939 
Q 2822 3125 2822 3475 
Q 2822 3834 2567 4026 
Q 2313 4219 1838 4219 
Q 1578 4219 1281 4162 
Q 984 4106 628 3988 
L 628 4550 
Q 988 4650 1302 4700 
Q 1616 4750 1894 4750 
Q 2613 4750 3031 4423 
Q 3450 4097 3450 3541 
Q 3450 3153 3228 2886 
Q 3006 2619 2597 2516 
z
" transform="scale(0.015625)"/>
       </defs>
       <use xlink:href="#DejaVuSans-33"/>
       <use xlink:href="#DejaVuSans-30" x="63.623047"/>
       <use xlink:href="#DejaVuSans-30" x="127.246094"/>
       <use xlink:href="#DejaVuSans-30" x="190.869141"/>
      </g>
     </g>
    </g>
    <g id="xtick_8">
     <g id="line2d_8">
      <g>
       <use xlink:href="#m59b9211208" x="1280.178111" y="548.12" style="stroke: #000000; stroke-width: 0.8"/>
      </g>
     </g>
     <g id="text_8">
      <!-- 3500 -->
      <g transform="translate(1267.453111 562.718437)scale(0.1 -0.1)">
       <use xlink:href="#DejaVuSans-33"/>
       <use xlink:href="#DejaVuSans-35" x="63.623047"/>
       <use xlink:href="#DejaVuSans-30" x="127.246094"/>
       <use xlink:href="#DejaVuSans-30" x="190.869141"/>
      </g>
     </g>
    </g>
   </g>
   <g id="matplotlib.axis_2">
    <g id="ytick_1">
     <g id="line2d_9">
      <defs>
       <path id="mc83c2b7119" d="M 0 0 
L -3.5 0 
" style="stroke: #000000; stroke-width: 0.8"/>
      </defs>
      <g>
       <use xlink:href="#mc83c2b7119" x="24.19" y="523.696364" style="stroke: #000000; stroke-width: 0.8"/>
      </g>
     </g>
     <g id="text_9">
      <!-- 0 -->
      <g transform="translate(10.8275 527.495582)scale(0.1 -0.1)">
       <use xlink:href="#DejaVuSans-30"/>
      </g>
     </g>
    </g>
    <g id="ytick_2">
     <g id="line2d_10">
      <g>
       <use xlink:href="#mc83c2b7119" x="24.19" y="426.001818" style="stroke: #000000; stroke-width: 0.8"/>
      </g>
     </g>
     <g id="text_10">
      <!-- 1 -->
      <g transform="translate(10.8275 429.801037)scale(0.1 -0.1)">
       <use xlink:href="#DejaVuSans-31"/>
      </g>
     </g>
    </g>
    <g id="ytick_3">
     <g id="line2d_11">
      <g>
       <use xlink:href="#mc83c2b7119" x="24.19" y="328.307273" style="stroke: #000000; stroke-width: 0.8"/>
      </g>
     </g>
     <g id="text_11">
      <!-- 2 -->
      <g transform="translate(10.8275 332.106491)scale(0.1 -0.1)">
       <use xlink:href="#DejaVuSans-32"/>
      </g>
     </g>
    </g>
    <g id="ytick_4">
     <g id="line2d_12">
      <g>
       <use xlink:href="#mc83c2b7119" x="24.19" y="230.612727" style="stroke: #000000; stroke-width: 0.8"/>
      </g>
     </g>
     <g id="text_12">
      <!-- 3 -->
      <g transform="translate(10.8275 234.411946)scale(0.1 -0.1)">
       <use xlink:href="#DejaVuSans-33"/>
      </g>
     </g>
    </g>
    <g id="ytick_5">
     <g id="line2d_13">
      <g>
       <use xlink:href="#mc83c2b7119" x="24.19" y="132.918182" style="stroke: #000000; stroke-width: 0.8"/>
      </g>
     </g>
     <g id="text_13">
      <!-- 4 -->
      <g transform="translate(10.8275 136.717401)scale(0.1 -0.1)">
       <defs>
        <path id="DejaVuSans-34" d="M 2419 4116 
L 825 1625 
L 2419 1625 
L 2419 4116 
z
M 2253 4666 
L 3047 4666 
L 3047 1625 
L 3713 1625 
L 3713 1100 
L 3047 1100 
L 3047 0 
L 2419 0 
L 2419 1100 
L 313 1100 
L 313 1709 
L 2253 4666 
z
" transform="scale(0.015625)"/>
       </defs>
       <use xlink:href="#DejaVuSans-34"/>
      </g>
     </g>
    </g>
    <g id="ytick_6">
     <g id="line2d_14">
      <g>
       <use xlink:href="#mc83c2b7119" x="24.19" y="35.223636" style="stroke: #000000; stroke-width: 0.8"/>
      </g>
     </g>
     <g id="text_14">
      <!-- 5 -->
      <g transform="translate(10.8275 39.022855)scale(0.1 -0.1)">
       <use xlink:href="#DejaVuSans-35"/>
      </g>
     </g>
    </g>
   </g>
   <g id="line2d_15">
    <path d="M 88.054091 523.696364 
L 108.236489 523.696364 
L 108.236489 426.001818 
L 108.321647 426.001818 
L 108.662278 426.001818 
L 108.662278 523.696364 
L 108.747436 523.696364 
L 138.722981 523.696364 
L 138.722981 426.001818 
L 138.808139 426.001818 
L 144.428553 426.001818 
L 144.428553 328.307273 
L 144.513711 328.307273 
L 144.598869 328.307273 
L 144.598869 426.001818 
L 144.684027 426.001818 
L 145.109816 426.001818 
L 145.109816 523.696364 
L 145.194974 523.696364 
L 146.216867 523.696364 
L 146.216867 426.001818 
L 146.302025 426.001818 
L 153.710753 426.001818 
L 153.710753 328.307273 
L 153.795911 328.307273 
L 154.817805 328.307273 
L 154.817805 426.001818 
L 154.902963 426.001818 
L 155.413909 426.001818 
L 155.413909 523.696364 
L 155.499067 523.696364 
L 167.676632 523.696364 
L 167.676632 426.001818 
L 167.76179 426.001818 
L 171.849365 426.001818 
L 171.849365 523.696364 
L 171.934522 523.696364 
L 250.109381 523.696364 
L 250.109381 426.001818 
L 250.194539 426.001818 
L 256.922005 426.001818 
L 256.922005 328.307273 
L 257.007163 328.307273 
L 260.413475 328.307273 
L 260.413475 426.001818 
L 260.498633 426.001818 
L 261.009579 426.001818 
L 261.009579 523.696364 
L 261.094737 523.696364 
L 270.376937 523.696364 
L 270.376937 426.001818 
L 270.462095 426.001818 
L 274.038723 426.001818 
L 274.038723 523.696364 
L 274.12388 523.696364 
L 281.702924 523.696364 
L 281.702924 426.001818 
L 281.788082 426.001818 
L 287.66397 426.001818 
L 287.66397 523.696364 
L 287.749128 523.696364 
L 323.174772 523.696364 
L 323.174772 426.001818 
L 323.25993 426.001818 
L 325.133402 426.001818 
L 325.133402 523.696364 
L 325.218559 523.696364 
L 362.858306 523.696364 
L 362.858306 426.001818 
L 362.943464 426.001818 
L 366.009145 426.001818 
L 366.009145 523.696364 
L 366.094303 523.696364 
L 375.631976 523.696364 
L 375.631976 426.001818 
L 375.717134 426.001818 
L 389.853328 426.001818 
L 389.853328 523.696364 
L 389.938486 523.696364 
L 406.373941 523.696364 
L 406.373941 426.001818 
L 406.459099 426.001818 
L 420.510136 426.001818 
L 420.510136 523.696364 
L 420.595294 523.696364 
L 452.359152 523.696364 
L 452.359152 426.001818 
L 452.44431 426.001818 
L 454.573255 426.001818 
L 454.573255 523.696364 
L 454.658413 523.696364 
L 480.887015 523.696364 
L 480.887015 426.001818 
L 480.972173 426.001818 
L 485.230063 426.001818 
L 485.230063 523.696364 
L 485.31522 523.696364 
L 539.47558 523.696364 
L 539.47558 426.001818 
L 539.560738 426.001818 
L 541.859999 426.001818 
L 541.859999 328.307273 
L 541.945156 328.307273 
L 543.137366 328.307273 
L 543.137366 426.001818 
L 543.222523 426.001818 
L 543.73347 426.001818 
L 543.73347 523.696364 
L 543.818628 523.696364 
L 567.662811 523.696364 
L 567.662811 426.001818 
L 567.747969 426.001818 
L 570.387861 426.001818 
L 570.387861 523.696364 
L 570.473019 523.696364 
L 586.993632 523.696364 
L 586.993632 426.001818 
L 587.07879 426.001818 
L 604.45098 426.001818 
L 604.45098 523.696364 
L 604.536138 523.696364 
L 694.633089 523.696364 
L 694.633089 426.001818 
L 694.718247 426.001818 
L 703.234027 426.001818 
L 703.234027 523.696364 
L 703.319184 523.696364 
L 711.153702 523.696364 
L 711.153702 426.001818 
L 711.23886 426.001818 
L 713.452962 426.001818 
L 713.452962 523.696364 
L 713.53812 523.696364 
L 718.136641 523.696364 
L 718.136641 426.001818 
L 718.221799 426.001818 
L 723.671898 426.001818 
L 723.671898 523.696364 
L 723.757056 523.696364 
L 732.272836 523.696364 
L 732.272836 426.001818 
L 732.357994 426.001818 
L 737.297146 426.001818 
L 737.297146 523.696364 
L 737.382304 523.696364 
L 747.090293 523.696364 
L 747.090293 426.001818 
L 747.175451 426.001818 
L 757.735018 426.001818 
L 757.735018 523.696364 
L 757.820175 523.696364 
L 766.421113 523.696364 
L 766.421113 426.001818 
L 766.506271 426.001818 
L 795.204449 426.001818 
L 795.204449 523.696364 
L 795.289607 523.696364 
L 799.292023 523.696364 
L 799.292023 426.001818 
L 799.377181 426.001818 
L 805.423385 426.001818 
L 805.423385 523.696364 
L 805.508542 523.696364 
L 819.644737 523.696364 
L 819.644737 426.001818 
L 819.729895 426.001818 
L 842.892816 426.001818 
L 842.892816 523.696364 
L 842.977974 523.696364 
L 855.070381 523.696364 
L 855.070381 426.001818 
L 855.155539 426.001818 
L 856.518064 426.001818 
L 856.518064 523.696364 
L 856.603221 523.696364 
L 903.440011 523.696364 
L 903.440011 426.001818 
L 903.525168 426.001818 
L 904.121273 426.001818 
L 904.121273 523.696364 
L 904.206431 523.696364 
L 1022.405455 523.696364 
L 1022.405455 426.001818 
L 1022.490613 426.001818 
L 1023.342191 426.001818 
L 1023.342191 328.307273 
L 1023.427349 328.307273 
L 1026.83366 328.307273 
L 1026.83366 426.001818 
L 1026.918818 426.001818 
L 1027.429765 426.001818 
L 1027.429765 523.696364 
L 1027.514923 523.696364 
L 1063.110883 523.696364 
L 1063.110883 426.001818 
L 1063.19604 426.001818 
L 1071.115716 426.001818 
L 1071.115716 523.696364 
L 1071.200873 523.696364 
L 1082.186229 523.696364 
L 1082.186229 426.001818 
L 1082.271387 426.001818 
L 1082.867492 426.001818 
L 1082.867492 328.307273 
L 1082.95265 328.307273 
L 1088.147275 328.307273 
L 1088.147275 426.001818 
L 1088.232433 426.001818 
L 1088.74338 426.001818 
L 1088.74338 523.696364 
L 1088.828538 523.696364 
L 1089.850431 523.696364 
L 1089.850431 426.001818 
L 1089.935589 426.001818 
L 1094.959899 426.001818 
L 1094.959899 523.696364 
L 1095.045057 523.696364 
L 1153.378149 523.696364 
L 1153.378149 426.001818 
L 1153.463307 426.001818 
L 1159.679826 426.001818 
L 1159.679826 523.696364 
L 1159.764984 523.696364 
L 1168.451079 523.696364 
L 1168.451079 426.001818 
L 1168.536237 426.001818 
L 1173.305074 426.001818 
L 1173.305074 523.696364 
L 1173.390232 523.696364 
L 1183.353694 523.696364 
L 1183.353694 426.001818 
L 1183.438852 426.001818 
L 1193.742945 426.001818 
L 1193.742945 523.696364 
L 1193.828103 523.696364 
L 1203.791566 523.696364 
L 1203.791566 426.001818 
L 1203.876723 426.001818 
L 1204.217355 426.001818 
L 1204.217355 328.307273 
L 1204.302512 328.307273 
L 1204.728301 328.307273 
L 1204.728301 230.612727 
L 1204.813459 230.612727 
L 1207.197877 230.612727 
L 1207.197877 132.918182 
L 1207.283035 132.918182 
L 1207.368193 132.918182 
L 1207.368193 230.612727 
L 1207.453351 230.612727 
L 1207.623666 230.612727 
L 1207.623666 132.918182 
L 1207.708824 132.918182 
L 1207.964298 132.918182 
L 1207.964298 230.612727 
L 1208.049455 230.612727 
L 1208.560402 230.612727 
L 1208.560402 328.307273 
L 1208.64556 328.307273 
L 1209.071349 328.307273 
L 1209.071349 426.001818 
L 1209.156507 426.001818 
L 1209.582296 426.001818 
L 1209.582296 523.696364 
L 1209.667454 523.696364 
L 1292.355676 523.696364 
L 1292.355676 426.001818 
L 1292.440834 426.001818 
L 1294.654936 426.001818 
L 1294.654936 328.307273 
L 1294.740094 328.307273 
L 1295.932303 328.307273 
L 1295.932303 426.001818 
L 1296.017461 426.001818 
L 1296.528408 426.001818 
L 1296.528408 523.696364 
L 1296.613566 523.696364 
L 1304.95903 523.696364 
L 1304.95903 426.001818 
L 1305.044188 426.001818 
L 1309.557551 426.001818 
L 1309.557551 523.696364 
L 1309.642709 523.696364 
L 1323.864061 523.696364 
L 1323.864061 426.001818 
L 1323.949219 426.001818 
L 1333.401735 426.001818 
L 1333.401735 523.696364 
L 1333.486892 523.696364 
L 1343.450355 523.696364 
L 1343.450355 426.001818 
L 1343.535513 426.001818 
L 1344.387091 426.001818 
L 1344.387091 328.307273 
L 1344.472248 328.307273 
L 1347.026982 328.307273 
L 1347.026982 426.001818 
L 1347.11214 426.001818 
L 1347.623087 426.001818 
L 1347.623087 523.696364 
L 1347.708245 523.696364 
L 1359.545179 523.696364 
L 1359.545179 426.001818 
L 1359.630337 426.001818 
L 1365.335909 426.001818 
L 1365.335909 426.001818 
" clip-path="url(#p7a920989ac)" style="fill: none; stroke: #1f77b4; stroke-width: 1.5; stroke-linecap: square"/>
   </g>
   <g id="line2d_16">
    <path d="M 88.054091 523.696364 
L 105.255966 523.696364 
L 105.255966 426.001818 
L 105.341124 426.001818 
L 109.428698 426.001818 
L 109.428698 523.696364 
L 109.513856 523.696364 
L 132.16583 523.696364 
L 132.16583 426.001818 
L 132.250988 426.001818 
L 134.379933 426.001818 
L 134.379933 523.696364 
L 134.465091 523.696364 
L 135.742458 523.696364 
L 135.742458 426.001818 
L 135.827616 426.001818 
L 141.703504 426.001818 
L 141.703504 328.307273 
L 141.788662 328.307273 
L 145.365289 328.307273 
L 145.365289 426.001818 
L 145.450447 426.001818 
L 150.985704 426.001818 
L 150.985704 328.307273 
L 151.070862 328.307273 
L 155.584225 328.307273 
L 155.584225 426.001818 
L 155.669383 426.001818 
L 156.776434 426.001818 
L 156.776434 523.696364 
L 156.861592 523.696364 
L 164.610952 523.696364 
L 164.610952 426.001818 
L 164.696109 426.001818 
L 172.615785 426.001818 
L 172.615785 523.696364 
L 172.700943 523.696364 
L 247.043701 523.696364 
L 247.043701 426.001818 
L 247.128858 426.001818 
L 254.111798 426.001818 
L 254.111798 328.307273 
L 254.196956 328.307273 
L 261.179895 328.307273 
L 261.179895 426.001818 
L 261.265053 426.001818 
L 262.372104 426.001818 
L 262.372104 523.696364 
L 262.457262 523.696364 
L 266.970625 523.696364 
L 266.970625 426.001818 
L 267.055783 426.001818 
L 274.805143 426.001818 
L 274.805143 523.696364 
L 274.890301 523.696364 
L 278.637244 523.696364 
L 278.637244 426.001818 
L 278.722402 426.001818 
L 288.430391 426.001818 
L 288.430391 523.696364 
L 288.515548 523.696364 
L 305.887739 523.696364 
L 305.887739 426.001818 
L 305.972897 426.001818 
L 308.357315 426.001818 
L 308.357315 523.696364 
L 308.442473 523.696364 
L 320.109092 523.696364 
L 320.109092 426.001818 
L 320.194249 426.001818 
L 325.814664 426.001818 
L 325.814664 523.696364 
L 325.899822 523.696364 
L 359.877783 523.696364 
L 359.877783 426.001818 
L 359.962941 426.001818 
L 366.775565 426.001818 
L 366.775565 523.696364 
L 366.860723 523.696364 
L 371.374086 523.696364 
L 371.374086 426.001818 
L 371.459244 426.001818 
L 372.310822 426.001818 
L 372.310822 328.307273 
L 372.39598 328.307273 
L 374.099136 328.307273 
L 374.099136 426.001818 
L 374.184294 426.001818 
L 390.619749 426.001818 
L 390.619749 523.696364 
L 390.704906 523.696364 
L 394.026061 523.696364 
L 394.026061 426.001818 
L 394.111218 426.001818 
L 396.580795 426.001818 
L 396.580795 523.696364 
L 396.665952 523.696364 
L 403.308261 523.696364 
L 403.308261 426.001818 
L 403.393418 426.001818 
L 421.276556 426.001818 
L 421.276556 523.696364 
L 421.361714 523.696364 
L 424.086763 523.696364 
L 424.086763 426.001818 
L 424.171921 426.001818 
L 426.726655 426.001818 
L 426.726655 523.696364 
L 426.811813 523.696364 
L 449.293472 523.696364 
L 449.293472 426.001818 
L 449.37863 426.001818 
L 455.339675 426.001818 
L 455.339675 523.696364 
L 455.424833 523.696364 
L 477.906492 523.696364 
L 477.906492 426.001818 
L 477.99165 426.001818 
L 485.996483 426.001818 
L 485.996483 523.696364 
L 486.081641 523.696364 
L 536.069268 523.696364 
L 536.069268 426.001818 
L 536.154426 426.001818 
L 538.879476 426.001818 
L 538.879476 328.307273 
L 538.964633 328.307273 
L 543.903786 328.307273 
L 543.903786 426.001818 
L 543.988944 426.001818 
L 545.095995 426.001818 
L 545.095995 523.696364 
L 545.181153 523.696364 
L 564.2565 523.696364 
L 564.2565 426.001818 
L 564.341657 426.001818 
L 571.154281 426.001818 
L 571.154281 523.696364 
L 571.239439 523.696364 
L 583.58732 523.696364 
L 583.58732 426.001818 
L 583.672478 426.001818 
L 605.217401 426.001818 
L 605.217401 523.696364 
L 605.302558 523.696364 
L 656.397237 523.696364 
L 656.397237 426.001818 
L 656.482395 426.001818 
L 658.100393 426.001818 
L 658.100393 328.307273 
L 658.185551 328.307273 
L 658.696498 328.307273 
L 658.696498 426.001818 
L 658.781656 426.001818 
L 660.56997 426.001818 
L 660.56997 523.696364 
L 660.655127 523.696364 
L 691.567408 523.696364 
L 691.567408 426.001818 
L 691.652566 426.001818 
L 704.000447 426.001818 
L 704.000447 523.696364 
L 704.085605 523.696364 
L 708.088021 523.696364 
L 708.088021 426.001818 
L 708.173179 426.001818 
L 714.219383 426.001818 
L 714.219383 523.696364 
L 714.30454 523.696364 
L 715.156118 523.696364 
L 715.156118 426.001818 
L 715.241276 426.001818 
L 724.438318 426.001818 
L 724.438318 523.696364 
L 724.523476 523.696364 
L 729.292313 523.696364 
L 729.292313 426.001818 
L 729.377471 426.001818 
L 738.063566 426.001818 
L 738.063566 523.696364 
L 738.148724 523.696364 
L 744.024612 523.696364 
L 744.024612 426.001818 
L 744.10977 426.001818 
L 758.501438 426.001818 
L 758.501438 523.696364 
L 758.586596 523.696364 
L 763.44059 523.696364 
L 763.44059 426.001818 
L 763.525748 426.001818 
L 795.970869 426.001818 
L 795.970869 523.696364 
L 796.056027 523.696364 
L 796.3115 523.696364 
L 796.3115 426.001818 
L 796.396658 426.001818 
L 806.189805 426.001818 
L 806.189805 523.696364 
L 806.274963 523.696364 
L 816.664214 523.696364 
L 816.664214 426.001818 
L 816.749372 426.001818 
L 843.659236 426.001818 
L 843.659236 523.696364 
L 843.744394 523.696364 
L 852.089858 523.696364 
L 852.089858 426.001818 
L 852.175016 426.001818 
L 857.199326 426.001818 
L 857.199326 523.696364 
L 857.284484 523.696364 
L 900.204014 523.696364 
L 900.204014 426.001818 
L 900.289172 426.001818 
L 904.887693 426.001818 
L 904.887693 523.696364 
L 904.972851 523.696364 
L 1018.74367 523.696364 
L 1018.74367 426.001818 
L 1018.828827 426.001818 
L 1019.935879 426.001818 
L 1019.935879 328.307273 
L 1020.021037 328.307273 
L 1027.600081 328.307273 
L 1027.600081 426.001818 
L 1027.685238 426.001818 
L 1028.79229 426.001818 
L 1028.79229 523.696364 
L 1028.877448 523.696364 
L 1050.84816 523.696364 
L 1050.84816 426.001818 
L 1050.933317 426.001818 
L 1054.509945 426.001818 
L 1054.509945 523.696364 
L 1054.595103 523.696364 
L 1059.449097 523.696364 
L 1059.449097 426.001818 
L 1059.534255 426.001818 
L 1071.882136 426.001818 
L 1071.882136 523.696364 
L 1071.967294 523.696364 
L 1079.120549 523.696364 
L 1079.120549 426.001818 
L 1079.205706 426.001818 
L 1080.2276 426.001818 
L 1080.2276 328.307273 
L 1080.312758 328.307273 
L 1088.913695 328.307273 
L 1088.913695 426.001818 
L 1088.998853 426.001818 
L 1095.726319 426.001818 
L 1095.726319 523.696364 
L 1095.811477 523.696364 
L 1149.631206 523.696364 
L 1149.631206 426.001818 
L 1149.716364 426.001818 
L 1160.446246 426.001818 
L 1160.446246 523.696364 
L 1160.531404 523.696364 
L 1164.789294 523.696364 
L 1164.789294 426.001818 
L 1164.874452 426.001818 
L 1174.071494 426.001818 
L 1174.071494 523.696364 
L 1174.156652 523.696364 
L 1179.862224 523.696364 
L 1179.862224 426.001818 
L 1179.947382 426.001818 
L 1194.509366 426.001818 
L 1194.509366 523.696364 
L 1194.594523 523.696364 
L 1200.300096 523.696364 
L 1200.300096 426.001818 
L 1200.385254 426.001818 
L 1201.236832 426.001818 
L 1201.236832 328.307273 
L 1201.321989 328.307273 
L 1202.173567 328.307273 
L 1202.173567 230.612727 
L 1202.258725 230.612727 
L 1204.898617 230.612727 
L 1204.898617 132.918182 
L 1204.983775 132.918182 
L 1205.750195 132.918182 
L 1205.750195 35.223636 
L 1205.835353 35.223636 
L 1208.134613 35.223636 
L 1208.134613 132.918182 
L 1208.219771 132.918182 
L 1209.326822 132.918182 
L 1209.326822 230.612727 
L 1209.41198 230.612727 
L 1210.433874 230.612727 
L 1210.433874 328.307273 
L 1210.519032 328.307273 
L 1211.37061 328.307273 
L 1211.37061 426.001818 
L 1211.455767 426.001818 
L 1212.307345 426.001818 
L 1212.307345 523.696364 
L 1212.392503 523.696364 
L 1288.864206 523.696364 
L 1288.864206 426.001818 
L 1288.949364 426.001818 
L 1291.674413 426.001818 
L 1291.674413 328.307273 
L 1291.759571 328.307273 
L 1296.698724 328.307273 
L 1296.698724 426.001818 
L 1296.783881 426.001818 
L 1297.890933 426.001818 
L 1297.890933 523.696364 
L 1297.976091 523.696364 
L 1301.297245 523.696364 
L 1301.297245 426.001818 
L 1301.382402 426.001818 
L 1310.323971 426.001818 
L 1310.323971 523.696364 
L 1310.409129 523.696364 
L 1319.946803 523.696364 
L 1319.946803 426.001818 
L 1320.03196 426.001818 
L 1334.168155 426.001818 
L 1334.168155 523.696364 
L 1334.253313 523.696364 
L 1339.958885 523.696364 
L 1339.958885 426.001818 
L 1340.044043 426.001818 
L 1341.747199 426.001818 
L 1341.747199 328.307273 
L 1341.832357 328.307273 
L 1347.793403 328.307273 
L 1347.793403 426.001818 
L 1347.87856 426.001818 
L 1348.985612 426.001818 
L 1348.985612 523.696364 
L 1349.07077 523.696364 
L 1356.479498 523.696364 
L 1356.479498 426.001818 
L 1356.564656 426.001818 
L 1364.228858 426.001818 
L 1364.228858 328.307273 
L 1364.314016 328.307273 
L 1365.335909 328.307273 
L 1365.335909 328.307273 
" clip-path="url(#p7a920989ac)" style="fill: none; stroke: #ff7f0e; stroke-width: 1.5; stroke-linecap: square"/>
   </g>
   <g id="patch_3">
    <path d="M 24.19 548.12 
L 24.19 10.8 
" style="fill: none; stroke: #000000; stroke-width: 0.8; stroke-linejoin: miter; stroke-linecap: square"/>
   </g>
   <g id="patch_4">
    <path d="M 1429.2 548.12 
L 1429.2 10.8 
" style="fill: none; stroke: #000000; stroke-width: 0.8; stroke-linejoin: miter; stroke-linecap: square"/>
   </g>
   <g id="patch_5">
    <path d="M 24.19 548.12 
L 1429.2 548.12 
" style="fill: none; stroke: #000000; stroke-width: 0.8; stroke-linejoin: miter; stroke-linecap: square"/>
   </g>
   <g id="patch_6">
    <path d="M 24.19 10.8 
L 1429.2 10.8 
" style="fill: none; stroke: #000000; stroke-width: 0.8; stroke-linejoin: miter; stroke-linecap: square"/>
   </g>
   <g id="legend_1">
    <g id="patch_7">
     <path d="M 1334.7625 48.15625 
L 1422.2 48.15625 
Q 1424.2 48.15625 1424.2 46.15625 
L 1424.2 17.8 
Q 1424.2 15.8 1422.2 15.8 
L 1334.7625 15.8 
Q 1332.7625 15.8 1332.7625 17.8 
L 1332.7625 46.15625 
Q 1332.7625 48.15625 1334.7625 48.15625 
z
" style="fill: #ffffff; opacity: 0.8; stroke: #cccccc; stroke-linejoin: miter"/>
    </g>
    <g id="line2d_17">
     <path d="M 1336.7625 23.898438 
L 1336.7625 23.898438 
L 1346.7625 23.898438 
L 1346.7625 23.898438 
L 1356.7625 23.898438 
" style="fill: none; stroke: #1f77b4; stroke-width: 1.5; stroke-linecap: square"/>
    </g>
    <g id="text_15">
     <!-- Queue -->
     <g transform="translate(1364.7625 27.398438)scale(0.1 -0.1)">
      <defs>
       <path id="DejaVuSans-51" d="M 2522 4238 
Q 1834 4238 1429 3725 
Q 1025 3213 1025 2328 
Q 1025 1447 1429 934 
Q 1834 422 2522 422 
Q 3209 422 3611 934 
Q 4013 1447 4013 2328 
Q 4013 3213 3611 3725 
Q 3209 4238 2522 4238 
z
M 3406 84 
L 4238 -825 
L 3475 -825 
L 2784 -78 
Q 2681 -84 2626 -87 
Q 2572 -91 2522 -91 
Q 1538 -91 948 567 
Q 359 1225 359 2328 
Q 359 3434 948 4092 
Q 1538 4750 2522 4750 
Q 3503 4750 4090 4092 
Q 4678 3434 4678 2328 
Q 4678 1516 4351 937 
Q 4025 359 3406 84 
z
" transform="scale(0.015625)"/>
       <path id="DejaVuSans-75" d="M 544 1381 
L 544 3500 
L 1119 3500 
L 1119 1403 
Q 1119 906 1312 657 
Q 1506 409 1894 409 
Q 2359 409 2629 706 
Q 2900 1003 2900 1516 
L 2900 3500 
L 3475 3500 
L 3475 0 
L 2900 0 
L 2900 538 
Q 2691 219 2414 64 
Q 2138 -91 1772 -91 
Q 1169 -91 856 284 
Q 544 659 544 1381 
z
M 1991 3584 
L 1991 3584 
z
" transform="scale(0.015625)"/>
       <path id="DejaVuSans-65" d="M 3597 1894 
L 3597 1613 
L 953 1613 
Q 991 1019 1311 708 
Q 1631 397 2203 397 
Q 2534 397 2845 478 
Q 3156 559 3463 722 
L 3463 178 
Q 3153 47 2828 -22 
Q 2503 -91 2169 -91 
Q 1331 -91 842 396 
Q 353 884 353 1716 
Q 353 2575 817 3079 
Q 1281 3584 2069 3584 
Q 2775 3584 3186 3129 
Q 3597 2675 3597 1894 
z
M 3022 2063 
Q 3016 2534 2758 2815 
Q 2500 3097 2075 3097 
Q 1594 3097 1305 2825 
Q 1016 2553 972 2059 
L 3022 2063 
z
" transform="scale(0.015625)"/>
      </defs>
      <use xlink:href="#DejaVuSans-51"/>
      <use xlink:href="#DejaVuSans-75" x="78.710938"/>
      <use xlink:href="#DejaVuSans-65" x="142.089844"/>
      <use xlink:href="#DejaVuSans-75" x="203.613281"/>
      <use xlink:href="#DejaVuSans-65" x="266.992188"/>
     </g>
    </g>
    <g id="line2d_18">
     <path d="M 1336.7625 38.576563 
L 1336.7625 38.576563 
L 1346.7625 38.576563 
L 1346.7625 38.576563 
L 1356.7625 38.576563 
" style="fill: none; stroke: #ff7f0e; stroke-width: 1.5; stroke-linecap: square"/>
    </g>
    <g id="text_16">
     <!-- Occupancy -->
     <g transform="translate(1364.7625 42.076563)scale(0.1 -0.1)">
      <defs>
       <path id="DejaVuSans-4f" d="M 2522 4238 
Q 1834 4238 1429 3725 
Q 1025 3213 1025 2328 
Q 1025 1447 1429 934 
Q 1834 422 2522 422 
Q 3209 422 3611 934 
Q 4013 1447 4013 2328 
Q 4013 3213 3611 3725 
Q 3209 4238 2522 4238 
z
M 2522 4750 
Q 3503 4750 4090 4092 
Q 4678 3434 4678 2328 
Q 4678 1225 4090 567 
Q 3503 -91 2522 -91 
Q 1538 -91 948 565 
Q 359 1222 359 2328 
Q 359 3434 948 4092 
Q 1538 4750 2522 4750 
z
" transform="scale(0.015625)"/>
       <path id="DejaVuSans-63" d="M 3122 3366 
L 3122 2828 
Q 2878 2963 2633 3030 
Q 2388 3097 2138 3097 
Q 1578 3097 1268 2742 
Q 959 2388 959 1747 
Q 959 1106 1268 751 
Q 1578 397 2138 397 
Q 2388 397 2633 464 
Q 2878 531 3122 666 
L 3122 134 
Q 2881 22 2623 -34 
Q 2366 -91 2075 -91 
Q 1284 -91 818 406 
Q 353 903 353 1747 
Q 353 2603 823 3093 
Q 1294 3584 2113 3584 
Q 2378 3584 2631 3529 
Q 2884 3475 3122 3366 
z
" transform="scale(0.015625)"/>
       <path id="DejaVuSans-70" d="M 1159 525 
L 1159 -1331 
L 581 -1331 
L 581 3500 
L 1159 3500 
L 1159 2969 
Q 1341 3281 1617 3432 
Q 1894 3584 2278 3584 
Q 2916 3584 3314 3078 
Q 3713 2572 3713 1747 
Q 3713 922 3314 415 
Q 2916 -91 2278 -91 
Q 1894 -91 1617 61 
Q 1341 213 1159 525 
z
M 3116 1747 
Q 3116 2381 2855 2742 
Q 2594 3103 2138 3103 
Q 1681 3103 1420 2742 
Q 1159 2381 1159 1747 
Q 1159 1113 1420 752 
Q 1681 391 2138 391 
Q 2594 391 2855 752 
Q 3116 1113 3116 1747 
z
" transform="scale(0.015625)"/>
       <path id="DejaVuSans-61" d="M 2194 1759 
Q 1497 1759 1228 1600 
Q 959 1441 959 1056 
Q 959 750 1161 570 
Q 1363 391 1709 391 
Q 2188 391 2477 730 
Q 2766 1069 2766 1631 
L 2766 1759 
L 2194 1759 
z
M 3341 1997 
L 3341 0 
L 2766 0 
L 2766 531 
Q 2569 213 2275 61 
Q 1981 -91 1556 -91 
Q 1019 -91 701 211 
Q 384 513 384 1019 
Q 384 1609 779 1909 
Q 1175 2209 1959 2209 
L 2766 2209 
L 2766 2266 
Q 2766 2663 2505 2880 
Q 2244 3097 1772 3097 
Q 1472 3097 1187 3025 
Q 903 2953 641 2809 
L 641 3341 
Q 956 3463 1253 3523 
Q 1550 3584 1831 3584 
Q 2591 3584 2966 3190 
Q 3341 2797 3341 1997 
z
" transform="scale(0.015625)"/>
       <path id="DejaVuSans-6e" d="M 3513 2113 
L 3513 0 
L 2938 0 
L 2938 2094 
Q 2938 2591 2744 2837 
Q 2550 3084 2163 3084 
Q 1697 3084 1428 2787 
Q 1159 2491 1159 1978 
L 1159 0 
L 581 0 
L 581 3500 
L 1159 3500 
L 1159 2956 
Q 1366 3272 1645 3428 
Q 1925 3584 2291 3584 
Q 2894 3584 3203 3211 
Q 3513 2838 3513 2113 
z
" transform="scale(0.015625)"/>
       <path id="DejaVuSans-79" d="M 2059 -325 
Q 1816 -950 1584 -1140 
Q 1353 -1331 966 -1331 
L 506 -1331 
L 506 -850 
L 844 -850 
Q 1081 -850 1212 -737 
Q 1344 -625 1503 -206 
L 1606 56 
L 191 3500 
L 800 3500 
L 1894 763 
L 2988 3500 
L 3597 3500 
L 2059 -325 
z
" transform="scale(0.015625)"/>
      </defs>
      <use xlink:href="#DejaVuSans-4f"/>
      <use xlink:href="#DejaVuSans-63" x="78.710938"/>
      <use xlink:href="#DejaVuSans-63" x="133.691406"/>
      <use xlink:href="#DejaVuSans-75" x="188.671875"/>
      <use xlink:href="#DejaVuSans-70" x="252.050781"/>
      <use xlink:href="#DejaVuSans-61" x="315.527344"/>
      <use xlink:href="#DejaVuSans-6e" x="376.806641"/>
      <use xlink:href="#DejaVuSans-63" x="440.185547"/>
      <use xlink:href="#DejaVuSans-79" x="495.166016"/>
     </g>
    </g>
   </g>
  </g>
 </g>
 <defs>
  <clipPath id="p7a920989ac">
   <rect x="24.19" y="10.8" width="1405.01" height="537.32"/>
  </clipPath>
 </defs>
</svg>
