<?xml version="1.0" encoding="utf-8" standalone="no"?>
<!DOCTYPE svg PUBLIC "-//W3C//DTD SVG 1.1//EN"
  "http://www.w3.org/Graphics/SVG/1.1/DTD/svg11.dtd">
<svg xmlns:xlink="http://www.w3.org/1999/xlink" width="864pt" height="576pt" viewBox="0 0 864 576" xmlns="http://www.w3.org/2000/svg" version="1.1">
 <metadata>
  <rdf:RDF xmlns:dc="http://purl.org/dc/elements/1.1/" xmlns:cc="http://creativecommons.org/ns#" xmlns:rdf="http://www.w3.org/1999/02/22-rdf-syntax-ns#">
   <cc:Work>
    <dc:type rdf:resource="http://purl.org/dc/dcmitype/StillImage"/>
    <dc:date>2023-02-07T23:50:20.367138</dc:date>
    <dc:format>image/svg+xml</dc:format>
    <dc:creator>
     <cc:Agent>
      <dc:title>Matplotlib v3.5.2, https://matplotlib.org/</dc:title>
     </cc:Agent>
    </dc:creator>
   </cc:Work>
  </rdf:RDF>
 </metadata>
 <defs>
  <style type="text/css">*{stroke-linejoin: round; stroke-linecap: butt}</style>
 </defs>
 <g id="figure_1">
  <g id="patch_1">
   <path d="M 0 576 
L 864 576 
L 864 0 
L 0 0 
z
" style="fill: #ffffff"/>
  </g>
  <g id="axes_1">
   <g id="patch_2">
    <path d="M 52.5125 284.19 
L 412.965 284.19 
L 412.965 50.64 
L 52.5125 50.64 
z
" style="fill: #ffffff"/>
   </g>
   <g id="matplotlib.axis_1">
    <g id="xtick_1">
     <g id="line2d_1">
      <path d="M 66.9306 284.19 
L 66.9306 50.64 
" clip-path="url(#pe76f197a16)" style="fill: none; stroke: #b0b0b0; stroke-width: 0.8; stroke-linecap: square"/>
     </g>
     <g id="line2d_2">
      <defs>
       <path id="m74a24b37a6" d="M 0 0 
L 0 3.5 
" style="stroke: #000000; stroke-width: 0.8"/>
      </defs>
      <g>
       <use xlink:href="#m74a24b37a6" x="66.9306" y="284.19" style="stroke: #000000; stroke-width: 0.8"/>
      </g>
     </g>
    </g>
    <g id="xtick_2">
     <g id="line2d_3">
      <path d="M 124.603 284.19 
L 124.603 50.64 
" clip-path="url(#pe76f197a16)" style="fill: none; stroke: #b0b0b0; stroke-width: 0.8; stroke-linecap: square"/>
     </g>
     <g id="line2d_4">
      <g>
       <use xlink:href="#m74a24b37a6" x="124.603" y="284.19" style="stroke: #000000; stroke-width: 0.8"/>
      </g>
     </g>
    </g>
    <g id="xtick_3">
     <g id="line2d_5">
      <path d="M 182.2754 284.19 
L 182.2754 50.64 
" clip-path="url(#pe76f197a16)" style="fill: none; stroke: #b0b0b0; stroke-width: 0.8; stroke-linecap: square"/>
     </g>
     <g id="line2d_6">
      <g>
       <use xlink:href="#m74a24b37a6" x="182.2754" y="284.19" style="stroke: #000000; stroke-width: 0.8"/>
      </g>
     </g>
    </g>
    <g id="xtick_4">
     <g id="line2d_7">
      <path d="M 239.9478 284.19 
L 239.9478 50.64 
" clip-path="url(#pe76f197a16)" style="fill: none; stroke: #b0b0b0; stroke-width: 0.8; stroke-linecap: square"/>
     </g>
     <g id="line2d_8">
      <g>
       <use xlink:href="#m74a24b37a6" x="239.9478" y="284.19" style="stroke: #000000; stroke-width: 0.8"/>
      </g>
     </g>
    </g>
    <g id="xtick_5">
     <g id="line2d_9">
      <path d="M 297.6202 284.19 
L 297.6202 50.64 
" clip-path="url(#pe76f197a16)" style="fill: none; stroke: #b0b0b0; stroke-width: 0.8; stroke-linecap: square"/>
     </g>
     <g id="line2d_10">
      <g>
       <use xlink:href="#m74a24b37a6" x="297.6202" y="284.19" style="stroke: #000000; stroke-width: 0.8"/>
      </g>
     </g>
    </g>
    <g id="xtick_6">
     <g id="line2d_11">
      <path d="M 355.2926 284.19 
L 355.2926 50.64 
" clip-path="url(#pe76f197a16)" style="fill: none; stroke: #b0b0b0; stroke-width: 0.8; stroke-linecap: square"/>
     </g>
     <g id="line2d_12">
      <g>
       <use xlink:href="#m74a24b37a6" x="355.2926" y="284.19" style="stroke: #000000; stroke-width: 0.8"/>
      </g>
     </g>
    </g>
    <g id="xtick_7">
     <g id="line2d_13">
      <path d="M 412.965 284.19 
L 412.965 50.64 
" clip-path="url(#pe76f197a16)" style="fill: none; stroke: #b0b0b0; stroke-width: 0.8; stroke-linecap: square"/>
     </g>
     <g id="line2d_14">
      <g>
       <use xlink:href="#m74a24b37a6" x="412.965" y="284.19" style="stroke: #000000; stroke-width: 0.8"/>
      </g>
     </g>
    </g>
   </g>
   <g id="matplotlib.axis_2">
    <g id="ytick_1">
     <g id="line2d_15">
      <path d="M 52.5125 256.170961 
L 412.965 256.170961 
" clip-path="url(#pe76f197a16)" style="fill: none; stroke: #b0b0b0; stroke-width: 0.8; stroke-linecap: square"/>
     </g>
     <g id="line2d_16">
      <defs>
       <path id="medf12ac2dd" d="M 0 0 
L -3.5 0 
" style="stroke: #000000; stroke-width: 0.8"/>
      </defs>
      <g>
       <use xlink:href="#medf12ac2dd" x="52.5125" y="256.170961" style="stroke: #000000; stroke-width: 0.8"/>
      </g>
     </g>
     <g id="text_1">
      <!-- 30 -->
      <g transform="translate(32.7875 259.97018)scale(0.1 -0.1)">
       <defs>
        <path id="DejaVuSans-33" d="M 2597 2516 
Q 3050 2419 3304 2112 
Q 3559 1806 3559 1356 
Q 3559 666 3084 287 
Q 2609 -91 1734 -91 
Q 1441 -91 1130 -33 
Q 819 25 488 141 
L 488 750 
Q 750 597 1062 519 
Q 1375 441 1716 441 
Q 2309 441 2620 675 
Q 2931 909 2931 1356 
Q 2931 1769 2642 2001 
Q 2353 2234 1838 2234 
L 1294 2234 
L 1294 2753 
L 1863 2753 
Q 2328 2753 2575 2939 
Q 2822 3125 2822 3475 
Q 2822 3834 2567 4026 
Q 2313 4219 1838 4219 
Q 1578 4219 1281 4162 
Q 984 4106 628 3988 
L 628 4550 
Q 988 4650 1302 4700 
Q 1616 4750 1894 4750 
Q 2613 4750 3031 4423 
Q 3450 4097 3450 3541 
Q 3450 3153 3228 2886 
Q 3006 2619 2597 2516 
z
" transform="scale(0.015625)"/>
        <path id="DejaVuSans-30" d="M 2034 4250 
Q 1547 4250 1301 3770 
Q 1056 3291 1056 2328 
Q 1056 1369 1301 889 
Q 1547 409 2034 409 
Q 2525 409 2770 889 
Q 3016 1369 3016 2328 
Q 3016 3291 2770 3770 
Q 2525 4250 2034 4250 
z
M 2034 4750 
Q 2819 4750 3233 4129 
Q 3647 3509 3647 2328 
Q 3647 1150 3233 529 
Q 2819 -91 2034 -91 
Q 1250 -91 836 529 
Q 422 1150 422 2328 
Q 422 3509 836 4129 
Q 1250 4750 2034 4750 
z
" transform="scale(0.015625)"/>
       </defs>
       <use xlink:href="#DejaVuSans-33"/>
       <use xlink:href="#DejaVuSans-30" x="63.623047"/>
      </g>
     </g>
    </g>
    <g id="ytick_2">
     <g id="line2d_17">
      <path d="M 52.5125 221.364702 
L 412.965 221.364702 
" clip-path="url(#pe76f197a16)" style="fill: none; stroke: #b0b0b0; stroke-width: 0.8; stroke-linecap: square"/>
     </g>
     <g id="line2d_18">
      <g>
       <use xlink:href="#medf12ac2dd" x="52.5125" y="221.364702" style="stroke: #000000; stroke-width: 0.8"/>
      </g>
     </g>
     <g id="text_2">
      <!-- 40 -->
      <g transform="translate(32.7875 225.163921)scale(0.1 -0.1)">
       <defs>
        <path id="DejaVuSans-34" d="M 2419 4116 
L 825 1625 
L 2419 1625 
L 2419 4116 
z
M 2253 4666 
L 3047 4666 
L 3047 1625 
L 3713 1625 
L 3713 1100 
L 3047 1100 
L 3047 0 
L 2419 0 
L 2419 1100 
L 313 1100 
L 313 1709 
L 2253 4666 
z
" transform="scale(0.015625)"/>
       </defs>
       <use xlink:href="#DejaVuSans-34"/>
       <use xlink:href="#DejaVuSans-30" x="63.623047"/>
      </g>
     </g>
    </g>
    <g id="ytick_3">
     <g id="line2d_19">
      <path d="M 52.5125 186.558443 
L 412.965 186.558443 
" clip-path="url(#pe76f197a16)" style="fill: none; stroke: #b0b0b0; stroke-width: 0.8; stroke-linecap: square"/>
     </g>
     <g id="line2d_20">
      <g>
       <use xlink:href="#medf12ac2dd" x="52.5125" y="186.558443" style="stroke: #000000; stroke-width: 0.8"/>
      </g>
     </g>
     <g id="text_3">
      <!-- 50 -->
      <g transform="translate(32.7875 190.357661)scale(0.1 -0.1)">
       <defs>
        <path id="DejaVuSans-35" d="M 691 4666 
L 3169 4666 
L 3169 4134 
L 1269 4134 
L 1269 2991 
Q 1406 3038 1543 3061 
Q 1681 3084 1819 3084 
Q 2600 3084 3056 2656 
Q 3513 2228 3513 1497 
Q 3513 744 3044 326 
Q 2575 -91 1722 -91 
Q 1428 -91 1123 -41 
Q 819 9 494 109 
L 494 744 
Q 775 591 1075 516 
Q 1375 441 1709 441 
Q 2250 441 2565 725 
Q 2881 1009 2881 1497 
Q 2881 1984 2565 2268 
Q 2250 2553 1709 2553 
Q 1456 2553 1204 2497 
Q 953 2441 691 2322 
L 691 4666 
z
" transform="scale(0.015625)"/>
       </defs>
       <use xlink:href="#DejaVuSans-35"/>
       <use xlink:href="#DejaVuSans-30" x="63.623047"/>
      </g>
     </g>
    </g>
    <g id="ytick_4">
     <g id="line2d_21">
      <path d="M 52.5125 151.752183 
L 412.965 151.752183 
" clip-path="url(#pe76f197a16)" style="fill: none; stroke: #b0b0b0; stroke-width: 0.8; stroke-linecap: square"/>
     </g>
     <g id="line2d_22">
      <g>
       <use xlink:href="#medf12ac2dd" x="52.5125" y="151.752183" style="stroke: #000000; stroke-width: 0.8"/>
      </g>
     </g>
     <g id="text_4">
      <!-- 60 -->
      <g transform="translate(32.7875 155.551402)scale(0.1 -0.1)">
       <defs>
        <path id="DejaVuSans-36" d="M 2113 2584 
Q 1688 2584 1439 2293 
Q 1191 2003 1191 1497 
Q 1191 994 1439 701 
Q 1688 409 2113 409 
Q 2538 409 2786 701 
Q 3034 994 3034 1497 
Q 3034 2003 2786 2293 
Q 2538 2584 2113 2584 
z
M 3366 4563 
L 3366 3988 
Q 3128 4100 2886 4159 
Q 2644 4219 2406 4219 
Q 1781 4219 1451 3797 
Q 1122 3375 1075 2522 
Q 1259 2794 1537 2939 
Q 1816 3084 2150 3084 
Q 2853 3084 3261 2657 
Q 3669 2231 3669 1497 
Q 3669 778 3244 343 
Q 2819 -91 2113 -91 
Q 1303 -91 875 529 
Q 447 1150 447 2328 
Q 447 3434 972 4092 
Q 1497 4750 2381 4750 
Q 2619 4750 2861 4703 
Q 3103 4656 3366 4563 
z
" transform="scale(0.015625)"/>
       </defs>
       <use xlink:href="#DejaVuSans-36"/>
       <use xlink:href="#DejaVuSans-30" x="63.623047"/>
      </g>
     </g>
    </g>
    <g id="ytick_5">
     <g id="line2d_23">
      <path d="M 52.5125 116.945924 
L 412.965 116.945924 
" clip-path="url(#pe76f197a16)" style="fill: none; stroke: #b0b0b0; stroke-width: 0.8; stroke-linecap: square"/>
     </g>
     <g id="line2d_24">
      <g>
       <use xlink:href="#medf12ac2dd" x="52.5125" y="116.945924" style="stroke: #000000; stroke-width: 0.8"/>
      </g>
     </g>
     <g id="text_5">
      <!-- 70 -->
      <g transform="translate(32.7875 120.745143)scale(0.1 -0.1)">
       <defs>
        <path id="DejaVuSans-37" d="M 525 4666 
L 3525 4666 
L 3525 4397 
L 1831 0 
L 1172 0 
L 2766 4134 
L 525 4134 
L 525 4666 
z
" transform="scale(0.015625)"/>
       </defs>
       <use xlink:href="#DejaVuSans-37"/>
       <use xlink:href="#DejaVuSans-30" x="63.623047"/>
      </g>
     </g>
    </g>
    <g id="ytick_6">
     <g id="line2d_25">
      <path d="M 52.5125 82.139665 
L 412.965 82.139665 
" clip-path="url(#pe76f197a16)" style="fill: none; stroke: #b0b0b0; stroke-width: 0.8; stroke-linecap: square"/>
     </g>
     <g id="line2d_26">
      <g>
       <use xlink:href="#medf12ac2dd" x="52.5125" y="82.139665" style="stroke: #000000; stroke-width: 0.8"/>
      </g>
     </g>
     <g id="text_6">
      <!-- 80 -->
      <g transform="translate(32.7875 85.938883)scale(0.1 -0.1)">
       <defs>
        <path id="DejaVuSans-38" d="M 2034 2216 
Q 1584 2216 1326 1975 
Q 1069 1734 1069 1313 
Q 1069 891 1326 650 
Q 1584 409 2034 409 
Q 2484 409 2743 651 
Q 3003 894 3003 1313 
Q 3003 1734 2745 1975 
Q 2488 2216 2034 2216 
z
M 1403 2484 
Q 997 2584 770 2862 
Q 544 3141 544 3541 
Q 544 4100 942 4425 
Q 1341 4750 2034 4750 
Q 2731 4750 3128 4425 
Q 3525 4100 3525 3541 
Q 3525 3141 3298 2862 
Q 3072 2584 2669 2484 
Q 3125 2378 3379 2068 
Q 3634 1759 3634 1313 
Q 3634 634 3220 271 
Q 2806 -91 2034 -91 
Q 1263 -91 848 271 
Q 434 634 434 1313 
Q 434 1759 690 2068 
Q 947 2378 1403 2484 
z
M 1172 3481 
Q 1172 3119 1398 2916 
Q 1625 2713 2034 2713 
Q 2441 2713 2670 2916 
Q 2900 3119 2900 3481 
Q 2900 3844 2670 4047 
Q 2441 4250 2034 4250 
Q 1625 4250 1398 4047 
Q 1172 3844 1172 3481 
z
" transform="scale(0.015625)"/>
       </defs>
       <use xlink:href="#DejaVuSans-38"/>
       <use xlink:href="#DejaVuSans-30" x="63.623047"/>
      </g>
     </g>
    </g>
    <g id="text_7">
     <!-- $[veh]$ -->
     <g transform="translate(26.707813 180.565)rotate(-90)scale(0.1 -0.1)">
      <defs>
       <path id="DejaVuSans-5b" d="M 550 4863 
L 1875 4863 
L 1875 4416 
L 1125 4416 
L 1125 -397 
L 1875 -397 
L 1875 -844 
L 550 -844 
L 550 4863 
z
" transform="scale(0.015625)"/>
       <path id="DejaVuSans-Oblique-76" d="M 459 3500 
L 1069 3500 
L 1581 525 
L 3256 3500 
L 3866 3500 
L 1875 0 
L 1100 0 
L 459 3500 
z
" transform="scale(0.015625)"/>
       <path id="DejaVuSans-Oblique-65" d="M 3078 2063 
Q 3088 2113 3092 2166 
Q 3097 2219 3097 2272 
Q 3097 2653 2873 2875 
Q 2650 3097 2266 3097 
Q 1838 3097 1509 2826 
Q 1181 2556 1013 2059 
L 3078 2063 
z
M 3578 1613 
L 903 1613 
Q 884 1494 878 1425 
Q 872 1356 872 1306 
Q 872 872 1139 634 
Q 1406 397 1894 397 
Q 2269 397 2603 481 
Q 2938 566 3225 728 
L 3116 159 
Q 2806 34 2476 -28 
Q 2147 -91 1806 -91 
Q 1078 -91 686 257 
Q 294 606 294 1247 
Q 294 1794 489 2264 
Q 684 2734 1063 3103 
Q 1306 3334 1642 3459 
Q 1978 3584 2356 3584 
Q 2950 3584 3301 3228 
Q 3653 2872 3653 2272 
Q 3653 2128 3634 1964 
Q 3616 1800 3578 1613 
z
" transform="scale(0.015625)"/>
       <path id="DejaVuSans-Oblique-68" d="M 3566 2113 
L 3156 0 
L 2578 0 
L 2988 2091 
Q 3016 2238 3031 2350 
Q 3047 2463 3047 2528 
Q 3047 2791 2881 2937 
Q 2716 3084 2419 3084 
Q 1956 3084 1617 2771 
Q 1278 2459 1178 1941 
L 800 0 
L 225 0 
L 1172 4863 
L 1747 4863 
L 1375 2950 
Q 1594 3244 1934 3414 
Q 2275 3584 2650 3584 
Q 3113 3584 3367 3334 
Q 3622 3084 3622 2631 
Q 3622 2519 3608 2391 
Q 3594 2263 3566 2113 
z
" transform="scale(0.015625)"/>
       <path id="DejaVuSans-5d" d="M 1947 4863 
L 1947 -844 
L 622 -844 
L 622 -397 
L 1369 -397 
L 1369 4416 
L 622 4416 
L 622 4863 
L 1947 4863 
z
" transform="scale(0.015625)"/>
      </defs>
      <use xlink:href="#DejaVuSans-5b" transform="translate(0 0.015625)"/>
      <use xlink:href="#DejaVuSans-Oblique-76" transform="translate(39.013672 0.015625)"/>
      <use xlink:href="#DejaVuSans-Oblique-65" transform="translate(98.193359 0.015625)"/>
      <use xlink:href="#DejaVuSans-Oblique-68" transform="translate(159.716797 0.015625)"/>
      <use xlink:href="#DejaVuSans-5d" transform="translate(223.095703 0.015625)"/>
     </g>
    </g>
   </g>
   <g id="line2d_27">
    <path d="M 52.5125 273.574091 
L 52.5125 273.574091 
L 66.9306 273.574091 
L 66.9306 134.349054 
L 81.3487 134.349054 
L 81.3487 137.82968 
L 95.7668 137.82968 
L 95.7668 85.620291 
L 110.1849 85.620291 
L 110.1849 61.255909 
L 124.603 61.255909 
L 124.603 137.82968 
L 139.0211 137.82968 
L 139.0211 151.752183 
L 153.4392 151.752183 
L 153.4392 155.232809 
L 167.8573 155.232809 
L 167.8573 141.310306 
L 182.2754 141.310306 
L 182.2754 134.349054 
L 196.6935 134.349054 
L 196.6935 134.349054 
L 211.1116 134.349054 
L 211.1116 109.984672 
L 225.5297 109.984672 
L 225.5297 148.271557 
L 239.9478 148.271557 
L 239.9478 141.310306 
L 254.3659 141.310306 
L 254.3659 151.752183 
L 268.784 151.752183 
L 268.784 165.674687 
L 283.2021 165.674687 
L 283.2021 134.349054 
L 297.6202 134.349054 
L 297.6202 113.465298 
L 312.0383 113.465298 
L 312.0383 155.232809 
L 326.4564 155.232809 
L 326.4564 137.82968 
L 340.8745 137.82968 
L 340.8745 137.82968 
L 355.2926 137.82968 
L 355.2926 116.945924 
L 369.7107 116.945924 
L 369.7107 130.868428 
L 384.1288 130.868428 
L 384.1288 106.504046 
L 398.5469 106.504046 
L 398.5469 169.155313 
L 412.965 169.155313 
" clip-path="url(#pe76f197a16)" style="fill: none; stroke: #1f77b4; stroke-width: 1.2; stroke-linecap: square"/>
   </g>
   <g id="patch_3">
    <path d="M 52.5125 284.19 
L 52.5125 50.64 
" style="fill: none; stroke: #000000; stroke-width: 0.8; stroke-linejoin: miter; stroke-linecap: square"/>
   </g>
   <g id="patch_4">
    <path d="M 412.965 284.19 
L 412.965 50.64 
" style="fill: none; stroke: #000000; stroke-width: 0.8; stroke-linejoin: miter; stroke-linecap: square"/>
   </g>
   <g id="patch_5">
    <path d="M 52.5125 284.19 
L 412.965 284.19 
" style="fill: none; stroke: #000000; stroke-width: 0.8; stroke-linejoin: miter; stroke-linecap: square"/>
   </g>
   <g id="patch_6">
    <path d="M 52.5125 50.64 
L 412.965 50.64 
" style="fill: none; stroke: #000000; stroke-width: 0.8; stroke-linejoin: miter; stroke-linecap: square"/>
   </g>
   <g id="text_8">
    <!-- Intersection throughput -->
    <g transform="translate(161.604062 44.64)scale(0.12 -0.12)">
     <defs>
      <path id="DejaVuSans-49" d="M 628 4666 
L 1259 4666 
L 1259 0 
L 628 0 
L 628 4666 
z
" transform="scale(0.015625)"/>
      <path id="DejaVuSans-6e" d="M 3513 2113 
L 3513 0 
L 2938 0 
L 2938 2094 
Q 2938 2591 2744 2837 
Q 2550 3084 2163 3084 
Q 1697 3084 1428 2787 
Q 1159 2491 1159 1978 
L 1159 0 
L 581 0 
L 581 3500 
L 1159 3500 
L 1159 2956 
Q 1366 3272 1645 3428 
Q 1925 3584 2291 3584 
Q 2894 3584 3203 3211 
Q 3513 2838 3513 2113 
z
" transform="scale(0.015625)"/>
      <path id="DejaVuSans-74" d="M 1172 4494 
L 1172 3500 
L 2356 3500 
L 2356 3053 
L 1172 3053 
L 1172 1153 
Q 1172 725 1289 603 
Q 1406 481 1766 481 
L 2356 481 
L 2356 0 
L 1766 0 
Q 1100 0 847 248 
Q 594 497 594 1153 
L 594 3053 
L 172 3053 
L 172 3500 
L 594 3500 
L 594 4494 
L 1172 4494 
z
" transform="scale(0.015625)"/>
      <path id="DejaVuSans-65" d="M 3597 1894 
L 3597 1613 
L 953 1613 
Q 991 1019 1311 708 
Q 1631 397 2203 397 
Q 2534 397 2845 478 
Q 3156 559 3463 722 
L 3463 178 
Q 3153 47 2828 -22 
Q 2503 -91 2169 -91 
Q 1331 -91 842 396 
Q 353 884 353 1716 
Q 353 2575 817 3079 
Q 1281 3584 2069 3584 
Q 2775 3584 3186 3129 
Q 3597 2675 3597 1894 
z
M 3022 2063 
Q 3016 2534 2758 2815 
Q 2500 3097 2075 3097 
Q 1594 3097 1305 2825 
Q 1016 2553 972 2059 
L 3022 2063 
z
" transform="scale(0.015625)"/>
      <path id="DejaVuSans-72" d="M 2631 2963 
Q 2534 3019 2420 3045 
Q 2306 3072 2169 3072 
Q 1681 3072 1420 2755 
Q 1159 2438 1159 1844 
L 1159 0 
L 581 0 
L 581 3500 
L 1159 3500 
L 1159 2956 
Q 1341 3275 1631 3429 
Q 1922 3584 2338 3584 
Q 2397 3584 2469 3576 
Q 2541 3569 2628 3553 
L 2631 2963 
z
" transform="scale(0.015625)"/>
      <path id="DejaVuSans-73" d="M 2834 3397 
L 2834 2853 
Q 2591 2978 2328 3040 
Q 2066 3103 1784 3103 
Q 1356 3103 1142 2972 
Q 928 2841 928 2578 
Q 928 2378 1081 2264 
Q 1234 2150 1697 2047 
L 1894 2003 
Q 2506 1872 2764 1633 
Q 3022 1394 3022 966 
Q 3022 478 2636 193 
Q 2250 -91 1575 -91 
Q 1294 -91 989 -36 
Q 684 19 347 128 
L 347 722 
Q 666 556 975 473 
Q 1284 391 1588 391 
Q 1994 391 2212 530 
Q 2431 669 2431 922 
Q 2431 1156 2273 1281 
Q 2116 1406 1581 1522 
L 1381 1569 
Q 847 1681 609 1914 
Q 372 2147 372 2553 
Q 372 3047 722 3315 
Q 1072 3584 1716 3584 
Q 2034 3584 2315 3537 
Q 2597 3491 2834 3397 
z
" transform="scale(0.015625)"/>
      <path id="DejaVuSans-63" d="M 3122 3366 
L 3122 2828 
Q 2878 2963 2633 3030 
Q 2388 3097 2138 3097 
Q 1578 3097 1268 2742 
Q 959 2388 959 1747 
Q 959 1106 1268 751 
Q 1578 397 2138 397 
Q 2388 397 2633 464 
Q 2878 531 3122 666 
L 3122 134 
Q 2881 22 2623 -34 
Q 2366 -91 2075 -91 
Q 1284 -91 818 406 
Q 353 903 353 1747 
Q 353 2603 823 3093 
Q 1294 3584 2113 3584 
Q 2378 3584 2631 3529 
Q 2884 3475 3122 3366 
z
" transform="scale(0.015625)"/>
      <path id="DejaVuSans-69" d="M 603 3500 
L 1178 3500 
L 1178 0 
L 603 0 
L 603 3500 
z
M 603 4863 
L 1178 4863 
L 1178 4134 
L 603 4134 
L 603 4863 
z
" transform="scale(0.015625)"/>
      <path id="DejaVuSans-6f" d="M 1959 3097 
Q 1497 3097 1228 2736 
Q 959 2375 959 1747 
Q 959 1119 1226 758 
Q 1494 397 1959 397 
Q 2419 397 2687 759 
Q 2956 1122 2956 1747 
Q 2956 2369 2687 2733 
Q 2419 3097 1959 3097 
z
M 1959 3584 
Q 2709 3584 3137 3096 
Q 3566 2609 3566 1747 
Q 3566 888 3137 398 
Q 2709 -91 1959 -91 
Q 1206 -91 779 398 
Q 353 888 353 1747 
Q 353 2609 779 3096 
Q 1206 3584 1959 3584 
z
" transform="scale(0.015625)"/>
      <path id="DejaVuSans-20" transform="scale(0.015625)"/>
      <path id="DejaVuSans-68" d="M 3513 2113 
L 3513 0 
L 2938 0 
L 2938 2094 
Q 2938 2591 2744 2837 
Q 2550 3084 2163 3084 
Q 1697 3084 1428 2787 
Q 1159 2491 1159 1978 
L 1159 0 
L 581 0 
L 581 4863 
L 1159 4863 
L 1159 2956 
Q 1366 3272 1645 3428 
Q 1925 3584 2291 3584 
Q 2894 3584 3203 3211 
Q 3513 2838 3513 2113 
z
" transform="scale(0.015625)"/>
      <path id="DejaVuSans-75" d="M 544 1381 
L 544 3500 
L 1119 3500 
L 1119 1403 
Q 1119 906 1312 657 
Q 1506 409 1894 409 
Q 2359 409 2629 706 
Q 2900 1003 2900 1516 
L 2900 3500 
L 3475 3500 
L 3475 0 
L 2900 0 
L 2900 538 
Q 2691 219 2414 64 
Q 2138 -91 1772 -91 
Q 1169 -91 856 284 
Q 544 659 544 1381 
z
M 1991 3584 
L 1991 3584 
z
" transform="scale(0.015625)"/>
      <path id="DejaVuSans-67" d="M 2906 1791 
Q 2906 2416 2648 2759 
Q 2391 3103 1925 3103 
Q 1463 3103 1205 2759 
Q 947 2416 947 1791 
Q 947 1169 1205 825 
Q 1463 481 1925 481 
Q 2391 481 2648 825 
Q 2906 1169 2906 1791 
z
M 3481 434 
Q 3481 -459 3084 -895 
Q 2688 -1331 1869 -1331 
Q 1566 -1331 1297 -1286 
Q 1028 -1241 775 -1147 
L 775 -588 
Q 1028 -725 1275 -790 
Q 1522 -856 1778 -856 
Q 2344 -856 2625 -561 
Q 2906 -266 2906 331 
L 2906 616 
Q 2728 306 2450 153 
Q 2172 0 1784 0 
Q 1141 0 747 490 
Q 353 981 353 1791 
Q 353 2603 747 3093 
Q 1141 3584 1784 3584 
Q 2172 3584 2450 3431 
Q 2728 3278 2906 2969 
L 2906 3500 
L 3481 3500 
L 3481 434 
z
" transform="scale(0.015625)"/>
      <path id="DejaVuSans-70" d="M 1159 525 
L 1159 -1331 
L 581 -1331 
L 581 3500 
L 1159 3500 
L 1159 2969 
Q 1341 3281 1617 3432 
Q 1894 3584 2278 3584 
Q 2916 3584 3314 3078 
Q 3713 2572 3713 1747 
Q 3713 922 3314 415 
Q 2916 -91 2278 -91 
Q 1894 -91 1617 61 
Q 1341 213 1159 525 
z
M 3116 1747 
Q 3116 2381 2855 2742 
Q 2594 3103 2138 3103 
Q 1681 3103 1420 2742 
Q 1159 2381 1159 1747 
Q 1159 1113 1420 752 
Q 1681 391 2138 391 
Q 2594 391 2855 752 
Q 3116 1113 3116 1747 
z
" transform="scale(0.015625)"/>
     </defs>
     <use xlink:href="#DejaVuSans-49"/>
     <use xlink:href="#DejaVuSans-6e" x="29.492188"/>
     <use xlink:href="#DejaVuSans-74" x="92.871094"/>
     <use xlink:href="#DejaVuSans-65" x="132.080078"/>
     <use xlink:href="#DejaVuSans-72" x="193.603516"/>
     <use xlink:href="#DejaVuSans-73" x="234.716797"/>
     <use xlink:href="#DejaVuSans-65" x="286.816406"/>
     <use xlink:href="#DejaVuSans-63" x="348.339844"/>
     <use xlink:href="#DejaVuSans-74" x="403.320312"/>
     <use xlink:href="#DejaVuSans-69" x="442.529297"/>
     <use xlink:href="#DejaVuSans-6f" x="470.3125"/>
     <use xlink:href="#DejaVuSans-6e" x="531.494141"/>
     <use xlink:href="#DejaVuSans-20" x="594.873047"/>
     <use xlink:href="#DejaVuSans-74" x="626.660156"/>
     <use xlink:href="#DejaVuSans-68" x="665.869141"/>
     <use xlink:href="#DejaVuSans-72" x="729.248047"/>
     <use xlink:href="#DejaVuSans-6f" x="768.111328"/>
     <use xlink:href="#DejaVuSans-75" x="829.292969"/>
     <use xlink:href="#DejaVuSans-67" x="892.671875"/>
     <use xlink:href="#DejaVuSans-68" x="956.148438"/>
     <use xlink:href="#DejaVuSans-70" x="1019.527344"/>
     <use xlink:href="#DejaVuSans-75" x="1083.003906"/>
     <use xlink:href="#DejaVuSans-74" x="1146.382812"/>
    </g>
   </g>
  </g>
  <g id="axes_2">
   <g id="patch_7">
    <path d="M 480.1475 284.19 
L 840.6 284.19 
L 840.6 50.64 
L 480.1475 50.64 
z
" style="fill: #ffffff"/>
   </g>
   <g id="matplotlib.axis_3">
    <g id="xtick_8">
     <g id="line2d_28">
      <path d="M 494.5656 284.19 
L 494.5656 50.64 
" clip-path="url(#pe543d1b57f)" style="fill: none; stroke: #b0b0b0; stroke-width: 0.8; stroke-linecap: square"/>
     </g>
     <g id="line2d_29">
      <g>
       <use xlink:href="#m74a24b37a6" x="494.5656" y="284.19" style="stroke: #000000; stroke-width: 0.8"/>
      </g>
     </g>
    </g>
    <g id="xtick_9">
     <g id="line2d_30">
      <path d="M 552.238 284.19 
L 552.238 50.64 
" clip-path="url(#pe543d1b57f)" style="fill: none; stroke: #b0b0b0; stroke-width: 0.8; stroke-linecap: square"/>
     </g>
     <g id="line2d_31">
      <g>
       <use xlink:href="#m74a24b37a6" x="552.238" y="284.19" style="stroke: #000000; stroke-width: 0.8"/>
      </g>
     </g>
    </g>
    <g id="xtick_10">
     <g id="line2d_32">
      <path d="M 609.9104 284.19 
L 609.9104 50.64 
" clip-path="url(#pe543d1b57f)" style="fill: none; stroke: #b0b0b0; stroke-width: 0.8; stroke-linecap: square"/>
     </g>
     <g id="line2d_33">
      <g>
       <use xlink:href="#m74a24b37a6" x="609.9104" y="284.19" style="stroke: #000000; stroke-width: 0.8"/>
      </g>
     </g>
    </g>
    <g id="xtick_11">
     <g id="line2d_34">
      <path d="M 667.5828 284.19 
L 667.5828 50.64 
" clip-path="url(#pe543d1b57f)" style="fill: none; stroke: #b0b0b0; stroke-width: 0.8; stroke-linecap: square"/>
     </g>
     <g id="line2d_35">
      <g>
       <use xlink:href="#m74a24b37a6" x="667.5828" y="284.19" style="stroke: #000000; stroke-width: 0.8"/>
      </g>
     </g>
    </g>
    <g id="xtick_12">
     <g id="line2d_36">
      <path d="M 725.2552 284.19 
L 725.2552 50.64 
" clip-path="url(#pe543d1b57f)" style="fill: none; stroke: #b0b0b0; stroke-width: 0.8; stroke-linecap: square"/>
     </g>
     <g id="line2d_37">
      <g>
       <use xlink:href="#m74a24b37a6" x="725.2552" y="284.19" style="stroke: #000000; stroke-width: 0.8"/>
      </g>
     </g>
    </g>
    <g id="xtick_13">
     <g id="line2d_38">
      <path d="M 782.9276 284.19 
L 782.9276 50.64 
" clip-path="url(#pe543d1b57f)" style="fill: none; stroke: #b0b0b0; stroke-width: 0.8; stroke-linecap: square"/>
     </g>
     <g id="line2d_39">
      <g>
       <use xlink:href="#m74a24b37a6" x="782.9276" y="284.19" style="stroke: #000000; stroke-width: 0.8"/>
      </g>
     </g>
    </g>
    <g id="xtick_14">
     <g id="line2d_40">
      <path d="M 840.6 284.19 
L 840.6 50.64 
" clip-path="url(#pe543d1b57f)" style="fill: none; stroke: #b0b0b0; stroke-width: 0.8; stroke-linecap: square"/>
     </g>
     <g id="line2d_41">
      <g>
       <use xlink:href="#m74a24b37a6" x="840.6" y="284.19" style="stroke: #000000; stroke-width: 0.8"/>
      </g>
     </g>
    </g>
   </g>
   <g id="matplotlib.axis_4">
    <g id="ytick_7">
     <g id="line2d_42">
      <path d="M 480.1475 265.177327 
L 840.6 265.177327 
" clip-path="url(#pe543d1b57f)" style="fill: none; stroke: #b0b0b0; stroke-width: 0.8; stroke-linecap: square"/>
     </g>
     <g id="line2d_43">
      <g>
       <use xlink:href="#medf12ac2dd" x="480.1475" y="265.177327" style="stroke: #000000; stroke-width: 0.8"/>
      </g>
     </g>
     <g id="text_9">
      <!-- 0.5 -->
      <g transform="translate(457.244375 268.976546)scale(0.1 -0.1)">
       <defs>
        <path id="DejaVuSans-2e" d="M 684 794 
L 1344 794 
L 1344 0 
L 684 0 
L 684 794 
z
" transform="scale(0.015625)"/>
       </defs>
       <use xlink:href="#DejaVuSans-30"/>
       <use xlink:href="#DejaVuSans-2e" x="63.623047"/>
       <use xlink:href="#DejaVuSans-35" x="95.410156"/>
      </g>
     </g>
    </g>
    <g id="ytick_8">
     <g id="line2d_44">
      <path d="M 480.1475 223.193507 
L 840.6 223.193507 
" clip-path="url(#pe543d1b57f)" style="fill: none; stroke: #b0b0b0; stroke-width: 0.8; stroke-linecap: square"/>
     </g>
     <g id="line2d_45">
      <g>
       <use xlink:href="#medf12ac2dd" x="480.1475" y="223.193507" style="stroke: #000000; stroke-width: 0.8"/>
      </g>
     </g>
     <g id="text_10">
      <!-- 1.0 -->
      <g transform="translate(457.244375 226.992726)scale(0.1 -0.1)">
       <defs>
        <path id="DejaVuSans-31" d="M 794 531 
L 1825 531 
L 1825 4091 
L 703 3866 
L 703 4441 
L 1819 4666 
L 2450 4666 
L 2450 531 
L 3481 531 
L 3481 0 
L 794 0 
L 794 531 
z
" transform="scale(0.015625)"/>
       </defs>
       <use xlink:href="#DejaVuSans-31"/>
       <use xlink:href="#DejaVuSans-2e" x="63.623047"/>
       <use xlink:href="#DejaVuSans-30" x="95.410156"/>
      </g>
     </g>
    </g>
    <g id="ytick_9">
     <g id="line2d_46">
      <path d="M 480.1475 181.209687 
L 840.6 181.209687 
" clip-path="url(#pe543d1b57f)" style="fill: none; stroke: #b0b0b0; stroke-width: 0.8; stroke-linecap: square"/>
     </g>
     <g id="line2d_47">
      <g>
       <use xlink:href="#medf12ac2dd" x="480.1475" y="181.209687" style="stroke: #000000; stroke-width: 0.8"/>
      </g>
     </g>
     <g id="text_11">
      <!-- 1.5 -->
      <g transform="translate(457.244375 185.008905)scale(0.1 -0.1)">
       <use xlink:href="#DejaVuSans-31"/>
       <use xlink:href="#DejaVuSans-2e" x="63.623047"/>
       <use xlink:href="#DejaVuSans-35" x="95.410156"/>
      </g>
     </g>
    </g>
    <g id="ytick_10">
     <g id="line2d_48">
      <path d="M 480.1475 139.225867 
L 840.6 139.225867 
" clip-path="url(#pe543d1b57f)" style="fill: none; stroke: #b0b0b0; stroke-width: 0.8; stroke-linecap: square"/>
     </g>
     <g id="line2d_49">
      <g>
       <use xlink:href="#medf12ac2dd" x="480.1475" y="139.225867" style="stroke: #000000; stroke-width: 0.8"/>
      </g>
     </g>
     <g id="text_12">
      <!-- 2.0 -->
      <g transform="translate(457.244375 143.025085)scale(0.1 -0.1)">
       <defs>
        <path id="DejaVuSans-32" d="M 1228 531 
L 3431 531 
L 3431 0 
L 469 0 
L 469 531 
Q 828 903 1448 1529 
Q 2069 2156 2228 2338 
Q 2531 2678 2651 2914 
Q 2772 3150 2772 3378 
Q 2772 3750 2511 3984 
Q 2250 4219 1831 4219 
Q 1534 4219 1204 4116 
Q 875 4013 500 3803 
L 500 4441 
Q 881 4594 1212 4672 
Q 1544 4750 1819 4750 
Q 2544 4750 2975 4387 
Q 3406 4025 3406 3419 
Q 3406 3131 3298 2873 
Q 3191 2616 2906 2266 
Q 2828 2175 2409 1742 
Q 1991 1309 1228 531 
z
" transform="scale(0.015625)"/>
       </defs>
       <use xlink:href="#DejaVuSans-32"/>
       <use xlink:href="#DejaVuSans-2e" x="63.623047"/>
       <use xlink:href="#DejaVuSans-30" x="95.410156"/>
      </g>
     </g>
    </g>
    <g id="ytick_11">
     <g id="line2d_50">
      <path d="M 480.1475 97.242047 
L 840.6 97.242047 
" clip-path="url(#pe543d1b57f)" style="fill: none; stroke: #b0b0b0; stroke-width: 0.8; stroke-linecap: square"/>
     </g>
     <g id="line2d_51">
      <g>
       <use xlink:href="#medf12ac2dd" x="480.1475" y="97.242047" style="stroke: #000000; stroke-width: 0.8"/>
      </g>
     </g>
     <g id="text_13">
      <!-- 2.5 -->
      <g transform="translate(457.244375 101.041265)scale(0.1 -0.1)">
       <use xlink:href="#DejaVuSans-32"/>
       <use xlink:href="#DejaVuSans-2e" x="63.623047"/>
       <use xlink:href="#DejaVuSans-35" x="95.410156"/>
      </g>
     </g>
    </g>
    <g id="ytick_12">
     <g id="line2d_52">
      <path d="M 480.1475 55.258227 
L 840.6 55.258227 
" clip-path="url(#pe543d1b57f)" style="fill: none; stroke: #b0b0b0; stroke-width: 0.8; stroke-linecap: square"/>
     </g>
     <g id="line2d_53">
      <g>
       <use xlink:href="#medf12ac2dd" x="480.1475" y="55.258227" style="stroke: #000000; stroke-width: 0.8"/>
      </g>
     </g>
     <g id="text_14">
      <!-- 3.0 -->
      <g transform="translate(457.244375 59.057445)scale(0.1 -0.1)">
       <use xlink:href="#DejaVuSans-33"/>
       <use xlink:href="#DejaVuSans-2e" x="63.623047"/>
       <use xlink:href="#DejaVuSans-30" x="95.410156"/>
      </g>
     </g>
    </g>
    <g id="text_15">
     <!-- $[-]$ -->
     <g transform="translate(451.164687 175.515)rotate(-90)scale(0.1 -0.1)">
      <defs>
       <path id="DejaVuSans-2212" d="M 678 2272 
L 4684 2272 
L 4684 1741 
L 678 1741 
L 678 2272 
z
" transform="scale(0.015625)"/>
      </defs>
      <use xlink:href="#DejaVuSans-5b" transform="translate(0 0.015625)"/>
      <use xlink:href="#DejaVuSans-2212" transform="translate(39.013672 0.015625)"/>
      <use xlink:href="#DejaVuSans-5d" transform="translate(122.802734 0.015625)"/>
     </g>
    </g>
   </g>
   <g id="line2d_54">
    <path d="M 480.1475 273.574091 
L 480.1475 273.574091 
L 494.5656 273.574091 
L 494.5656 234.819795 
L 508.9837 234.819795 
L 508.9837 203.513591 
L 523.4018 203.513591 
L 523.4018 201.935881 
L 537.8199 201.935881 
L 537.8199 209.524356 
L 552.238 209.524356 
L 552.238 235.001456 
L 566.6561 235.001456 
L 566.6561 255.381099 
L 581.0742 255.381099 
L 581.0742 233.155769 
L 595.4923 233.155769 
L 595.4923 152.554059 
L 609.9104 152.554059 
L 609.9104 146.976726 
L 624.3285 146.976726 
L 624.3285 177.980157 
L 638.7466 177.980157 
L 638.7466 232.523244 
L 653.1647 232.523244 
L 653.1647 220.440477 
L 667.5828 220.440477 
L 667.5828 233.856062 
L 682.0009 233.856062 
L 682.0009 200.802133 
L 696.419 200.802133 
L 696.419 61.255909 
L 710.8371 61.255909 
L 710.8371 103.055193 
L 725.2552 103.055193 
L 725.2552 152.234931 
L 739.6733 152.234931 
L 739.6733 161.996757 
L 754.0914 161.996757 
L 754.0914 172.025726 
L 768.5095 172.025726 
L 768.5095 81.498114 
L 782.9276 81.498114 
L 782.9276 153.620322 
L 797.3457 153.620322 
L 797.3457 171.031793 
L 811.7638 171.031793 
L 811.7638 159.930221 
L 826.1819 159.930221 
L 826.1819 175.866288 
L 840.6 175.866288 
" clip-path="url(#pe543d1b57f)" style="fill: none; stroke: #1f77b4; stroke-width: 1.2; stroke-linecap: square"/>
   </g>
   <g id="patch_8">
    <path d="M 480.1475 284.19 
L 480.1475 50.64 
" style="fill: none; stroke: #000000; stroke-width: 0.8; stroke-linejoin: miter; stroke-linecap: square"/>
   </g>
   <g id="patch_9">
    <path d="M 840.6 284.19 
L 840.6 50.64 
" style="fill: none; stroke: #000000; stroke-width: 0.8; stroke-linejoin: miter; stroke-linecap: square"/>
   </g>
   <g id="patch_10">
    <path d="M 480.1475 284.19 
L 840.6 284.19 
" style="fill: none; stroke: #000000; stroke-width: 0.8; stroke-linejoin: miter; stroke-linecap: square"/>
   </g>
   <g id="patch_11">
    <path d="M 480.1475 50.64 
L 840.6 50.64 
" style="fill: none; stroke: #000000; stroke-width: 0.8; stroke-linejoin: miter; stroke-linecap: square"/>
   </g>
   <g id="text_16">
    <!-- Average halts per vehicle -->
    <g transform="translate(584.051875 44.64)scale(0.12 -0.12)">
     <defs>
      <path id="DejaVuSans-41" d="M 2188 4044 
L 1331 1722 
L 3047 1722 
L 2188 4044 
z
M 1831 4666 
L 2547 4666 
L 4325 0 
L 3669 0 
L 3244 1197 
L 1141 1197 
L 716 0 
L 50 0 
L 1831 4666 
z
" transform="scale(0.015625)"/>
      <path id="DejaVuSans-76" d="M 191 3500 
L 800 3500 
L 1894 563 
L 2988 3500 
L 3597 3500 
L 2284 0 
L 1503 0 
L 191 3500 
z
" transform="scale(0.015625)"/>
      <path id="DejaVuSans-61" d="M 2194 1759 
Q 1497 1759 1228 1600 
Q 959 1441 959 1056 
Q 959 750 1161 570 
Q 1363 391 1709 391 
Q 2188 391 2477 730 
Q 2766 1069 2766 1631 
L 2766 1759 
L 2194 1759 
z
M 3341 1997 
L 3341 0 
L 2766 0 
L 2766 531 
Q 2569 213 2275 61 
Q 1981 -91 1556 -91 
Q 1019 -91 701 211 
Q 384 513 384 1019 
Q 384 1609 779 1909 
Q 1175 2209 1959 2209 
L 2766 2209 
L 2766 2266 
Q 2766 2663 2505 2880 
Q 2244 3097 1772 3097 
Q 1472 3097 1187 3025 
Q 903 2953 641 2809 
L 641 3341 
Q 956 3463 1253 3523 
Q 1550 3584 1831 3584 
Q 2591 3584 2966 3190 
Q 3341 2797 3341 1997 
z
" transform="scale(0.015625)"/>
      <path id="DejaVuSans-6c" d="M 603 4863 
L 1178 4863 
L 1178 0 
L 603 0 
L 603 4863 
z
" transform="scale(0.015625)"/>
     </defs>
     <use xlink:href="#DejaVuSans-41"/>
     <use xlink:href="#DejaVuSans-76" x="62.533203"/>
     <use xlink:href="#DejaVuSans-65" x="121.712891"/>
     <use xlink:href="#DejaVuSans-72" x="183.236328"/>
     <use xlink:href="#DejaVuSans-61" x="224.349609"/>
     <use xlink:href="#DejaVuSans-67" x="285.628906"/>
     <use xlink:href="#DejaVuSans-65" x="349.105469"/>
     <use xlink:href="#DejaVuSans-20" x="410.628906"/>
     <use xlink:href="#DejaVuSans-68" x="442.416016"/>
     <use xlink:href="#DejaVuSans-61" x="505.794922"/>
     <use xlink:href="#DejaVuSans-6c" x="567.074219"/>
     <use xlink:href="#DejaVuSans-74" x="594.857422"/>
     <use xlink:href="#DejaVuSans-73" x="634.066406"/>
     <use xlink:href="#DejaVuSans-20" x="686.166016"/>
     <use xlink:href="#DejaVuSans-70" x="717.953125"/>
     <use xlink:href="#DejaVuSans-65" x="781.429688"/>
     <use xlink:href="#DejaVuSans-72" x="842.953125"/>
     <use xlink:href="#DejaVuSans-20" x="884.066406"/>
     <use xlink:href="#DejaVuSans-76" x="915.853516"/>
     <use xlink:href="#DejaVuSans-65" x="975.033203"/>
     <use xlink:href="#DejaVuSans-68" x="1036.556641"/>
     <use xlink:href="#DejaVuSans-69" x="1099.935547"/>
     <use xlink:href="#DejaVuSans-63" x="1127.71875"/>
     <use xlink:href="#DejaVuSans-6c" x="1182.699219"/>
     <use xlink:href="#DejaVuSans-65" x="1210.482422"/>
    </g>
   </g>
  </g>
  <g id="axes_3">
   <g id="patch_12">
    <path d="M 52.5125 548.12 
L 412.965 548.12 
L 412.965 314.57 
L 52.5125 314.57 
z
" style="fill: #ffffff"/>
   </g>
   <g id="matplotlib.axis_5">
    <g id="xtick_15">
     <g id="line2d_55">
      <path d="M 66.9306 548.12 
L 66.9306 314.57 
" clip-path="url(#p7a72b68609)" style="fill: none; stroke: #b0b0b0; stroke-width: 0.8; stroke-linecap: square"/>
     </g>
     <g id="line2d_56">
      <g>
       <use xlink:href="#m74a24b37a6" x="66.9306" y="548.12" style="stroke: #000000; stroke-width: 0.8"/>
      </g>
     </g>
     <g id="text_17">
      <!-- 150 -->
      <g transform="translate(57.38685 562.718437)scale(0.1 -0.1)">
       <use xlink:href="#DejaVuSans-31"/>
       <use xlink:href="#DejaVuSans-35" x="63.623047"/>
       <use xlink:href="#DejaVuSans-30" x="127.246094"/>
      </g>
     </g>
    </g>
    <g id="xtick_16">
     <g id="line2d_57">
      <path d="M 124.603 548.12 
L 124.603 314.57 
" clip-path="url(#p7a72b68609)" style="fill: none; stroke: #b0b0b0; stroke-width: 0.8; stroke-linecap: square"/>
     </g>
     <g id="line2d_58">
      <g>
       <use xlink:href="#m74a24b37a6" x="124.603" y="548.12" style="stroke: #000000; stroke-width: 0.8"/>
      </g>
     </g>
     <g id="text_18">
      <!-- 750 -->
      <g transform="translate(115.05925 562.718437)scale(0.1 -0.1)">
       <use xlink:href="#DejaVuSans-37"/>
       <use xlink:href="#DejaVuSans-35" x="63.623047"/>
       <use xlink:href="#DejaVuSans-30" x="127.246094"/>
      </g>
     </g>
    </g>
    <g id="xtick_17">
     <g id="line2d_59">
      <path d="M 182.2754 548.12 
L 182.2754 314.57 
" clip-path="url(#p7a72b68609)" style="fill: none; stroke: #b0b0b0; stroke-width: 0.8; stroke-linecap: square"/>
     </g>
     <g id="line2d_60">
      <g>
       <use xlink:href="#m74a24b37a6" x="182.2754" y="548.12" style="stroke: #000000; stroke-width: 0.8"/>
      </g>
     </g>
     <g id="text_19">
      <!-- 1350 -->
      <g transform="translate(169.5504 562.718437)scale(0.1 -0.1)">
       <use xlink:href="#DejaVuSans-31"/>
       <use xlink:href="#DejaVuSans-33" x="63.623047"/>
       <use xlink:href="#DejaVuSans-35" x="127.246094"/>
       <use xlink:href="#DejaVuSans-30" x="190.869141"/>
      </g>
     </g>
    </g>
    <g id="xtick_18">
     <g id="line2d_61">
      <path d="M 239.9478 548.12 
L 239.9478 314.57 
" clip-path="url(#p7a72b68609)" style="fill: none; stroke: #b0b0b0; stroke-width: 0.8; stroke-linecap: square"/>
     </g>
     <g id="line2d_62">
      <g>
       <use xlink:href="#m74a24b37a6" x="239.9478" y="548.12" style="stroke: #000000; stroke-width: 0.8"/>
      </g>
     </g>
     <g id="text_20">
      <!-- 1950 -->
      <g transform="translate(227.2228 562.718437)scale(0.1 -0.1)">
       <defs>
        <path id="DejaVuSans-39" d="M 703 97 
L 703 672 
Q 941 559 1184 500 
Q 1428 441 1663 441 
Q 2288 441 2617 861 
Q 2947 1281 2994 2138 
Q 2813 1869 2534 1725 
Q 2256 1581 1919 1581 
Q 1219 1581 811 2004 
Q 403 2428 403 3163 
Q 403 3881 828 4315 
Q 1253 4750 1959 4750 
Q 2769 4750 3195 4129 
Q 3622 3509 3622 2328 
Q 3622 1225 3098 567 
Q 2575 -91 1691 -91 
Q 1453 -91 1209 -44 
Q 966 3 703 97 
z
M 1959 2075 
Q 2384 2075 2632 2365 
Q 2881 2656 2881 3163 
Q 2881 3666 2632 3958 
Q 2384 4250 1959 4250 
Q 1534 4250 1286 3958 
Q 1038 3666 1038 3163 
Q 1038 2656 1286 2365 
Q 1534 2075 1959 2075 
z
" transform="scale(0.015625)"/>
       </defs>
       <use xlink:href="#DejaVuSans-31"/>
       <use xlink:href="#DejaVuSans-39" x="63.623047"/>
       <use xlink:href="#DejaVuSans-35" x="127.246094"/>
       <use xlink:href="#DejaVuSans-30" x="190.869141"/>
      </g>
     </g>
    </g>
    <g id="xtick_19">
     <g id="line2d_63">
      <path d="M 297.6202 548.12 
L 297.6202 314.57 
" clip-path="url(#p7a72b68609)" style="fill: none; stroke: #b0b0b0; stroke-width: 0.8; stroke-linecap: square"/>
     </g>
     <g id="line2d_64">
      <g>
       <use xlink:href="#m74a24b37a6" x="297.6202" y="548.12" style="stroke: #000000; stroke-width: 0.8"/>
      </g>
     </g>
     <g id="text_21">
      <!-- 2550 -->
      <g transform="translate(284.8952 562.718437)scale(0.1 -0.1)">
       <use xlink:href="#DejaVuSans-32"/>
       <use xlink:href="#DejaVuSans-35" x="63.623047"/>
       <use xlink:href="#DejaVuSans-35" x="127.246094"/>
       <use xlink:href="#DejaVuSans-30" x="190.869141"/>
      </g>
     </g>
    </g>
    <g id="xtick_20">
     <g id="line2d_65">
      <path d="M 355.2926 548.12 
L 355.2926 314.57 
" clip-path="url(#p7a72b68609)" style="fill: none; stroke: #b0b0b0; stroke-width: 0.8; stroke-linecap: square"/>
     </g>
     <g id="line2d_66">
      <g>
       <use xlink:href="#m74a24b37a6" x="355.2926" y="548.12" style="stroke: #000000; stroke-width: 0.8"/>
      </g>
     </g>
     <g id="text_22">
      <!-- 3150 -->
      <g transform="translate(342.5676 562.718437)scale(0.1 -0.1)">
       <use xlink:href="#DejaVuSans-33"/>
       <use xlink:href="#DejaVuSans-31" x="63.623047"/>
       <use xlink:href="#DejaVuSans-35" x="127.246094"/>
       <use xlink:href="#DejaVuSans-30" x="190.869141"/>
      </g>
     </g>
    </g>
    <g id="xtick_21">
     <g id="line2d_67">
      <path d="M 412.965 548.12 
L 412.965 314.57 
" clip-path="url(#p7a72b68609)" style="fill: none; stroke: #b0b0b0; stroke-width: 0.8; stroke-linecap: square"/>
     </g>
     <g id="line2d_68">
      <g>
       <use xlink:href="#m74a24b37a6" x="412.965" y="548.12" style="stroke: #000000; stroke-width: 0.8"/>
      </g>
     </g>
     <g id="text_23">
      <!-- 3750 -->
      <g transform="translate(400.24 562.718437)scale(0.1 -0.1)">
       <use xlink:href="#DejaVuSans-33"/>
       <use xlink:href="#DejaVuSans-37" x="63.623047"/>
       <use xlink:href="#DejaVuSans-35" x="127.246094"/>
       <use xlink:href="#DejaVuSans-30" x="190.869141"/>
      </g>
     </g>
    </g>
   </g>
   <g id="matplotlib.axis_6">
    <g id="ytick_13">
     <g id="line2d_69">
      <path d="M 52.5125 505.925106 
L 412.965 505.925106 
" clip-path="url(#p7a72b68609)" style="fill: none; stroke: #b0b0b0; stroke-width: 0.8; stroke-linecap: square"/>
     </g>
     <g id="line2d_70">
      <g>
       <use xlink:href="#medf12ac2dd" x="52.5125" y="505.925106" style="stroke: #000000; stroke-width: 0.8"/>
      </g>
     </g>
     <g id="text_24">
      <!-- 40 -->
      <g transform="translate(32.7875 509.724325)scale(0.1 -0.1)">
       <use xlink:href="#DejaVuSans-34"/>
       <use xlink:href="#DejaVuSans-30" x="63.623047"/>
      </g>
     </g>
    </g>
    <g id="ytick_14">
     <g id="line2d_71">
      <path d="M 52.5125 458.910486 
L 412.965 458.910486 
" clip-path="url(#p7a72b68609)" style="fill: none; stroke: #b0b0b0; stroke-width: 0.8; stroke-linecap: square"/>
     </g>
     <g id="line2d_72">
      <g>
       <use xlink:href="#medf12ac2dd" x="52.5125" y="458.910486" style="stroke: #000000; stroke-width: 0.8"/>
      </g>
     </g>
     <g id="text_25">
      <!-- 60 -->
      <g transform="translate(32.7875 462.709705)scale(0.1 -0.1)">
       <use xlink:href="#DejaVuSans-36"/>
       <use xlink:href="#DejaVuSans-30" x="63.623047"/>
      </g>
     </g>
    </g>
    <g id="ytick_15">
     <g id="line2d_73">
      <path d="M 52.5125 411.895866 
L 412.965 411.895866 
" clip-path="url(#p7a72b68609)" style="fill: none; stroke: #b0b0b0; stroke-width: 0.8; stroke-linecap: square"/>
     </g>
     <g id="line2d_74">
      <g>
       <use xlink:href="#medf12ac2dd" x="52.5125" y="411.895866" style="stroke: #000000; stroke-width: 0.8"/>
      </g>
     </g>
     <g id="text_26">
      <!-- 80 -->
      <g transform="translate(32.7875 415.695085)scale(0.1 -0.1)">
       <use xlink:href="#DejaVuSans-38"/>
       <use xlink:href="#DejaVuSans-30" x="63.623047"/>
      </g>
     </g>
    </g>
    <g id="ytick_16">
     <g id="line2d_75">
      <path d="M 52.5125 364.881246 
L 412.965 364.881246 
" clip-path="url(#p7a72b68609)" style="fill: none; stroke: #b0b0b0; stroke-width: 0.8; stroke-linecap: square"/>
     </g>
     <g id="line2d_76">
      <g>
       <use xlink:href="#medf12ac2dd" x="52.5125" y="364.881246" style="stroke: #000000; stroke-width: 0.8"/>
      </g>
     </g>
     <g id="text_27">
      <!-- 100 -->
      <g transform="translate(26.425 368.680465)scale(0.1 -0.1)">
       <use xlink:href="#DejaVuSans-31"/>
       <use xlink:href="#DejaVuSans-30" x="63.623047"/>
       <use xlink:href="#DejaVuSans-30" x="127.246094"/>
      </g>
     </g>
    </g>
    <g id="ytick_17">
     <g id="line2d_77">
      <path d="M 52.5125 317.866626 
L 412.965 317.866626 
" clip-path="url(#p7a72b68609)" style="fill: none; stroke: #b0b0b0; stroke-width: 0.8; stroke-linecap: square"/>
     </g>
     <g id="line2d_78">
      <g>
       <use xlink:href="#medf12ac2dd" x="52.5125" y="317.866626" style="stroke: #000000; stroke-width: 0.8"/>
      </g>
     </g>
     <g id="text_28">
      <!-- 120 -->
      <g transform="translate(26.425 321.665845)scale(0.1 -0.1)">
       <use xlink:href="#DejaVuSans-31"/>
       <use xlink:href="#DejaVuSans-32" x="63.623047"/>
       <use xlink:href="#DejaVuSans-30" x="127.246094"/>
      </g>
     </g>
    </g>
    <g id="text_29">
     <!-- $[s]$ -->
     <g transform="translate(20.345313 437.895)rotate(-90)scale(0.1 -0.1)">
      <defs>
       <path id="DejaVuSans-Oblique-73" d="M 3200 3397 
L 3091 2853 
Q 2863 2978 2609 3040 
Q 2356 3103 2088 3103 
Q 1634 3103 1373 2948 
Q 1113 2794 1113 2528 
Q 1113 2219 1719 2053 
Q 1766 2041 1788 2034 
L 1972 1978 
Q 2547 1819 2739 1644 
Q 2931 1469 2931 1166 
Q 2931 609 2489 259 
Q 2047 -91 1331 -91 
Q 1053 -91 747 -37 
Q 441 16 72 128 
L 184 722 
Q 500 559 806 475 
Q 1113 391 1394 391 
Q 1816 391 2080 572 
Q 2344 753 2344 1031 
Q 2344 1331 1650 1516 
L 1591 1531 
L 1394 1581 
Q 956 1697 753 1886 
Q 550 2075 550 2369 
Q 550 2928 970 3256 
Q 1391 3584 2113 3584 
Q 2397 3584 2667 3537 
Q 2938 3491 3200 3397 
z
" transform="scale(0.015625)"/>
      </defs>
      <use xlink:href="#DejaVuSans-5b" transform="translate(0 0.015625)"/>
      <use xlink:href="#DejaVuSans-Oblique-73" transform="translate(39.013672 0.015625)"/>
      <use xlink:href="#DejaVuSans-5d" transform="translate(91.113281 0.015625)"/>
     </g>
    </g>
   </g>
   <g id="line2d_79">
    <path d="M 52.5125 537.504091 
L 52.5125 537.504091 
L 66.9306 537.504091 
L 66.9306 489.360786 
L 81.3487 489.360786 
L 81.3487 439.200312 
L 95.7668 439.200312 
L 95.7668 450.566273 
L 110.1849 450.566273 
L 110.1849 446.237131 
L 124.603 446.237131 
L 124.603 455.846619 
L 139.0211 455.846619 
L 139.0211 492.678526 
L 153.4392 492.678526 
L 153.4392 473.16459 
L 167.8573 473.16459 
L 167.8573 385.932842 
L 182.2754 385.932842 
L 182.2754 369.534189 
L 196.6935 369.534189 
L 196.6935 377.885608 
L 211.1116 377.885608 
L 211.1116 426.756 
L 225.5297 426.756 
L 225.5297 453.777759 
L 239.9478 453.777759 
L 239.9478 450.366848 
L 254.3659 450.366848 
L 254.3659 456.543434 
L 268.784 456.543434 
L 268.784 350.951896 
L 283.2021 350.951896 
L 283.2021 336.498308 
L 297.6202 336.498308 
L 297.6202 338.702319 
L 312.0383 338.702319 
L 312.0383 403.594918 
L 326.4564 403.594918 
L 326.4564 378.370869 
L 340.8745 378.370869 
L 340.8745 325.185909 
L 355.2926 325.185909 
L 355.2926 419.494618 
L 369.7107 419.494618 
L 369.7107 361.460803 
L 384.1288 361.460803 
L 384.1288 418.022059 
L 398.5469 418.022059 
L 398.5469 366.973432 
L 412.965 366.973432 
" clip-path="url(#p7a72b68609)" style="fill: none; stroke: #1f77b4; stroke-width: 1.2; stroke-linecap: square"/>
   </g>
   <g id="patch_13">
    <path d="M 52.5125 548.12 
L 52.5125 314.57 
" style="fill: none; stroke: #000000; stroke-width: 0.8; stroke-linejoin: miter; stroke-linecap: square"/>
   </g>
   <g id="patch_14">
    <path d="M 412.965 548.12 
L 412.965 314.57 
" style="fill: none; stroke: #000000; stroke-width: 0.8; stroke-linejoin: miter; stroke-linecap: square"/>
   </g>
   <g id="patch_15">
    <path d="M 52.5125 548.12 
L 412.965 548.12 
" style="fill: none; stroke: #000000; stroke-width: 0.8; stroke-linejoin: miter; stroke-linecap: square"/>
   </g>
   <g id="patch_16">
    <path d="M 52.5125 314.57 
L 412.965 314.57 
" style="fill: none; stroke: #000000; stroke-width: 0.8; stroke-linejoin: miter; stroke-linecap: square"/>
   </g>
   <g id="text_30">
    <!-- Average travel time -->
    <g transform="translate(173.324688 308.57)scale(0.12 -0.12)">
     <defs>
      <path id="DejaVuSans-6d" d="M 3328 2828 
Q 3544 3216 3844 3400 
Q 4144 3584 4550 3584 
Q 5097 3584 5394 3201 
Q 5691 2819 5691 2113 
L 5691 0 
L 5113 0 
L 5113 2094 
Q 5113 2597 4934 2840 
Q 4756 3084 4391 3084 
Q 3944 3084 3684 2787 
Q 3425 2491 3425 1978 
L 3425 0 
L 2847 0 
L 2847 2094 
Q 2847 2600 2669 2842 
Q 2491 3084 2119 3084 
Q 1678 3084 1418 2786 
Q 1159 2488 1159 1978 
L 1159 0 
L 581 0 
L 581 3500 
L 1159 3500 
L 1159 2956 
Q 1356 3278 1631 3431 
Q 1906 3584 2284 3584 
Q 2666 3584 2933 3390 
Q 3200 3197 3328 2828 
z
" transform="scale(0.015625)"/>
     </defs>
     <use xlink:href="#DejaVuSans-41"/>
     <use xlink:href="#DejaVuSans-76" x="62.533203"/>
     <use xlink:href="#DejaVuSans-65" x="121.712891"/>
     <use xlink:href="#DejaVuSans-72" x="183.236328"/>
     <use xlink:href="#DejaVuSans-61" x="224.349609"/>
     <use xlink:href="#DejaVuSans-67" x="285.628906"/>
     <use xlink:href="#DejaVuSans-65" x="349.105469"/>
     <use xlink:href="#DejaVuSans-20" x="410.628906"/>
     <use xlink:href="#DejaVuSans-74" x="442.416016"/>
     <use xlink:href="#DejaVuSans-72" x="481.625"/>
     <use xlink:href="#DejaVuSans-61" x="522.738281"/>
     <use xlink:href="#DejaVuSans-76" x="584.017578"/>
     <use xlink:href="#DejaVuSans-65" x="643.197266"/>
     <use xlink:href="#DejaVuSans-6c" x="704.720703"/>
     <use xlink:href="#DejaVuSans-20" x="732.503906"/>
     <use xlink:href="#DejaVuSans-74" x="764.291016"/>
     <use xlink:href="#DejaVuSans-69" x="803.5"/>
     <use xlink:href="#DejaVuSans-6d" x="831.283203"/>
     <use xlink:href="#DejaVuSans-65" x="928.695312"/>
    </g>
   </g>
  </g>
  <g id="axes_4">
   <g id="patch_17">
    <path d="M 480.1475 548.12 
L 840.6 548.12 
L 840.6 314.57 
L 480.1475 314.57 
z
" style="fill: #ffffff"/>
   </g>
   <g id="matplotlib.axis_7">
    <g id="xtick_22">
     <g id="line2d_80">
      <path d="M 494.5656 548.12 
L 494.5656 314.57 
" clip-path="url(#pcd28efdc70)" style="fill: none; stroke: #b0b0b0; stroke-width: 0.8; stroke-linecap: square"/>
     </g>
     <g id="line2d_81">
      <g>
       <use xlink:href="#m74a24b37a6" x="494.5656" y="548.12" style="stroke: #000000; stroke-width: 0.8"/>
      </g>
     </g>
     <g id="text_31">
      <!-- 150 -->
      <g transform="translate(485.02185 562.718437)scale(0.1 -0.1)">
       <use xlink:href="#DejaVuSans-31"/>
       <use xlink:href="#DejaVuSans-35" x="63.623047"/>
       <use xlink:href="#DejaVuSans-30" x="127.246094"/>
      </g>
     </g>
    </g>
    <g id="xtick_23">
     <g id="line2d_82">
      <path d="M 552.238 548.12 
L 552.238 314.57 
" clip-path="url(#pcd28efdc70)" style="fill: none; stroke: #b0b0b0; stroke-width: 0.8; stroke-linecap: square"/>
     </g>
     <g id="line2d_83">
      <g>
       <use xlink:href="#m74a24b37a6" x="552.238" y="548.12" style="stroke: #000000; stroke-width: 0.8"/>
      </g>
     </g>
     <g id="text_32">
      <!-- 750 -->
      <g transform="translate(542.69425 562.718437)scale(0.1 -0.1)">
       <use xlink:href="#DejaVuSans-37"/>
       <use xlink:href="#DejaVuSans-35" x="63.623047"/>
       <use xlink:href="#DejaVuSans-30" x="127.246094"/>
      </g>
     </g>
    </g>
    <g id="xtick_24">
     <g id="line2d_84">
      <path d="M 609.9104 548.12 
L 609.9104 314.57 
" clip-path="url(#pcd28efdc70)" style="fill: none; stroke: #b0b0b0; stroke-width: 0.8; stroke-linecap: square"/>
     </g>
     <g id="line2d_85">
      <g>
       <use xlink:href="#m74a24b37a6" x="609.9104" y="548.12" style="stroke: #000000; stroke-width: 0.8"/>
      </g>
     </g>
     <g id="text_33">
      <!-- 1350 -->
      <g transform="translate(597.1854 562.718437)scale(0.1 -0.1)">
       <use xlink:href="#DejaVuSans-31"/>
       <use xlink:href="#DejaVuSans-33" x="63.623047"/>
       <use xlink:href="#DejaVuSans-35" x="127.246094"/>
       <use xlink:href="#DejaVuSans-30" x="190.869141"/>
      </g>
     </g>
    </g>
    <g id="xtick_25">
     <g id="line2d_86">
      <path d="M 667.5828 548.12 
L 667.5828 314.57 
" clip-path="url(#pcd28efdc70)" style="fill: none; stroke: #b0b0b0; stroke-width: 0.8; stroke-linecap: square"/>
     </g>
     <g id="line2d_87">
      <g>
       <use xlink:href="#m74a24b37a6" x="667.5828" y="548.12" style="stroke: #000000; stroke-width: 0.8"/>
      </g>
     </g>
     <g id="text_34">
      <!-- 1950 -->
      <g transform="translate(654.8578 562.718437)scale(0.1 -0.1)">
       <use xlink:href="#DejaVuSans-31"/>
       <use xlink:href="#DejaVuSans-39" x="63.623047"/>
       <use xlink:href="#DejaVuSans-35" x="127.246094"/>
       <use xlink:href="#DejaVuSans-30" x="190.869141"/>
      </g>
     </g>
    </g>
    <g id="xtick_26">
     <g id="line2d_88">
      <path d="M 725.2552 548.12 
L 725.2552 314.57 
" clip-path="url(#pcd28efdc70)" style="fill: none; stroke: #b0b0b0; stroke-width: 0.8; stroke-linecap: square"/>
     </g>
     <g id="line2d_89">
      <g>
       <use xlink:href="#m74a24b37a6" x="725.2552" y="548.12" style="stroke: #000000; stroke-width: 0.8"/>
      </g>
     </g>
     <g id="text_35">
      <!-- 2550 -->
      <g transform="translate(712.5302 562.718437)scale(0.1 -0.1)">
       <use xlink:href="#DejaVuSans-32"/>
       <use xlink:href="#DejaVuSans-35" x="63.623047"/>
       <use xlink:href="#DejaVuSans-35" x="127.246094"/>
       <use xlink:href="#DejaVuSans-30" x="190.869141"/>
      </g>
     </g>
    </g>
    <g id="xtick_27">
     <g id="line2d_90">
      <path d="M 782.9276 548.12 
L 782.9276 314.57 
" clip-path="url(#pcd28efdc70)" style="fill: none; stroke: #b0b0b0; stroke-width: 0.8; stroke-linecap: square"/>
     </g>
     <g id="line2d_91">
      <g>
       <use xlink:href="#m74a24b37a6" x="782.9276" y="548.12" style="stroke: #000000; stroke-width: 0.8"/>
      </g>
     </g>
     <g id="text_36">
      <!-- 3150 -->
      <g transform="translate(770.2026 562.718437)scale(0.1 -0.1)">
       <use xlink:href="#DejaVuSans-33"/>
       <use xlink:href="#DejaVuSans-31" x="63.623047"/>
       <use xlink:href="#DejaVuSans-35" x="127.246094"/>
       <use xlink:href="#DejaVuSans-30" x="190.869141"/>
      </g>
     </g>
    </g>
    <g id="xtick_28">
     <g id="line2d_92">
      <path d="M 840.6 548.12 
L 840.6 314.57 
" clip-path="url(#pcd28efdc70)" style="fill: none; stroke: #b0b0b0; stroke-width: 0.8; stroke-linecap: square"/>
     </g>
     <g id="line2d_93">
      <g>
       <use xlink:href="#m74a24b37a6" x="840.6" y="548.12" style="stroke: #000000; stroke-width: 0.8"/>
      </g>
     </g>
     <g id="text_37">
      <!-- 3750 -->
      <g transform="translate(827.875 562.718437)scale(0.1 -0.1)">
       <use xlink:href="#DejaVuSans-33"/>
       <use xlink:href="#DejaVuSans-37" x="63.623047"/>
       <use xlink:href="#DejaVuSans-35" x="127.246094"/>
       <use xlink:href="#DejaVuSans-30" x="190.869141"/>
      </g>
     </g>
    </g>
   </g>
   <g id="matplotlib.axis_8">
    <g id="ytick_18">
     <g id="line2d_94">
      <path d="M 480.1475 548.12 
L 840.6 548.12 
" clip-path="url(#pcd28efdc70)" style="fill: none; stroke: #b0b0b0; stroke-width: 0.8; stroke-linecap: square"/>
     </g>
     <g id="line2d_95">
      <g>
       <use xlink:href="#medf12ac2dd" x="480.1475" y="548.12" style="stroke: #000000; stroke-width: 0.8"/>
      </g>
     </g>
     <g id="text_38">
      <!-- 35 -->
      <g transform="translate(452.042812 551.919219)scale(0.1 -0.1)">
       <use xlink:href="#DejaVuSans-2212"/>
       <use xlink:href="#DejaVuSans-33" x="83.789062"/>
       <use xlink:href="#DejaVuSans-35" x="147.412109"/>
      </g>
     </g>
    </g>
    <g id="ytick_19">
     <g id="line2d_96">
      <path d="M 480.1475 514.755714 
L 840.6 514.755714 
" clip-path="url(#pcd28efdc70)" style="fill: none; stroke: #b0b0b0; stroke-width: 0.8; stroke-linecap: square"/>
     </g>
     <g id="line2d_97">
      <g>
       <use xlink:href="#medf12ac2dd" x="480.1475" y="514.755714" style="stroke: #000000; stroke-width: 0.8"/>
      </g>
     </g>
     <g id="text_39">
      <!-- 30 -->
      <g transform="translate(452.042812 518.554933)scale(0.1 -0.1)">
       <use xlink:href="#DejaVuSans-2212"/>
       <use xlink:href="#DejaVuSans-33" x="83.789062"/>
       <use xlink:href="#DejaVuSans-30" x="147.412109"/>
      </g>
     </g>
    </g>
    <g id="ytick_20">
     <g id="line2d_98">
      <path d="M 480.1475 481.391429 
L 840.6 481.391429 
" clip-path="url(#pcd28efdc70)" style="fill: none; stroke: #b0b0b0; stroke-width: 0.8; stroke-linecap: square"/>
     </g>
     <g id="line2d_99">
      <g>
       <use xlink:href="#medf12ac2dd" x="480.1475" y="481.391429" style="stroke: #000000; stroke-width: 0.8"/>
      </g>
     </g>
     <g id="text_40">
      <!-- 25 -->
      <g transform="translate(452.042812 485.190647)scale(0.1 -0.1)">
       <use xlink:href="#DejaVuSans-2212"/>
       <use xlink:href="#DejaVuSans-32" x="83.789062"/>
       <use xlink:href="#DejaVuSans-35" x="147.412109"/>
      </g>
     </g>
    </g>
    <g id="ytick_21">
     <g id="line2d_100">
      <path d="M 480.1475 448.027143 
L 840.6 448.027143 
" clip-path="url(#pcd28efdc70)" style="fill: none; stroke: #b0b0b0; stroke-width: 0.8; stroke-linecap: square"/>
     </g>
     <g id="line2d_101">
      <g>
       <use xlink:href="#medf12ac2dd" x="480.1475" y="448.027143" style="stroke: #000000; stroke-width: 0.8"/>
      </g>
     </g>
     <g id="text_41">
      <!-- 20 -->
      <g transform="translate(452.042812 451.826362)scale(0.1 -0.1)">
       <use xlink:href="#DejaVuSans-2212"/>
       <use xlink:href="#DejaVuSans-32" x="83.789062"/>
       <use xlink:href="#DejaVuSans-30" x="147.412109"/>
      </g>
     </g>
    </g>
    <g id="ytick_22">
     <g id="line2d_102">
      <path d="M 480.1475 414.662857 
L 840.6 414.662857 
" clip-path="url(#pcd28efdc70)" style="fill: none; stroke: #b0b0b0; stroke-width: 0.8; stroke-linecap: square"/>
     </g>
     <g id="line2d_103">
      <g>
       <use xlink:href="#medf12ac2dd" x="480.1475" y="414.662857" style="stroke: #000000; stroke-width: 0.8"/>
      </g>
     </g>
     <g id="text_42">
      <!-- 15 -->
      <g transform="translate(452.042812 418.462076)scale(0.1 -0.1)">
       <use xlink:href="#DejaVuSans-2212"/>
       <use xlink:href="#DejaVuSans-31" x="83.789062"/>
       <use xlink:href="#DejaVuSans-35" x="147.412109"/>
      </g>
     </g>
    </g>
    <g id="ytick_23">
     <g id="line2d_104">
      <path d="M 480.1475 381.298571 
L 840.6 381.298571 
" clip-path="url(#pcd28efdc70)" style="fill: none; stroke: #b0b0b0; stroke-width: 0.8; stroke-linecap: square"/>
     </g>
     <g id="line2d_105">
      <g>
       <use xlink:href="#medf12ac2dd" x="480.1475" y="381.298571" style="stroke: #000000; stroke-width: 0.8"/>
      </g>
     </g>
     <g id="text_43">
      <!-- 10 -->
      <g transform="translate(452.042812 385.09779)scale(0.1 -0.1)">
       <use xlink:href="#DejaVuSans-2212"/>
       <use xlink:href="#DejaVuSans-31" x="83.789062"/>
       <use xlink:href="#DejaVuSans-30" x="147.412109"/>
      </g>
     </g>
    </g>
    <g id="ytick_24">
     <g id="line2d_106">
      <path d="M 480.1475 347.934286 
L 840.6 347.934286 
" clip-path="url(#pcd28efdc70)" style="fill: none; stroke: #b0b0b0; stroke-width: 0.8; stroke-linecap: square"/>
     </g>
     <g id="line2d_107">
      <g>
       <use xlink:href="#medf12ac2dd" x="480.1475" y="347.934286" style="stroke: #000000; stroke-width: 0.8"/>
      </g>
     </g>
     <g id="text_44">
      <!-- 5 -->
      <g transform="translate(458.405312 351.733504)scale(0.1 -0.1)">
       <use xlink:href="#DejaVuSans-2212"/>
       <use xlink:href="#DejaVuSans-35" x="83.789062"/>
      </g>
     </g>
    </g>
    <g id="ytick_25">
     <g id="line2d_108">
      <path d="M 480.1475 314.57 
L 840.6 314.57 
" clip-path="url(#pcd28efdc70)" style="fill: none; stroke: #b0b0b0; stroke-width: 0.8; stroke-linecap: square"/>
     </g>
     <g id="line2d_109">
      <g>
       <use xlink:href="#medf12ac2dd" x="480.1475" y="314.57" style="stroke: #000000; stroke-width: 0.8"/>
      </g>
     </g>
     <g id="text_45">
      <!-- 0 -->
      <g transform="translate(466.785 318.369219)scale(0.1 -0.1)">
       <use xlink:href="#DejaVuSans-30"/>
      </g>
     </g>
    </g>
    <g id="text_46">
     <!-- $[veh]$ -->
     <g transform="translate(445.963125 444.495)rotate(-90)scale(0.1 -0.1)">
      <use xlink:href="#DejaVuSans-5b" transform="translate(0 0.015625)"/>
      <use xlink:href="#DejaVuSans-Oblique-76" transform="translate(39.013672 0.015625)"/>
      <use xlink:href="#DejaVuSans-Oblique-65" transform="translate(98.193359 0.015625)"/>
      <use xlink:href="#DejaVuSans-Oblique-68" transform="translate(159.716797 0.015625)"/>
      <use xlink:href="#DejaVuSans-5d" transform="translate(223.095703 0.015625)"/>
     </g>
    </g>
   </g>
   <g id="line2d_110">
    <path d="M 494.5656 407.99 
L 494.5656 394.644286 
L 495.526807 394.644286 
L 495.526807 387.971429 
L 496.488013 387.971429 
L 496.488013 394.644286 
L 497.44922 394.644286 
L 497.44922 367.952857 
L 498.410427 367.952857 
L 498.410427 374.625714 
L 499.371633 374.625714 
L 499.371633 387.971429 
L 501.294047 387.971429 
L 501.294047 421.335714 
L 502.255253 421.335714 
L 502.255253 401.317143 
L 503.21646 401.317143 
L 503.21646 428.008571 
L 504.177667 428.008571 
L 504.177667 387.971429 
L 506.10008 387.971429 
L 506.10008 414.662857 
L 507.061287 414.662857 
L 507.061287 401.317143 
L 508.022493 401.317143 
L 508.022493 428.008571 
L 508.9837 428.008571 
L 508.9837 421.335714 
L 509.944907 421.335714 
L 509.944907 434.681429 
L 510.906113 434.681429 
L 510.906113 448.027143 
L 511.86732 448.027143 
L 511.86732 434.681429 
L 512.828527 434.681429 
L 512.828527 428.008571 
L 513.789733 428.008571 
L 513.789733 441.354286 
L 515.712147 441.354286 
L 515.712147 448.027143 
L 516.673353 448.027143 
L 516.673353 441.354286 
L 517.63456 441.354286 
L 517.63456 421.335714 
L 518.595767 421.335714 
L 518.595767 448.027143 
L 519.556973 448.027143 
L 519.556973 468.045714 
L 520.51818 468.045714 
L 520.51818 501.41 
L 521.479387 501.41 
L 521.479387 494.737143 
L 522.440593 494.737143 
L 522.440593 474.718571 
L 523.4018 474.718571 
L 523.4018 468.045714 
L 524.363007 468.045714 
L 524.363007 488.064286 
L 525.324213 488.064286 
L 525.324213 468.045714 
L 526.28542 468.045714 
L 526.28542 448.027143 
L 527.246627 448.027143 
L 527.246627 468.045714 
L 528.207833 468.045714 
L 528.207833 421.335714 
L 529.16904 421.335714 
L 529.16904 434.681429 
L 530.130247 434.681429 
L 530.130247 441.354286 
L 531.091453 441.354286 
L 531.091453 461.372857 
L 532.05266 461.372857 
L 532.05266 428.008571 
L 533.013867 428.008571 
L 533.013867 421.335714 
L 534.93628 421.335714 
L 534.93628 414.662857 
L 535.897487 414.662857 
L 535.897487 421.335714 
L 536.858693 421.335714 
L 536.858693 441.354286 
L 537.8199 441.354286 
L 537.8199 414.662857 
L 538.781107 414.662857 
L 538.781107 434.681429 
L 539.742313 434.681429 
L 539.742313 448.027143 
L 541.664727 448.027143 
L 541.664727 401.317143 
L 543.58714 401.317143 
L 543.58714 394.644286 
L 544.548347 394.644286 
L 544.548347 401.317143 
L 545.509553 401.317143 
L 545.509553 374.625714 
L 546.47076 374.625714 
L 546.47076 367.952857 
L 547.431967 367.952857 
L 547.431967 407.99 
L 548.393173 407.99 
L 548.393173 381.298571 
L 549.35438 381.298571 
L 549.35438 394.644286 
L 550.315587 394.644286 
L 550.315587 407.99 
L 551.276793 407.99 
L 551.276793 428.008571 
L 552.238 428.008571 
L 552.238 414.662857 
L 553.199207 414.662857 
L 553.199207 428.008571 
L 554.160413 428.008571 
L 554.160413 414.662857 
L 555.12162 414.662857 
L 555.12162 441.354286 
L 557.044033 441.354286 
L 557.044033 428.008571 
L 558.00524 428.008571 
L 558.00524 414.662857 
L 558.966447 414.662857 
L 558.966447 428.008571 
L 559.927653 428.008571 
L 559.927653 414.662857 
L 560.88886 414.662857 
L 560.88886 428.008571 
L 561.850067 428.008571 
L 561.850067 407.99 
L 562.811273 407.99 
L 562.811273 401.317143 
L 563.77248 401.317143 
L 563.77248 374.625714 
L 565.694893 374.625714 
L 565.694893 387.971429 
L 567.617307 387.971429 
L 567.617307 401.317143 
L 568.578513 401.317143 
L 568.578513 407.99 
L 569.53972 407.99 
L 569.53972 421.335714 
L 570.500927 421.335714 
L 570.500927 387.971429 
L 571.462133 387.971429 
L 571.462133 401.317143 
L 572.42334 401.317143 
L 572.42334 374.625714 
L 574.345753 374.625714 
L 574.345753 394.644286 
L 575.30696 394.644286 
L 575.30696 414.662857 
L 576.268167 414.662857 
L 576.268167 381.298571 
L 577.229373 381.298571 
L 577.229373 387.971429 
L 578.19058 387.971429 
L 578.19058 414.662857 
L 579.151787 414.662857 
L 579.151787 401.317143 
L 580.112993 401.317143 
L 580.112993 434.681429 
L 581.0742 434.681429 
L 581.0742 474.718571 
L 582.035407 474.718571 
L 582.035407 428.008571 
L 582.996613 428.008571 
L 582.996613 421.335714 
L 583.95782 421.335714 
L 583.95782 387.971429 
L 584.919027 387.971429 
L 584.919027 414.662857 
L 585.880233 414.662857 
L 585.880233 441.354286 
L 586.84144 441.354286 
L 586.84144 421.335714 
L 587.802647 421.335714 
L 587.802647 414.662857 
L 588.763853 414.662857 
L 588.763853 421.335714 
L 589.72506 421.335714 
L 589.72506 448.027143 
L 592.60868 448.027143 
L 592.60868 407.99 
L 593.569887 407.99 
L 593.569887 421.335714 
L 594.531093 421.335714 
L 594.531093 434.681429 
L 595.4923 434.681429 
L 595.4923 474.718571 
L 596.453507 474.718571 
L 596.453507 514.755714 
L 597.414713 514.755714 
L 597.414713 468.045714 
L 598.37592 468.045714 
L 598.37592 474.718571 
L 599.337127 474.718571 
L 599.337127 488.064286 
L 600.298333 488.064286 
L 600.298333 514.755714 
L 601.25954 514.755714 
L 601.25954 488.064286 
L 602.220747 488.064286 
L 602.220747 468.045714 
L 603.181953 468.045714 
L 603.181953 488.064286 
L 604.14316 488.064286 
L 604.14316 468.045714 
L 605.104367 468.045714 
L 605.104367 441.354286 
L 606.065573 441.354286 
L 606.065573 468.045714 
L 607.02678 468.045714 
L 607.02678 434.681429 
L 607.987987 434.681429 
L 607.987987 414.662857 
L 608.949193 414.662857 
L 608.949193 428.008571 
L 609.9104 428.008571 
L 609.9104 461.372857 
L 611.832813 461.372857 
L 611.832813 441.354286 
L 612.79402 441.354286 
L 612.79402 454.7 
L 613.755227 454.7 
L 613.755227 501.41 
L 614.716433 501.41 
L 614.716433 508.082857 
L 615.67764 508.082857 
L 615.67764 521.428571 
L 616.638847 521.428571 
L 616.638847 501.41 
L 617.600053 501.41 
L 617.600053 488.064286 
L 618.56126 488.064286 
L 618.56126 468.045714 
L 621.44488 468.045714 
L 621.44488 448.027143 
L 623.367293 448.027143 
L 623.367293 454.7 
L 624.3285 454.7 
L 624.3285 441.354286 
L 625.289707 441.354286 
L 625.289707 448.027143 
L 626.250913 448.027143 
L 626.250913 441.354286 
L 627.21212 441.354286 
L 627.21212 468.045714 
L 628.173327 468.045714 
L 628.173327 448.027143 
L 629.134533 448.027143 
L 629.134533 441.354286 
L 630.09574 441.354286 
L 630.09574 434.681429 
L 632.018153 434.681429 
L 632.018153 454.7 
L 632.97936 454.7 
L 632.97936 428.008571 
L 633.940567 428.008571 
L 633.940567 407.99 
L 634.901773 407.99 
L 634.901773 421.335714 
L 636.824187 421.335714 
L 636.824187 407.99 
L 637.785393 407.99 
L 637.785393 434.681429 
L 638.7466 434.681429 
L 638.7466 401.317143 
L 639.707807 401.317143 
L 639.707807 381.298571 
L 640.669013 381.298571 
L 640.669013 387.971429 
L 641.63022 387.971429 
L 641.63022 414.662857 
L 642.591427 414.662857 
L 642.591427 448.027143 
L 643.552633 448.027143 
L 643.552633 414.662857 
L 644.51384 414.662857 
L 644.51384 387.971429 
L 645.475047 387.971429 
L 645.475047 401.317143 
L 646.436253 401.317143 
L 646.436253 394.644286 
L 647.39746 394.644286 
L 647.39746 387.971429 
L 648.358667 387.971429 
L 648.358667 394.644286 
L 649.319873 394.644286 
L 649.319873 421.335714 
L 650.28108 421.335714 
L 650.28108 401.317143 
L 651.242287 401.317143 
L 651.242287 421.335714 
L 652.203493 421.335714 
L 652.203493 387.971429 
L 653.1647 387.971429 
L 653.1647 381.298571 
L 654.125907 381.298571 
L 654.125907 394.644286 
L 655.087113 394.644286 
L 655.087113 421.335714 
L 656.04832 421.335714 
L 656.04832 414.662857 
L 657.009527 414.662857 
L 657.009527 434.681429 
L 657.970733 434.681429 
L 657.970733 394.644286 
L 659.893147 394.644286 
L 659.893147 401.317143 
L 660.854353 401.317143 
L 660.854353 448.027143 
L 661.81556 448.027143 
L 661.81556 414.662857 
L 662.776767 414.662857 
L 662.776767 407.99 
L 663.737973 407.99 
L 663.737973 394.644286 
L 664.69918 394.644286 
L 664.69918 381.298571 
L 665.660387 381.298571 
L 665.660387 387.971429 
L 666.621593 387.971429 
L 666.621593 414.662857 
L 667.5828 414.662857 
L 667.5828 394.644286 
L 668.544007 394.644286 
L 668.544007 414.662857 
L 669.505213 414.662857 
L 669.505213 421.335714 
L 670.46642 421.335714 
L 670.46642 434.681429 
L 671.427627 434.681429 
L 671.427627 448.027143 
L 672.388833 448.027143 
L 672.388833 414.662857 
L 673.35004 414.662857 
L 673.35004 394.644286 
L 674.311247 394.644286 
L 674.311247 381.298571 
L 675.272453 381.298571 
L 675.272453 401.317143 
L 676.23366 401.317143 
L 676.23366 394.644286 
L 677.194867 394.644286 
L 677.194867 381.298571 
L 678.156073 381.298571 
L 678.156073 401.317143 
L 679.11728 401.317143 
L 679.11728 414.662857 
L 680.078487 414.662857 
L 680.078487 421.335714 
L 681.039693 421.335714 
L 681.039693 387.971429 
L 682.0009 387.971429 
L 682.0009 414.662857 
L 683.923313 414.662857 
L 683.923313 454.7 
L 684.88452 454.7 
L 684.88452 461.372857 
L 685.845727 461.372857 
L 685.845727 448.027143 
L 686.806933 448.027143 
L 686.806933 454.7 
L 687.76814 454.7 
L 687.76814 508.082857 
L 688.729347 508.082857 
L 688.729347 501.41 
L 689.690553 501.41 
L 689.690553 461.372857 
L 690.65176 461.372857 
L 690.65176 468.045714 
L 691.612967 468.045714 
L 691.612967 488.064286 
L 692.574173 488.064286 
L 692.574173 521.428571 
L 693.53538 521.428571 
L 693.53538 528.101429 
L 695.457793 528.101429 
L 695.457793 514.755714 
L 696.419 514.755714 
L 696.419 528.101429 
L 697.380207 528.101429 
L 697.380207 541.447143 
L 698.341413 541.447143 
L 698.341413 534.774286 
L 700.263827 534.774286 
L 700.263827 508.082857 
L 701.225033 508.082857 
L 701.225033 528.101429 
L 702.18624 528.101429 
L 702.18624 508.082857 
L 703.147447 508.082857 
L 703.147447 541.447143 
L 704.108653 541.447143 
L 704.108653 514.755714 
L 705.06986 514.755714 
L 705.06986 521.428571 
L 706.031067 521.428571 
L 706.031067 548.12 
L 706.992273 548.12 
L 706.992273 508.082857 
L 707.95348 508.082857 
L 707.95348 521.428571 
L 708.914687 521.428571 
L 708.914687 541.447143 
L 709.875893 541.447143 
L 709.875893 554.792857 
L 710.8371 554.792857 
L 710.8371 514.755714 
L 712.759513 514.755714 
L 712.759513 494.737143 
L 713.72072 494.737143 
L 713.72072 514.755714 
L 714.681927 514.755714 
L 714.681927 501.41 
L 715.643133 501.41 
L 715.643133 541.447143 
L 716.60434 541.447143 
L 716.60434 501.41 
L 717.565547 501.41 
L 717.565547 508.082857 
L 718.526753 508.082857 
L 718.526753 528.101429 
L 719.48796 528.101429 
L 719.48796 488.064286 
L 720.449167 488.064286 
L 720.449167 474.718571 
L 721.410373 474.718571 
L 721.410373 468.045714 
L 722.37158 468.045714 
L 722.37158 434.681429 
L 723.332787 434.681429 
L 723.332787 421.335714 
L 724.293993 421.335714 
L 724.293993 441.354286 
L 726.216407 441.354286 
L 726.216407 428.008571 
L 727.177613 428.008571 
L 727.177613 414.662857 
L 728.13882 414.662857 
L 728.13882 428.008571 
L 729.100027 428.008571 
L 729.100027 448.027143 
L 730.061233 448.027143 
L 730.061233 468.045714 
L 731.02244 468.045714 
L 731.02244 454.7 
L 733.90606 454.7 
L 733.90606 474.718571 
L 735.828473 474.718571 
L 735.828473 461.372857 
L 736.78968 461.372857 
L 736.78968 474.718571 
L 737.750887 474.718571 
L 737.750887 448.027143 
L 738.712093 448.027143 
L 738.712093 434.681429 
L 739.6733 434.681429 
L 739.6733 428.008571 
L 740.634507 428.008571 
L 740.634507 414.662857 
L 742.55692 414.662857 
L 742.55692 434.681429 
L 743.518127 434.681429 
L 743.518127 428.008571 
L 744.479333 428.008571 
L 744.479333 468.045714 
L 745.44054 468.045714 
L 745.44054 448.027143 
L 748.32416 448.027143 
L 748.32416 454.7 
L 749.285367 454.7 
L 749.285367 461.372857 
L 752.168987 461.372857 
L 752.168987 474.718571 
L 753.130193 474.718571 
L 753.130193 454.7 
L 755.052607 454.7 
L 755.052607 461.372857 
L 756.013813 461.372857 
L 756.013813 454.7 
L 758.897433 454.7 
L 758.897433 441.354286 
L 759.85864 441.354286 
L 759.85864 488.064286 
L 760.819847 488.064286 
L 760.819847 501.41 
L 761.781053 501.41 
L 761.781053 521.428571 
L 762.74226 521.428571 
L 762.74226 514.755714 
L 765.62588 514.755714 
L 765.62588 521.428571 
L 766.587087 521.428571 
L 766.587087 508.082857 
L 768.5095 508.082857 
L 768.5095 501.41 
L 769.470707 501.41 
L 769.470707 481.391429 
L 770.431913 481.391429 
L 770.431913 461.372857 
L 771.39312 461.372857 
L 771.39312 441.354286 
L 772.354327 441.354286 
L 772.354327 448.027143 
L 774.27674 448.027143 
L 774.27674 421.335714 
L 775.237947 421.335714 
L 775.237947 461.372857 
L 776.199153 461.372857 
L 776.199153 474.718571 
L 777.16036 474.718571 
L 777.16036 461.372857 
L 779.082773 461.372857 
L 779.082773 468.045714 
L 780.04398 468.045714 
L 780.04398 461.372857 
L 781.005187 461.372857 
L 781.005187 434.681429 
L 781.966393 434.681429 
L 781.966393 421.335714 
L 782.9276 421.335714 
L 782.9276 441.354286 
L 783.888807 441.354286 
L 783.888807 468.045714 
L 784.850013 468.045714 
L 784.850013 428.008571 
L 785.81122 428.008571 
L 785.81122 454.7 
L 786.772427 454.7 
L 786.772427 474.718571 
L 787.733633 474.718571 
L 787.733633 508.082857 
L 788.69484 508.082857 
L 788.69484 494.737143 
L 789.656047 494.737143 
L 789.656047 474.718571 
L 790.617253 474.718571 
L 790.617253 481.391429 
L 791.57846 481.391429 
L 791.57846 474.718571 
L 792.539667 474.718571 
L 792.539667 461.372857 
L 793.500873 461.372857 
L 793.500873 474.718571 
L 794.46208 474.718571 
L 794.46208 481.391429 
L 795.423287 481.391429 
L 795.423287 474.718571 
L 796.384493 474.718571 
L 796.384493 468.045714 
L 797.3457 468.045714 
L 797.3457 481.391429 
L 798.306907 481.391429 
L 798.306907 448.027143 
L 800.22932 448.027143 
L 800.22932 474.718571 
L 801.190527 474.718571 
L 801.190527 448.027143 
L 802.151733 448.027143 
L 802.151733 441.354286 
L 803.11294 441.354286 
L 803.11294 428.008571 
L 804.074147 428.008571 
L 804.074147 434.681429 
L 805.035353 434.681429 
L 805.035353 428.008571 
L 805.99656 428.008571 
L 805.99656 381.298571 
L 806.957767 381.298571 
L 806.957767 421.335714 
L 807.918973 421.335714 
L 807.918973 428.008571 
L 809.841387 428.008571 
L 809.841387 421.335714 
L 810.802593 421.335714 
L 810.802593 407.99 
L 811.7638 407.99 
L 811.7638 421.335714 
L 812.725007 421.335714 
L 812.725007 448.027143 
L 813.686213 448.027143 
L 813.686213 421.335714 
L 814.64742 421.335714 
L 814.64742 401.317143 
L 816.569833 401.317143 
L 816.569833 407.99 
L 818.492247 407.99 
L 818.492247 434.681429 
L 819.453453 434.681429 
L 819.453453 421.335714 
L 820.41466 421.335714 
L 820.41466 428.008571 
L 821.375867 428.008571 
L 821.375867 461.372857 
L 822.337073 461.372857 
L 822.337073 481.391429 
L 823.29828 481.391429 
L 823.29828 474.718571 
L 826.1819 474.718571 
L 826.1819 468.045714 
L 827.143107 468.045714 
L 827.143107 474.718571 
L 828.104313 474.718571 
L 828.104313 494.737143 
L 829.06552 494.737143 
L 829.06552 461.372857 
L 830.026727 461.372857 
L 830.026727 454.7 
L 830.987933 454.7 
L 830.987933 434.681429 
L 831.94914 434.681429 
L 831.94914 441.354286 
L 832.910347 441.354286 
L 832.910347 428.008571 
L 834.83276 428.008571 
L 834.83276 454.7 
L 835.793967 454.7 
L 835.793967 441.354286 
L 836.755173 441.354286 
L 836.755173 401.317143 
L 837.71638 401.317143 
L 837.71638 414.662857 
L 838.677587 414.662857 
L 838.677587 428.008571 
L 839.638793 428.008571 
L 839.638793 428.008571 
" clip-path="url(#pcd28efdc70)" style="fill: none; stroke: #808080; stroke-width: 0.9; stroke-linecap: square"/>
   </g>
   <g id="patch_18">
    <path d="M 480.1475 548.12 
L 480.1475 314.57 
" style="fill: none; stroke: #000000; stroke-width: 0.8; stroke-linejoin: miter; stroke-linecap: square"/>
   </g>
   <g id="patch_19">
    <path d="M 840.6 548.12 
L 840.6 314.57 
" style="fill: none; stroke: #000000; stroke-width: 0.8; stroke-linejoin: miter; stroke-linecap: square"/>
   </g>
   <g id="patch_20">
    <path d="M 480.1475 548.12 
L 840.6 548.12 
" style="fill: none; stroke: #000000; stroke-width: 0.8; stroke-linejoin: miter; stroke-linecap: square"/>
   </g>
   <g id="patch_21">
    <path d="M 480.1475 314.57 
L 840.6 314.57 
" style="fill: none; stroke: #000000; stroke-width: 0.8; stroke-linejoin: miter; stroke-linecap: square"/>
   </g>
   <g id="text_47">
    <!-- RL Reward -->
    <g transform="translate(628.609375 308.57)scale(0.12 -0.12)">
     <defs>
      <path id="DejaVuSans-52" d="M 2841 2188 
Q 3044 2119 3236 1894 
Q 3428 1669 3622 1275 
L 4263 0 
L 3584 0 
L 2988 1197 
Q 2756 1666 2539 1819 
Q 2322 1972 1947 1972 
L 1259 1972 
L 1259 0 
L 628 0 
L 628 4666 
L 2053 4666 
Q 2853 4666 3247 4331 
Q 3641 3997 3641 3322 
Q 3641 2881 3436 2590 
Q 3231 2300 2841 2188 
z
M 1259 4147 
L 1259 2491 
L 2053 2491 
Q 2509 2491 2742 2702 
Q 2975 2913 2975 3322 
Q 2975 3731 2742 3939 
Q 2509 4147 2053 4147 
L 1259 4147 
z
" transform="scale(0.015625)"/>
      <path id="DejaVuSans-4c" d="M 628 4666 
L 1259 4666 
L 1259 531 
L 3531 531 
L 3531 0 
L 628 0 
L 628 4666 
z
" transform="scale(0.015625)"/>
      <path id="DejaVuSans-77" d="M 269 3500 
L 844 3500 
L 1563 769 
L 2278 3500 
L 2956 3500 
L 3675 769 
L 4391 3500 
L 4966 3500 
L 4050 0 
L 3372 0 
L 2619 2869 
L 1863 0 
L 1184 0 
L 269 3500 
z
" transform="scale(0.015625)"/>
      <path id="DejaVuSans-64" d="M 2906 2969 
L 2906 4863 
L 3481 4863 
L 3481 0 
L 2906 0 
L 2906 525 
Q 2725 213 2448 61 
Q 2172 -91 1784 -91 
Q 1150 -91 751 415 
Q 353 922 353 1747 
Q 353 2572 751 3078 
Q 1150 3584 1784 3584 
Q 2172 3584 2448 3432 
Q 2725 3281 2906 2969 
z
M 947 1747 
Q 947 1113 1208 752 
Q 1469 391 1925 391 
Q 2381 391 2643 752 
Q 2906 1113 2906 1747 
Q 2906 2381 2643 2742 
Q 2381 3103 1925 3103 
Q 1469 3103 1208 2742 
Q 947 2381 947 1747 
z
" transform="scale(0.015625)"/>
     </defs>
     <use xlink:href="#DejaVuSans-52"/>
     <use xlink:href="#DejaVuSans-4c" x="69.482422"/>
     <use xlink:href="#DejaVuSans-20" x="125.195312"/>
     <use xlink:href="#DejaVuSans-52" x="156.982422"/>
     <use xlink:href="#DejaVuSans-65" x="221.964844"/>
     <use xlink:href="#DejaVuSans-77" x="283.488281"/>
     <use xlink:href="#DejaVuSans-61" x="365.275391"/>
     <use xlink:href="#DejaVuSans-72" x="426.554688"/>
     <use xlink:href="#DejaVuSans-64" x="465.917969"/>
    </g>
   </g>
  </g>
  <g id="text_48">
   <!-- Exp. 2, episode 999 -->
   <g transform="translate(372.578438 20.638125)scale(0.12 -0.12)">
    <defs>
     <path id="DejaVuSans-45" d="M 628 4666 
L 3578 4666 
L 3578 4134 
L 1259 4134 
L 1259 2753 
L 3481 2753 
L 3481 2222 
L 1259 2222 
L 1259 531 
L 3634 531 
L 3634 0 
L 628 0 
L 628 4666 
z
" transform="scale(0.015625)"/>
     <path id="DejaVuSans-78" d="M 3513 3500 
L 2247 1797 
L 3578 0 
L 2900 0 
L 1881 1375 
L 863 0 
L 184 0 
L 1544 1831 
L 300 3500 
L 978 3500 
L 1906 2253 
L 2834 3500 
L 3513 3500 
z
" transform="scale(0.015625)"/>
     <path id="DejaVuSans-2c" d="M 750 794 
L 1409 794 
L 1409 256 
L 897 -744 
L 494 -744 
L 750 256 
L 750 794 
z
" transform="scale(0.015625)"/>
    </defs>
    <use xlink:href="#DejaVuSans-45"/>
    <use xlink:href="#DejaVuSans-78" x="63.183594"/>
    <use xlink:href="#DejaVuSans-70" x="122.363281"/>
    <use xlink:href="#DejaVuSans-2e" x="185.839844"/>
    <use xlink:href="#DejaVuSans-20" x="217.626953"/>
    <use xlink:href="#DejaVuSans-32" x="249.414062"/>
    <use xlink:href="#DejaVuSans-2c" x="313.037109"/>
    <use xlink:href="#DejaVuSans-20" x="344.824219"/>
    <use xlink:href="#DejaVuSans-65" x="376.611328"/>
    <use xlink:href="#DejaVuSans-70" x="438.134766"/>
    <use xlink:href="#DejaVuSans-69" x="501.611328"/>
    <use xlink:href="#DejaVuSans-73" x="529.394531"/>
    <use xlink:href="#DejaVuSans-6f" x="581.494141"/>
    <use xlink:href="#DejaVuSans-64" x="642.675781"/>
    <use xlink:href="#DejaVuSans-65" x="706.152344"/>
    <use xlink:href="#DejaVuSans-20" x="767.675781"/>
    <use xlink:href="#DejaVuSans-39" x="799.462891"/>
    <use xlink:href="#DejaVuSans-39" x="863.085938"/>
    <use xlink:href="#DejaVuSans-39" x="926.708984"/>
   </g>
  </g>
 </g>
 <defs>
  <clipPath id="pe76f197a16">
   <rect x="52.5125" y="50.64" width="360.4525" height="233.55"/>
  </clipPath>
  <clipPath id="pe543d1b57f">
   <rect x="480.1475" y="50.64" width="360.4525" height="233.55"/>
  </clipPath>
  <clipPath id="p7a72b68609">
   <rect x="52.5125" y="314.57" width="360.4525" height="233.55"/>
  </clipPath>
  <clipPath id="pcd28efdc70">
   <rect x="480.1475" y="314.57" width="360.4525" height="233.55"/>
  </clipPath>
 </defs>
</svg>
