<?xml version="1.0" encoding="utf-8" standalone="no"?>
<!DOCTYPE svg PUBLIC "-//W3C//DTD SVG 1.1//EN"
  "http://www.w3.org/Graphics/SVG/1.1/DTD/svg11.dtd">
<svg xmlns:xlink="http://www.w3.org/1999/xlink" width="864pt" height="576pt" viewBox="0 0 864 576" xmlns="http://www.w3.org/2000/svg" version="1.1">
 <metadata>
  <rdf:RDF xmlns:dc="http://purl.org/dc/elements/1.1/" xmlns:cc="http://creativecommons.org/ns#" xmlns:rdf="http://www.w3.org/1999/02/22-rdf-syntax-ns#">
   <cc:Work>
    <dc:type rdf:resource="http://purl.org/dc/dcmitype/StillImage"/>
    <dc:date>2023-02-01T18:45:04.642018</dc:date>
    <dc:format>image/svg+xml</dc:format>
    <dc:creator>
     <cc:Agent>
      <dc:title>Matplotlib v3.5.2, https://matplotlib.org/</dc:title>
     </cc:Agent>
    </dc:creator>
   </cc:Work>
  </rdf:RDF>
 </metadata>
 <defs>
  <style type="text/css">*{stroke-linejoin: round; stroke-linecap: butt}</style>
 </defs>
 <g id="figure_1">
  <g id="patch_1">
   <path d="M 0 576 
L 864 576 
L 864 0 
L 0 0 
z
" style="fill: #ffffff"/>
  </g>
  <g id="axes_1">
   <g id="patch_2">
    <path d="M 50.2625 283.11 
L 415.395 283.11 
L 415.395 47.09625 
L 50.2625 47.09625 
z
" style="fill: #ffffff"/>
   </g>
   <g id="matplotlib.axis_1">
    <g id="xtick_1">
     <g id="line2d_1">
      <path d="M 64.8678 283.11 
L 64.8678 47.09625 
" clip-path="url(#pa3ba4b8f9e)" style="fill: none; stroke: #b0b0b0; stroke-width: 0.8; stroke-linecap: square"/>
     </g>
     <g id="line2d_2">
      <defs>
       <path id="m61f9306f44" d="M 0 0 
L 0 3.5 
" style="stroke: #000000; stroke-width: 0.8"/>
      </defs>
      <g>
       <use xlink:href="#m61f9306f44" x="64.8678" y="283.11" style="stroke: #000000; stroke-width: 0.8"/>
      </g>
     </g>
    </g>
    <g id="xtick_2">
     <g id="line2d_3">
      <path d="M 123.289 283.11 
L 123.289 47.09625 
" clip-path="url(#pa3ba4b8f9e)" style="fill: none; stroke: #b0b0b0; stroke-width: 0.8; stroke-linecap: square"/>
     </g>
     <g id="line2d_4">
      <g>
       <use xlink:href="#m61f9306f44" x="123.289" y="283.11" style="stroke: #000000; stroke-width: 0.8"/>
      </g>
     </g>
    </g>
    <g id="xtick_3">
     <g id="line2d_5">
      <path d="M 181.7102 283.11 
L 181.7102 47.09625 
" clip-path="url(#pa3ba4b8f9e)" style="fill: none; stroke: #b0b0b0; stroke-width: 0.8; stroke-linecap: square"/>
     </g>
     <g id="line2d_6">
      <g>
       <use xlink:href="#m61f9306f44" x="181.7102" y="283.11" style="stroke: #000000; stroke-width: 0.8"/>
      </g>
     </g>
    </g>
    <g id="xtick_4">
     <g id="line2d_7">
      <path d="M 240.1314 283.11 
L 240.1314 47.09625 
" clip-path="url(#pa3ba4b8f9e)" style="fill: none; stroke: #b0b0b0; stroke-width: 0.8; stroke-linecap: square"/>
     </g>
     <g id="line2d_8">
      <g>
       <use xlink:href="#m61f9306f44" x="240.1314" y="283.11" style="stroke: #000000; stroke-width: 0.8"/>
      </g>
     </g>
    </g>
    <g id="xtick_5">
     <g id="line2d_9">
      <path d="M 298.5526 283.11 
L 298.5526 47.09625 
" clip-path="url(#pa3ba4b8f9e)" style="fill: none; stroke: #b0b0b0; stroke-width: 0.8; stroke-linecap: square"/>
     </g>
     <g id="line2d_10">
      <g>
       <use xlink:href="#m61f9306f44" x="298.5526" y="283.11" style="stroke: #000000; stroke-width: 0.8"/>
      </g>
     </g>
    </g>
    <g id="xtick_6">
     <g id="line2d_11">
      <path d="M 356.9738 283.11 
L 356.9738 47.09625 
" clip-path="url(#pa3ba4b8f9e)" style="fill: none; stroke: #b0b0b0; stroke-width: 0.8; stroke-linecap: square"/>
     </g>
     <g id="line2d_12">
      <g>
       <use xlink:href="#m61f9306f44" x="356.9738" y="283.11" style="stroke: #000000; stroke-width: 0.8"/>
      </g>
     </g>
    </g>
    <g id="xtick_7">
     <g id="line2d_13">
      <path d="M 415.395 283.11 
L 415.395 47.09625 
" clip-path="url(#pa3ba4b8f9e)" style="fill: none; stroke: #b0b0b0; stroke-width: 0.8; stroke-linecap: square"/>
     </g>
     <g id="line2d_14">
      <g>
       <use xlink:href="#m61f9306f44" x="415.395" y="283.11" style="stroke: #000000; stroke-width: 0.8"/>
      </g>
     </g>
    </g>
   </g>
   <g id="matplotlib.axis_2">
    <g id="ytick_1">
     <g id="line2d_15">
      <path d="M 50.2625 261.089578 
L 415.395 261.089578 
" clip-path="url(#pa3ba4b8f9e)" style="fill: none; stroke: #b0b0b0; stroke-width: 0.8; stroke-linecap: square"/>
     </g>
     <g id="line2d_16">
      <defs>
       <path id="mb3f8f192a2" d="M 0 0 
L -3.5 0 
" style="stroke: #000000; stroke-width: 0.8"/>
      </defs>
      <g>
       <use xlink:href="#mb3f8f192a2" x="50.2625" y="261.089578" style="stroke: #000000; stroke-width: 0.8"/>
      </g>
     </g>
     <g id="text_1">
      <!-- 30 -->
      <g transform="translate(32.140625 264.668485)scale(0.1 -0.1)">
       <defs>
        <path id="ArialMT-33" d="M 269 1209 
L 831 1284 
Q 928 806 1161 595 
Q 1394 384 1728 384 
Q 2125 384 2398 659 
Q 2672 934 2672 1341 
Q 2672 1728 2419 1979 
Q 2166 2231 1775 2231 
Q 1616 2231 1378 2169 
L 1441 2663 
Q 1497 2656 1531 2656 
Q 1891 2656 2178 2843 
Q 2466 3031 2466 3422 
Q 2466 3731 2256 3934 
Q 2047 4138 1716 4138 
Q 1388 4138 1169 3931 
Q 950 3725 888 3313 
L 325 3413 
Q 428 3978 793 4289 
Q 1159 4600 1703 4600 
Q 2078 4600 2393 4439 
Q 2709 4278 2876 4000 
Q 3044 3722 3044 3409 
Q 3044 3113 2884 2869 
Q 2725 2625 2413 2481 
Q 2819 2388 3044 2092 
Q 3269 1797 3269 1353 
Q 3269 753 2831 336 
Q 2394 -81 1725 -81 
Q 1122 -81 723 278 
Q 325 638 269 1209 
z
" transform="scale(0.015625)"/>
        <path id="ArialMT-30" d="M 266 2259 
Q 266 3072 433 3567 
Q 600 4063 929 4331 
Q 1259 4600 1759 4600 
Q 2128 4600 2406 4451 
Q 2684 4303 2865 4023 
Q 3047 3744 3150 3342 
Q 3253 2941 3253 2259 
Q 3253 1453 3087 958 
Q 2922 463 2592 192 
Q 2263 -78 1759 -78 
Q 1097 -78 719 397 
Q 266 969 266 2259 
z
M 844 2259 
Q 844 1131 1108 757 
Q 1372 384 1759 384 
Q 2147 384 2411 759 
Q 2675 1134 2675 2259 
Q 2675 3391 2411 3762 
Q 2147 4134 1753 4134 
Q 1366 4134 1134 3806 
Q 844 3388 844 2259 
z
" transform="scale(0.015625)"/>
       </defs>
       <use xlink:href="#ArialMT-33"/>
       <use xlink:href="#ArialMT-30" x="55.615234"/>
      </g>
     </g>
    </g>
    <g id="ytick_2">
     <g id="line2d_17">
      <path d="M 50.2625 223.447832 
L 415.395 223.447832 
" clip-path="url(#pa3ba4b8f9e)" style="fill: none; stroke: #b0b0b0; stroke-width: 0.8; stroke-linecap: square"/>
     </g>
     <g id="line2d_18">
      <g>
       <use xlink:href="#mb3f8f192a2" x="50.2625" y="223.447832" style="stroke: #000000; stroke-width: 0.8"/>
      </g>
     </g>
     <g id="text_2">
      <!-- 40 -->
      <g transform="translate(32.140625 227.026738)scale(0.1 -0.1)">
       <defs>
        <path id="ArialMT-34" d="M 2069 0 
L 2069 1097 
L 81 1097 
L 81 1613 
L 2172 4581 
L 2631 4581 
L 2631 1613 
L 3250 1613 
L 3250 1097 
L 2631 1097 
L 2631 0 
L 2069 0 
z
M 2069 1613 
L 2069 3678 
L 634 1613 
L 2069 1613 
z
" transform="scale(0.015625)"/>
       </defs>
       <use xlink:href="#ArialMT-34"/>
       <use xlink:href="#ArialMT-30" x="55.615234"/>
      </g>
     </g>
    </g>
    <g id="ytick_3">
     <g id="line2d_19">
      <path d="M 50.2625 185.806086 
L 415.395 185.806086 
" clip-path="url(#pa3ba4b8f9e)" style="fill: none; stroke: #b0b0b0; stroke-width: 0.8; stroke-linecap: square"/>
     </g>
     <g id="line2d_20">
      <g>
       <use xlink:href="#mb3f8f192a2" x="50.2625" y="185.806086" style="stroke: #000000; stroke-width: 0.8"/>
      </g>
     </g>
     <g id="text_3">
      <!-- 50 -->
      <g transform="translate(32.140625 189.384992)scale(0.1 -0.1)">
       <defs>
        <path id="ArialMT-35" d="M 266 1200 
L 856 1250 
Q 922 819 1161 601 
Q 1400 384 1738 384 
Q 2144 384 2425 690 
Q 2706 997 2706 1503 
Q 2706 1984 2436 2262 
Q 2166 2541 1728 2541 
Q 1456 2541 1237 2417 
Q 1019 2294 894 2097 
L 366 2166 
L 809 4519 
L 3088 4519 
L 3088 3981 
L 1259 3981 
L 1013 2750 
Q 1425 3038 1878 3038 
Q 2478 3038 2890 2622 
Q 3303 2206 3303 1553 
Q 3303 931 2941 478 
Q 2500 -78 1738 -78 
Q 1113 -78 717 272 
Q 322 622 266 1200 
z
" transform="scale(0.015625)"/>
       </defs>
       <use xlink:href="#ArialMT-35"/>
       <use xlink:href="#ArialMT-30" x="55.615234"/>
      </g>
     </g>
    </g>
    <g id="ytick_4">
     <g id="line2d_21">
      <path d="M 50.2625 148.164339 
L 415.395 148.164339 
" clip-path="url(#pa3ba4b8f9e)" style="fill: none; stroke: #b0b0b0; stroke-width: 0.8; stroke-linecap: square"/>
     </g>
     <g id="line2d_22">
      <g>
       <use xlink:href="#mb3f8f192a2" x="50.2625" y="148.164339" style="stroke: #000000; stroke-width: 0.8"/>
      </g>
     </g>
     <g id="text_4">
      <!-- 60 -->
      <g transform="translate(32.140625 151.743245)scale(0.1 -0.1)">
       <defs>
        <path id="ArialMT-36" d="M 3184 3459 
L 2625 3416 
Q 2550 3747 2413 3897 
Q 2184 4138 1850 4138 
Q 1581 4138 1378 3988 
Q 1113 3794 959 3422 
Q 806 3050 800 2363 
Q 1003 2672 1297 2822 
Q 1591 2972 1913 2972 
Q 2475 2972 2870 2558 
Q 3266 2144 3266 1488 
Q 3266 1056 3080 686 
Q 2894 316 2569 119 
Q 2244 -78 1831 -78 
Q 1128 -78 684 439 
Q 241 956 241 2144 
Q 241 3472 731 4075 
Q 1159 4600 1884 4600 
Q 2425 4600 2770 4297 
Q 3116 3994 3184 3459 
z
M 888 1484 
Q 888 1194 1011 928 
Q 1134 663 1356 523 
Q 1578 384 1822 384 
Q 2178 384 2434 671 
Q 2691 959 2691 1453 
Q 2691 1928 2437 2201 
Q 2184 2475 1800 2475 
Q 1419 2475 1153 2201 
Q 888 1928 888 1484 
z
" transform="scale(0.015625)"/>
       </defs>
       <use xlink:href="#ArialMT-36"/>
       <use xlink:href="#ArialMT-30" x="55.615234"/>
      </g>
     </g>
    </g>
    <g id="ytick_5">
     <g id="line2d_23">
      <path d="M 50.2625 110.522593 
L 415.395 110.522593 
" clip-path="url(#pa3ba4b8f9e)" style="fill: none; stroke: #b0b0b0; stroke-width: 0.8; stroke-linecap: square"/>
     </g>
     <g id="line2d_24">
      <g>
       <use xlink:href="#mb3f8f192a2" x="50.2625" y="110.522593" style="stroke: #000000; stroke-width: 0.8"/>
      </g>
     </g>
     <g id="text_5">
      <!-- 70 -->
      <g transform="translate(32.140625 114.101499)scale(0.1 -0.1)">
       <defs>
        <path id="ArialMT-37" d="M 303 3981 
L 303 4522 
L 3269 4522 
L 3269 4084 
Q 2831 3619 2401 2847 
Q 1972 2075 1738 1259 
Q 1569 684 1522 0 
L 944 0 
Q 953 541 1156 1306 
Q 1359 2072 1739 2783 
Q 2119 3494 2547 3981 
L 303 3981 
z
" transform="scale(0.015625)"/>
       </defs>
       <use xlink:href="#ArialMT-37"/>
       <use xlink:href="#ArialMT-30" x="55.615234"/>
      </g>
     </g>
    </g>
    <g id="ytick_6">
     <g id="line2d_25">
      <path d="M 50.2625 72.880846 
L 415.395 72.880846 
" clip-path="url(#pa3ba4b8f9e)" style="fill: none; stroke: #b0b0b0; stroke-width: 0.8; stroke-linecap: square"/>
     </g>
     <g id="line2d_26">
      <g>
       <use xlink:href="#mb3f8f192a2" x="50.2625" y="72.880846" style="stroke: #000000; stroke-width: 0.8"/>
      </g>
     </g>
     <g id="text_6">
      <!-- 80 -->
      <g transform="translate(32.140625 76.459753)scale(0.1 -0.1)">
       <defs>
        <path id="ArialMT-38" d="M 1131 2484 
Q 781 2613 612 2850 
Q 444 3088 444 3419 
Q 444 3919 803 4259 
Q 1163 4600 1759 4600 
Q 2359 4600 2725 4251 
Q 3091 3903 3091 3403 
Q 3091 3084 2923 2848 
Q 2756 2613 2416 2484 
Q 2838 2347 3058 2040 
Q 3278 1734 3278 1309 
Q 3278 722 2862 322 
Q 2447 -78 1769 -78 
Q 1091 -78 675 323 
Q 259 725 259 1325 
Q 259 1772 486 2073 
Q 713 2375 1131 2484 
z
M 1019 3438 
Q 1019 3113 1228 2906 
Q 1438 2700 1772 2700 
Q 2097 2700 2305 2904 
Q 2513 3109 2513 3406 
Q 2513 3716 2298 3927 
Q 2084 4138 1766 4138 
Q 1444 4138 1231 3931 
Q 1019 3725 1019 3438 
z
M 838 1322 
Q 838 1081 952 856 
Q 1066 631 1291 507 
Q 1516 384 1775 384 
Q 2178 384 2440 643 
Q 2703 903 2703 1303 
Q 2703 1709 2433 1975 
Q 2163 2241 1756 2241 
Q 1359 2241 1098 1978 
Q 838 1716 838 1322 
z
" transform="scale(0.015625)"/>
       </defs>
       <use xlink:href="#ArialMT-38"/>
       <use xlink:href="#ArialMT-30" x="55.615234"/>
      </g>
     </g>
    </g>
    <g id="text_7">
     <!-- $[veh]$ -->
     <g transform="translate(26.153125 178.253125)rotate(-90)scale(0.1 -0.1)">
      <defs>
       <path id="DejaVuSans-5b" d="M 550 4863 
L 1875 4863 
L 1875 4416 
L 1125 4416 
L 1125 -397 
L 1875 -397 
L 1875 -844 
L 550 -844 
L 550 4863 
z
" transform="scale(0.015625)"/>
       <path id="DejaVuSans-Oblique-76" d="M 459 3500 
L 1069 3500 
L 1581 525 
L 3256 3500 
L 3866 3500 
L 1875 0 
L 1100 0 
L 459 3500 
z
" transform="scale(0.015625)"/>
       <path id="DejaVuSans-Oblique-65" d="M 3078 2063 
Q 3088 2113 3092 2166 
Q 3097 2219 3097 2272 
Q 3097 2653 2873 2875 
Q 2650 3097 2266 3097 
Q 1838 3097 1509 2826 
Q 1181 2556 1013 2059 
L 3078 2063 
z
M 3578 1613 
L 903 1613 
Q 884 1494 878 1425 
Q 872 1356 872 1306 
Q 872 872 1139 634 
Q 1406 397 1894 397 
Q 2269 397 2603 481 
Q 2938 566 3225 728 
L 3116 159 
Q 2806 34 2476 -28 
Q 2147 -91 1806 -91 
Q 1078 -91 686 257 
Q 294 606 294 1247 
Q 294 1794 489 2264 
Q 684 2734 1063 3103 
Q 1306 3334 1642 3459 
Q 1978 3584 2356 3584 
Q 2950 3584 3301 3228 
Q 3653 2872 3653 2272 
Q 3653 2128 3634 1964 
Q 3616 1800 3578 1613 
z
" transform="scale(0.015625)"/>
       <path id="DejaVuSans-Oblique-68" d="M 3566 2113 
L 3156 0 
L 2578 0 
L 2988 2091 
Q 3016 2238 3031 2350 
Q 3047 2463 3047 2528 
Q 3047 2791 2881 2937 
Q 2716 3084 2419 3084 
Q 1956 3084 1617 2771 
Q 1278 2459 1178 1941 
L 800 0 
L 225 0 
L 1172 4863 
L 1747 4863 
L 1375 2950 
Q 1594 3244 1934 3414 
Q 2275 3584 2650 3584 
Q 3113 3584 3367 3334 
Q 3622 3084 3622 2631 
Q 3622 2519 3608 2391 
Q 3594 2263 3566 2113 
z
" transform="scale(0.015625)"/>
       <path id="DejaVuSans-5d" d="M 1947 4863 
L 1947 -844 
L 622 -844 
L 622 -397 
L 1369 -397 
L 1369 4416 
L 622 4416 
L 622 4863 
L 1947 4863 
z
" transform="scale(0.015625)"/>
      </defs>
      <use xlink:href="#DejaVuSans-5b" transform="translate(0 0.015625)"/>
      <use xlink:href="#DejaVuSans-Oblique-76" transform="translate(39.013672 0.015625)"/>
      <use xlink:href="#DejaVuSans-Oblique-65" transform="translate(98.193359 0.015625)"/>
      <use xlink:href="#DejaVuSans-Oblique-68" transform="translate(159.716797 0.015625)"/>
      <use xlink:href="#DejaVuSans-5d" transform="translate(223.095703 0.015625)"/>
     </g>
    </g>
   </g>
   <g id="line2d_27">
    <path d="M 50.2625 272.382102 
L 50.2625 272.382102 
L 64.8678 272.382102 
L 64.8678 166.985212 
L 79.4731 166.985212 
L 79.4731 129.343466 
L 94.0784 129.343466 
L 94.0784 148.164339 
L 108.6837 148.164339 
L 108.6837 114.286767 
L 123.289 114.286767 
L 123.289 136.871815 
L 137.8943 136.871815 
L 137.8943 102.994243 
L 152.4996 102.994243 
L 152.4996 136.871815 
L 167.1049 136.871815 
L 167.1049 121.815117 
L 181.7102 121.815117 
L 181.7102 80.409196 
L 196.3155 80.409196 
L 196.3155 114.286767 
L 210.9208 114.286767 
L 210.9208 91.701719 
L 225.5261 91.701719 
L 225.5261 95.465894 
L 240.1314 95.465894 
L 240.1314 136.871815 
L 254.7367 136.871815 
L 254.7367 148.164339 
L 269.342 148.164339 
L 269.342 144.400164 
L 283.9473 144.400164 
L 283.9473 57.824148 
L 298.5526 57.824148 
L 298.5526 129.343466 
L 313.1579 129.343466 
L 313.1579 114.286767 
L 327.7632 114.286767 
L 327.7632 118.050942 
L 342.3685 118.050942 
L 342.3685 144.400164 
L 356.9738 144.400164 
L 356.9738 114.286767 
L 371.5791 114.286767 
L 371.5791 185.806086 
L 386.1844 185.806086 
L 386.1844 163.221038 
L 400.7897 163.221038 
L 400.7897 129.343466 
L 415.395 129.343466 
" clip-path="url(#pa3ba4b8f9e)" style="fill: none; stroke: #1f77b4; stroke-width: 1.2; stroke-linecap: square"/>
   </g>
   <g id="patch_3">
    <path d="M 50.2625 283.11 
L 50.2625 47.09625 
" style="fill: none; stroke: #000000; stroke-width: 0.8; stroke-linejoin: miter; stroke-linecap: square"/>
   </g>
   <g id="patch_4">
    <path d="M 415.395 283.11 
L 415.395 47.09625 
" style="fill: none; stroke: #000000; stroke-width: 0.8; stroke-linejoin: miter; stroke-linecap: square"/>
   </g>
   <g id="patch_5">
    <path d="M 50.2625 283.11 
L 415.395 283.11 
" style="fill: none; stroke: #000000; stroke-width: 0.8; stroke-linejoin: miter; stroke-linecap: square"/>
   </g>
   <g id="patch_6">
    <path d="M 50.2625 47.09625 
L 415.395 47.09625 
" style="fill: none; stroke: #000000; stroke-width: 0.8; stroke-linejoin: miter; stroke-linecap: square"/>
   </g>
   <g id="text_8">
    <!-- Intersection throughput -->
    <g transform="translate(171.46 41.09625)scale(0.12 -0.12)">
     <defs>
      <path id="ArialMT-49" d="M 597 0 
L 597 4581 
L 1203 4581 
L 1203 0 
L 597 0 
z
" transform="scale(0.015625)"/>
      <path id="ArialMT-6e" d="M 422 0 
L 422 3319 
L 928 3319 
L 928 2847 
Q 1294 3394 1984 3394 
Q 2284 3394 2536 3286 
Q 2788 3178 2913 3003 
Q 3038 2828 3088 2588 
Q 3119 2431 3119 2041 
L 3119 0 
L 2556 0 
L 2556 2019 
Q 2556 2363 2490 2533 
Q 2425 2703 2258 2804 
Q 2091 2906 1866 2906 
Q 1506 2906 1245 2678 
Q 984 2450 984 1813 
L 984 0 
L 422 0 
z
" transform="scale(0.015625)"/>
      <path id="ArialMT-74" d="M 1650 503 
L 1731 6 
Q 1494 -44 1306 -44 
Q 1000 -44 831 53 
Q 663 150 594 308 
Q 525 466 525 972 
L 525 2881 
L 113 2881 
L 113 3319 
L 525 3319 
L 525 4141 
L 1084 4478 
L 1084 3319 
L 1650 3319 
L 1650 2881 
L 1084 2881 
L 1084 941 
Q 1084 700 1114 631 
Q 1144 563 1211 522 
Q 1278 481 1403 481 
Q 1497 481 1650 503 
z
" transform="scale(0.015625)"/>
      <path id="ArialMT-65" d="M 2694 1069 
L 3275 997 
Q 3138 488 2766 206 
Q 2394 -75 1816 -75 
Q 1088 -75 661 373 
Q 234 822 234 1631 
Q 234 2469 665 2931 
Q 1097 3394 1784 3394 
Q 2450 3394 2872 2941 
Q 3294 2488 3294 1666 
Q 3294 1616 3291 1516 
L 816 1516 
Q 847 969 1125 678 
Q 1403 388 1819 388 
Q 2128 388 2347 550 
Q 2566 713 2694 1069 
z
M 847 1978 
L 2700 1978 
Q 2663 2397 2488 2606 
Q 2219 2931 1791 2931 
Q 1403 2931 1139 2672 
Q 875 2413 847 1978 
z
" transform="scale(0.015625)"/>
      <path id="ArialMT-72" d="M 416 0 
L 416 3319 
L 922 3319 
L 922 2816 
Q 1116 3169 1280 3281 
Q 1444 3394 1641 3394 
Q 1925 3394 2219 3213 
L 2025 2691 
Q 1819 2813 1613 2813 
Q 1428 2813 1281 2702 
Q 1134 2591 1072 2394 
Q 978 2094 978 1738 
L 978 0 
L 416 0 
z
" transform="scale(0.015625)"/>
      <path id="ArialMT-73" d="M 197 991 
L 753 1078 
Q 800 744 1014 566 
Q 1228 388 1613 388 
Q 2000 388 2187 545 
Q 2375 703 2375 916 
Q 2375 1106 2209 1216 
Q 2094 1291 1634 1406 
Q 1016 1563 777 1677 
Q 538 1791 414 1992 
Q 291 2194 291 2438 
Q 291 2659 392 2848 
Q 494 3038 669 3163 
Q 800 3259 1026 3326 
Q 1253 3394 1513 3394 
Q 1903 3394 2198 3281 
Q 2494 3169 2634 2976 
Q 2775 2784 2828 2463 
L 2278 2388 
Q 2241 2644 2061 2787 
Q 1881 2931 1553 2931 
Q 1166 2931 1000 2803 
Q 834 2675 834 2503 
Q 834 2394 903 2306 
Q 972 2216 1119 2156 
Q 1203 2125 1616 2013 
Q 2213 1853 2448 1751 
Q 2684 1650 2818 1456 
Q 2953 1263 2953 975 
Q 2953 694 2789 445 
Q 2625 197 2315 61 
Q 2006 -75 1616 -75 
Q 969 -75 630 194 
Q 291 463 197 991 
z
" transform="scale(0.015625)"/>
      <path id="ArialMT-63" d="M 2588 1216 
L 3141 1144 
Q 3050 572 2676 248 
Q 2303 -75 1759 -75 
Q 1078 -75 664 370 
Q 250 816 250 1647 
Q 250 2184 428 2587 
Q 606 2991 970 3192 
Q 1334 3394 1763 3394 
Q 2303 3394 2647 3120 
Q 2991 2847 3088 2344 
L 2541 2259 
Q 2463 2594 2264 2762 
Q 2066 2931 1784 2931 
Q 1359 2931 1093 2626 
Q 828 2322 828 1663 
Q 828 994 1084 691 
Q 1341 388 1753 388 
Q 2084 388 2306 591 
Q 2528 794 2588 1216 
z
" transform="scale(0.015625)"/>
      <path id="ArialMT-69" d="M 425 3934 
L 425 4581 
L 988 4581 
L 988 3934 
L 425 3934 
z
M 425 0 
L 425 3319 
L 988 3319 
L 988 0 
L 425 0 
z
" transform="scale(0.015625)"/>
      <path id="ArialMT-6f" d="M 213 1659 
Q 213 2581 725 3025 
Q 1153 3394 1769 3394 
Q 2453 3394 2887 2945 
Q 3322 2497 3322 1706 
Q 3322 1066 3130 698 
Q 2938 331 2570 128 
Q 2203 -75 1769 -75 
Q 1072 -75 642 372 
Q 213 819 213 1659 
z
M 791 1659 
Q 791 1022 1069 705 
Q 1347 388 1769 388 
Q 2188 388 2466 706 
Q 2744 1025 2744 1678 
Q 2744 2294 2464 2611 
Q 2184 2928 1769 2928 
Q 1347 2928 1069 2612 
Q 791 2297 791 1659 
z
" transform="scale(0.015625)"/>
      <path id="ArialMT-20" transform="scale(0.015625)"/>
      <path id="ArialMT-68" d="M 422 0 
L 422 4581 
L 984 4581 
L 984 2938 
Q 1378 3394 1978 3394 
Q 2347 3394 2619 3248 
Q 2891 3103 3008 2847 
Q 3125 2591 3125 2103 
L 3125 0 
L 2563 0 
L 2563 2103 
Q 2563 2525 2380 2717 
Q 2197 2909 1863 2909 
Q 1613 2909 1392 2779 
Q 1172 2650 1078 2428 
Q 984 2206 984 1816 
L 984 0 
L 422 0 
z
" transform="scale(0.015625)"/>
      <path id="ArialMT-75" d="M 2597 0 
L 2597 488 
Q 2209 -75 1544 -75 
Q 1250 -75 995 37 
Q 741 150 617 320 
Q 494 491 444 738 
Q 409 903 409 1263 
L 409 3319 
L 972 3319 
L 972 1478 
Q 972 1038 1006 884 
Q 1059 663 1231 536 
Q 1403 409 1656 409 
Q 1909 409 2131 539 
Q 2353 669 2445 892 
Q 2538 1116 2538 1541 
L 2538 3319 
L 3100 3319 
L 3100 0 
L 2597 0 
z
" transform="scale(0.015625)"/>
      <path id="ArialMT-67" d="M 319 -275 
L 866 -356 
Q 900 -609 1056 -725 
Q 1266 -881 1628 -881 
Q 2019 -881 2231 -725 
Q 2444 -569 2519 -288 
Q 2563 -116 2559 434 
Q 2191 0 1641 0 
Q 956 0 581 494 
Q 206 988 206 1678 
Q 206 2153 378 2554 
Q 550 2956 876 3175 
Q 1203 3394 1644 3394 
Q 2231 3394 2613 2919 
L 2613 3319 
L 3131 3319 
L 3131 450 
Q 3131 -325 2973 -648 
Q 2816 -972 2473 -1159 
Q 2131 -1347 1631 -1347 
Q 1038 -1347 672 -1080 
Q 306 -813 319 -275 
z
M 784 1719 
Q 784 1066 1043 766 
Q 1303 466 1694 466 
Q 2081 466 2343 764 
Q 2606 1063 2606 1700 
Q 2606 2309 2336 2618 
Q 2066 2928 1684 2928 
Q 1309 2928 1046 2623 
Q 784 2319 784 1719 
z
" transform="scale(0.015625)"/>
      <path id="ArialMT-70" d="M 422 -1272 
L 422 3319 
L 934 3319 
L 934 2888 
Q 1116 3141 1344 3267 
Q 1572 3394 1897 3394 
Q 2322 3394 2647 3175 
Q 2972 2956 3137 2557 
Q 3303 2159 3303 1684 
Q 3303 1175 3120 767 
Q 2938 359 2589 142 
Q 2241 -75 1856 -75 
Q 1575 -75 1351 44 
Q 1128 163 984 344 
L 984 -1272 
L 422 -1272 
z
M 931 1641 
Q 931 1000 1190 694 
Q 1450 388 1819 388 
Q 2194 388 2461 705 
Q 2728 1022 2728 1688 
Q 2728 2322 2467 2637 
Q 2206 2953 1844 2953 
Q 1484 2953 1207 2617 
Q 931 2281 931 1641 
z
" transform="scale(0.015625)"/>
     </defs>
     <use xlink:href="#ArialMT-49"/>
     <use xlink:href="#ArialMT-6e" x="27.783203"/>
     <use xlink:href="#ArialMT-74" x="83.398438"/>
     <use xlink:href="#ArialMT-65" x="111.181641"/>
     <use xlink:href="#ArialMT-72" x="166.796875"/>
     <use xlink:href="#ArialMT-73" x="200.097656"/>
     <use xlink:href="#ArialMT-65" x="250.097656"/>
     <use xlink:href="#ArialMT-63" x="305.712891"/>
     <use xlink:href="#ArialMT-74" x="355.712891"/>
     <use xlink:href="#ArialMT-69" x="383.496094"/>
     <use xlink:href="#ArialMT-6f" x="405.712891"/>
     <use xlink:href="#ArialMT-6e" x="461.328125"/>
     <use xlink:href="#ArialMT-20" x="516.943359"/>
     <use xlink:href="#ArialMT-74" x="544.726562"/>
     <use xlink:href="#ArialMT-68" x="572.509766"/>
     <use xlink:href="#ArialMT-72" x="628.125"/>
     <use xlink:href="#ArialMT-6f" x="661.425781"/>
     <use xlink:href="#ArialMT-75" x="717.041016"/>
     <use xlink:href="#ArialMT-67" x="772.65625"/>
     <use xlink:href="#ArialMT-68" x="828.271484"/>
     <use xlink:href="#ArialMT-70" x="883.886719"/>
     <use xlink:href="#ArialMT-75" x="939.501953"/>
     <use xlink:href="#ArialMT-74" x="995.117188"/>
    </g>
   </g>
  </g>
  <g id="axes_2">
   <g id="patch_7">
    <path d="M 476.9975 283.11 
L 842.13 283.11 
L 842.13 47.09625 
L 476.9975 47.09625 
z
" style="fill: #ffffff"/>
   </g>
   <g id="matplotlib.axis_3">
    <g id="xtick_8">
     <g id="line2d_28">
      <path d="M 491.6028 283.11 
L 491.6028 47.09625 
" clip-path="url(#pc20278b36f)" style="fill: none; stroke: #b0b0b0; stroke-width: 0.8; stroke-linecap: square"/>
     </g>
     <g id="line2d_29">
      <g>
       <use xlink:href="#m61f9306f44" x="491.6028" y="283.11" style="stroke: #000000; stroke-width: 0.8"/>
      </g>
     </g>
    </g>
    <g id="xtick_9">
     <g id="line2d_30">
      <path d="M 550.024 283.11 
L 550.024 47.09625 
" clip-path="url(#pc20278b36f)" style="fill: none; stroke: #b0b0b0; stroke-width: 0.8; stroke-linecap: square"/>
     </g>
     <g id="line2d_31">
      <g>
       <use xlink:href="#m61f9306f44" x="550.024" y="283.11" style="stroke: #000000; stroke-width: 0.8"/>
      </g>
     </g>
    </g>
    <g id="xtick_10">
     <g id="line2d_32">
      <path d="M 608.4452 283.11 
L 608.4452 47.09625 
" clip-path="url(#pc20278b36f)" style="fill: none; stroke: #b0b0b0; stroke-width: 0.8; stroke-linecap: square"/>
     </g>
     <g id="line2d_33">
      <g>
       <use xlink:href="#m61f9306f44" x="608.4452" y="283.11" style="stroke: #000000; stroke-width: 0.8"/>
      </g>
     </g>
    </g>
    <g id="xtick_11">
     <g id="line2d_34">
      <path d="M 666.8664 283.11 
L 666.8664 47.09625 
" clip-path="url(#pc20278b36f)" style="fill: none; stroke: #b0b0b0; stroke-width: 0.8; stroke-linecap: square"/>
     </g>
     <g id="line2d_35">
      <g>
       <use xlink:href="#m61f9306f44" x="666.8664" y="283.11" style="stroke: #000000; stroke-width: 0.8"/>
      </g>
     </g>
    </g>
    <g id="xtick_12">
     <g id="line2d_36">
      <path d="M 725.2876 283.11 
L 725.2876 47.09625 
" clip-path="url(#pc20278b36f)" style="fill: none; stroke: #b0b0b0; stroke-width: 0.8; stroke-linecap: square"/>
     </g>
     <g id="line2d_37">
      <g>
       <use xlink:href="#m61f9306f44" x="725.2876" y="283.11" style="stroke: #000000; stroke-width: 0.8"/>
      </g>
     </g>
    </g>
    <g id="xtick_13">
     <g id="line2d_38">
      <path d="M 783.7088 283.11 
L 783.7088 47.09625 
" clip-path="url(#pc20278b36f)" style="fill: none; stroke: #b0b0b0; stroke-width: 0.8; stroke-linecap: square"/>
     </g>
     <g id="line2d_39">
      <g>
       <use xlink:href="#m61f9306f44" x="783.7088" y="283.11" style="stroke: #000000; stroke-width: 0.8"/>
      </g>
     </g>
    </g>
    <g id="xtick_14">
     <g id="line2d_40">
      <path d="M 842.13 283.11 
L 842.13 47.09625 
" clip-path="url(#pc20278b36f)" style="fill: none; stroke: #b0b0b0; stroke-width: 0.8; stroke-linecap: square"/>
     </g>
     <g id="line2d_41">
      <g>
       <use xlink:href="#m61f9306f44" x="842.13" y="283.11" style="stroke: #000000; stroke-width: 0.8"/>
      </g>
     </g>
    </g>
   </g>
   <g id="matplotlib.axis_4">
    <g id="ytick_7">
     <g id="line2d_42">
      <path d="M 476.9975 258.088706 
L 842.13 258.088706 
" clip-path="url(#pc20278b36f)" style="fill: none; stroke: #b0b0b0; stroke-width: 0.8; stroke-linecap: square"/>
     </g>
     <g id="line2d_43">
      <g>
       <use xlink:href="#mb3f8f192a2" x="476.9975" y="258.088706" style="stroke: #000000; stroke-width: 0.8"/>
      </g>
     </g>
     <g id="text_9">
      <!-- 0.75 -->
      <g transform="translate(450.536563 261.667613)scale(0.1 -0.1)">
       <defs>
        <path id="ArialMT-2e" d="M 581 0 
L 581 641 
L 1222 641 
L 1222 0 
L 581 0 
z
" transform="scale(0.015625)"/>
       </defs>
       <use xlink:href="#ArialMT-30"/>
       <use xlink:href="#ArialMT-2e" x="55.615234"/>
       <use xlink:href="#ArialMT-37" x="83.398438"/>
       <use xlink:href="#ArialMT-35" x="139.013672"/>
      </g>
     </g>
    </g>
    <g id="ytick_8">
     <g id="line2d_44">
      <path d="M 476.9975 227.460009 
L 842.13 227.460009 
" clip-path="url(#pc20278b36f)" style="fill: none; stroke: #b0b0b0; stroke-width: 0.8; stroke-linecap: square"/>
     </g>
     <g id="line2d_45">
      <g>
       <use xlink:href="#mb3f8f192a2" x="476.9975" y="227.460009" style="stroke: #000000; stroke-width: 0.8"/>
      </g>
     </g>
     <g id="text_10">
      <!-- 1.00 -->
      <g transform="translate(450.536563 231.038916)scale(0.1 -0.1)">
       <defs>
        <path id="ArialMT-31" d="M 2384 0 
L 1822 0 
L 1822 3584 
Q 1619 3391 1289 3197 
Q 959 3003 697 2906 
L 697 3450 
Q 1169 3672 1522 3987 
Q 1875 4303 2022 4600 
L 2384 4600 
L 2384 0 
z
" transform="scale(0.015625)"/>
       </defs>
       <use xlink:href="#ArialMT-31"/>
       <use xlink:href="#ArialMT-2e" x="55.615234"/>
       <use xlink:href="#ArialMT-30" x="83.398438"/>
       <use xlink:href="#ArialMT-30" x="139.013672"/>
      </g>
     </g>
    </g>
    <g id="ytick_9">
     <g id="line2d_46">
      <path d="M 476.9975 196.831312 
L 842.13 196.831312 
" clip-path="url(#pc20278b36f)" style="fill: none; stroke: #b0b0b0; stroke-width: 0.8; stroke-linecap: square"/>
     </g>
     <g id="line2d_47">
      <g>
       <use xlink:href="#mb3f8f192a2" x="476.9975" y="196.831312" style="stroke: #000000; stroke-width: 0.8"/>
      </g>
     </g>
     <g id="text_11">
      <!-- 1.25 -->
      <g transform="translate(450.536563 200.410219)scale(0.1 -0.1)">
       <defs>
        <path id="ArialMT-32" d="M 3222 541 
L 3222 0 
L 194 0 
Q 188 203 259 391 
Q 375 700 629 1000 
Q 884 1300 1366 1694 
Q 2113 2306 2375 2664 
Q 2638 3022 2638 3341 
Q 2638 3675 2398 3904 
Q 2159 4134 1775 4134 
Q 1369 4134 1125 3890 
Q 881 3647 878 3216 
L 300 3275 
Q 359 3922 746 4261 
Q 1134 4600 1788 4600 
Q 2447 4600 2831 4234 
Q 3216 3869 3216 3328 
Q 3216 3053 3103 2787 
Q 2991 2522 2730 2228 
Q 2469 1934 1863 1422 
Q 1356 997 1212 845 
Q 1069 694 975 541 
L 3222 541 
z
" transform="scale(0.015625)"/>
       </defs>
       <use xlink:href="#ArialMT-31"/>
       <use xlink:href="#ArialMT-2e" x="55.615234"/>
       <use xlink:href="#ArialMT-32" x="83.398438"/>
       <use xlink:href="#ArialMT-35" x="139.013672"/>
      </g>
     </g>
    </g>
    <g id="ytick_10">
     <g id="line2d_48">
      <path d="M 476.9975 166.202616 
L 842.13 166.202616 
" clip-path="url(#pc20278b36f)" style="fill: none; stroke: #b0b0b0; stroke-width: 0.8; stroke-linecap: square"/>
     </g>
     <g id="line2d_49">
      <g>
       <use xlink:href="#mb3f8f192a2" x="476.9975" y="166.202616" style="stroke: #000000; stroke-width: 0.8"/>
      </g>
     </g>
     <g id="text_12">
      <!-- 1.50 -->
      <g transform="translate(450.536563 169.781522)scale(0.1 -0.1)">
       <use xlink:href="#ArialMT-31"/>
       <use xlink:href="#ArialMT-2e" x="55.615234"/>
       <use xlink:href="#ArialMT-35" x="83.398438"/>
       <use xlink:href="#ArialMT-30" x="139.013672"/>
      </g>
     </g>
    </g>
    <g id="ytick_11">
     <g id="line2d_50">
      <path d="M 476.9975 135.573919 
L 842.13 135.573919 
" clip-path="url(#pc20278b36f)" style="fill: none; stroke: #b0b0b0; stroke-width: 0.8; stroke-linecap: square"/>
     </g>
     <g id="line2d_51">
      <g>
       <use xlink:href="#mb3f8f192a2" x="476.9975" y="135.573919" style="stroke: #000000; stroke-width: 0.8"/>
      </g>
     </g>
     <g id="text_13">
      <!-- 1.75 -->
      <g transform="translate(450.536563 139.152825)scale(0.1 -0.1)">
       <use xlink:href="#ArialMT-31"/>
       <use xlink:href="#ArialMT-2e" x="55.615234"/>
       <use xlink:href="#ArialMT-37" x="83.398438"/>
       <use xlink:href="#ArialMT-35" x="139.013672"/>
      </g>
     </g>
    </g>
    <g id="ytick_12">
     <g id="line2d_52">
      <path d="M 476.9975 104.945222 
L 842.13 104.945222 
" clip-path="url(#pc20278b36f)" style="fill: none; stroke: #b0b0b0; stroke-width: 0.8; stroke-linecap: square"/>
     </g>
     <g id="line2d_53">
      <g>
       <use xlink:href="#mb3f8f192a2" x="476.9975" y="104.945222" style="stroke: #000000; stroke-width: 0.8"/>
      </g>
     </g>
     <g id="text_14">
      <!-- 2.00 -->
      <g transform="translate(450.536563 108.524128)scale(0.1 -0.1)">
       <use xlink:href="#ArialMT-32"/>
       <use xlink:href="#ArialMT-2e" x="55.615234"/>
       <use xlink:href="#ArialMT-30" x="83.398438"/>
       <use xlink:href="#ArialMT-30" x="139.013672"/>
      </g>
     </g>
    </g>
    <g id="ytick_13">
     <g id="line2d_54">
      <path d="M 476.9975 74.316525 
L 842.13 74.316525 
" clip-path="url(#pc20278b36f)" style="fill: none; stroke: #b0b0b0; stroke-width: 0.8; stroke-linecap: square"/>
     </g>
     <g id="line2d_55">
      <g>
       <use xlink:href="#mb3f8f192a2" x="476.9975" y="74.316525" style="stroke: #000000; stroke-width: 0.8"/>
      </g>
     </g>
     <g id="text_15">
      <!-- 2.25 -->
      <g transform="translate(450.536563 77.895431)scale(0.1 -0.1)">
       <use xlink:href="#ArialMT-32"/>
       <use xlink:href="#ArialMT-2e" x="55.615234"/>
       <use xlink:href="#ArialMT-32" x="83.398438"/>
       <use xlink:href="#ArialMT-35" x="139.013672"/>
      </g>
     </g>
    </g>
    <g id="text_16">
     <!-- $[-]$ -->
     <g transform="translate(444.549062 173.203125)rotate(-90)scale(0.1 -0.1)">
      <defs>
       <path id="DejaVuSans-2212" d="M 678 2272 
L 4684 2272 
L 4684 1741 
L 678 1741 
L 678 2272 
z
" transform="scale(0.015625)"/>
      </defs>
      <use xlink:href="#DejaVuSans-5b" transform="translate(0 0.015625)"/>
      <use xlink:href="#DejaVuSans-2212" transform="translate(39.013672 0.015625)"/>
      <use xlink:href="#DejaVuSans-5d" transform="translate(122.802734 0.015625)"/>
     </g>
    </g>
   </g>
   <g id="line2d_56">
    <path d="M 476.9975 263.760688 
L 476.9975 263.760688 
L 491.6028 263.760688 
L 491.6028 247.507888 
L 506.2081 247.507888 
L 506.2081 229.34485 
L 520.8134 229.34485 
L 520.8134 272.382102 
L 535.4187 272.382102 
L 535.4187 177.743864 
L 550.024 177.743864 
L 550.024 173.008998 
L 564.6293 173.008998 
L 564.6293 224.056818 
L 579.2346 224.056818 
L 579.2346 233.294046 
L 593.8399 233.294046 
L 593.8399 172.602641 
L 608.4452 172.602641 
L 608.4452 218.035792 
L 623.0505 218.035792 
L 623.0505 231.011162 
L 637.6558 231.011162 
L 637.6558 224.192957 
L 652.2611 224.192957 
L 652.2611 227.460009 
L 666.8664 227.460009 
L 666.8664 246.9068 
L 681.4717 246.9068 
L 681.4717 211.124708 
L 696.077 211.124708 
L 696.077 203.358741 
L 710.6823 203.358741 
L 710.6823 177.870691 
L 725.2876 177.870691 
L 725.2876 165.260195 
L 739.8929 165.260195 
L 739.8929 147.559063 
L 754.4982 147.559063 
L 754.4982 164.400925 
L 769.1035 164.400925 
L 769.1035 167.206833 
L 783.7088 167.206833 
L 783.7088 154.661367 
L 798.3141 154.661367 
L 798.3141 90.243447 
L 812.9194 90.243447 
L 812.9194 80.879826 
L 827.5247 80.879826 
L 827.5247 57.824148 
L 842.13 57.824148 
" clip-path="url(#pc20278b36f)" style="fill: none; stroke: #1f77b4; stroke-width: 1.2; stroke-linecap: square"/>
   </g>
   <g id="patch_8">
    <path d="M 476.9975 283.11 
L 476.9975 47.09625 
" style="fill: none; stroke: #000000; stroke-width: 0.8; stroke-linejoin: miter; stroke-linecap: square"/>
   </g>
   <g id="patch_9">
    <path d="M 842.13 283.11 
L 842.13 47.09625 
" style="fill: none; stroke: #000000; stroke-width: 0.8; stroke-linejoin: miter; stroke-linecap: square"/>
   </g>
   <g id="patch_10">
    <path d="M 476.9975 283.11 
L 842.13 283.11 
" style="fill: none; stroke: #000000; stroke-width: 0.8; stroke-linejoin: miter; stroke-linecap: square"/>
   </g>
   <g id="patch_11">
    <path d="M 476.9975 47.09625 
L 842.13 47.09625 
" style="fill: none; stroke: #000000; stroke-width: 0.8; stroke-linejoin: miter; stroke-linecap: square"/>
   </g>
   <g id="text_17">
    <!-- Average halts per vehicle -->
    <g transform="translate(592.301875 41.09625)scale(0.12 -0.12)">
     <defs>
      <path id="ArialMT-41" d="M -9 0 
L 1750 4581 
L 2403 4581 
L 4278 0 
L 3588 0 
L 3053 1388 
L 1138 1388 
L 634 0 
L -9 0 
z
M 1313 1881 
L 2866 1881 
L 2388 3150 
Q 2169 3728 2063 4100 
Q 1975 3659 1816 3225 
L 1313 1881 
z
" transform="scale(0.015625)"/>
      <path id="ArialMT-76" d="M 1344 0 
L 81 3319 
L 675 3319 
L 1388 1331 
Q 1503 1009 1600 663 
Q 1675 925 1809 1294 
L 2547 3319 
L 3125 3319 
L 1869 0 
L 1344 0 
z
" transform="scale(0.015625)"/>
      <path id="ArialMT-61" d="M 2588 409 
Q 2275 144 1986 34 
Q 1697 -75 1366 -75 
Q 819 -75 525 192 
Q 231 459 231 875 
Q 231 1119 342 1320 
Q 453 1522 633 1644 
Q 813 1766 1038 1828 
Q 1203 1872 1538 1913 
Q 2219 1994 2541 2106 
Q 2544 2222 2544 2253 
Q 2544 2597 2384 2738 
Q 2169 2928 1744 2928 
Q 1347 2928 1158 2789 
Q 969 2650 878 2297 
L 328 2372 
Q 403 2725 575 2942 
Q 747 3159 1072 3276 
Q 1397 3394 1825 3394 
Q 2250 3394 2515 3294 
Q 2781 3194 2906 3042 
Q 3031 2891 3081 2659 
Q 3109 2516 3109 2141 
L 3109 1391 
Q 3109 606 3145 398 
Q 3181 191 3288 0 
L 2700 0 
Q 2613 175 2588 409 
z
M 2541 1666 
Q 2234 1541 1622 1453 
Q 1275 1403 1131 1340 
Q 988 1278 909 1158 
Q 831 1038 831 891 
Q 831 666 1001 516 
Q 1172 366 1500 366 
Q 1825 366 2078 508 
Q 2331 650 2450 897 
Q 2541 1088 2541 1459 
L 2541 1666 
z
" transform="scale(0.015625)"/>
      <path id="ArialMT-6c" d="M 409 0 
L 409 4581 
L 972 4581 
L 972 0 
L 409 0 
z
" transform="scale(0.015625)"/>
     </defs>
     <use xlink:href="#ArialMT-41"/>
     <use xlink:href="#ArialMT-76" x="64.949219"/>
     <use xlink:href="#ArialMT-65" x="114.949219"/>
     <use xlink:href="#ArialMT-72" x="170.564453"/>
     <use xlink:href="#ArialMT-61" x="203.865234"/>
     <use xlink:href="#ArialMT-67" x="259.480469"/>
     <use xlink:href="#ArialMT-65" x="315.095703"/>
     <use xlink:href="#ArialMT-20" x="370.710938"/>
     <use xlink:href="#ArialMT-68" x="398.494141"/>
     <use xlink:href="#ArialMT-61" x="454.109375"/>
     <use xlink:href="#ArialMT-6c" x="509.724609"/>
     <use xlink:href="#ArialMT-74" x="531.941406"/>
     <use xlink:href="#ArialMT-73" x="559.724609"/>
     <use xlink:href="#ArialMT-20" x="609.724609"/>
     <use xlink:href="#ArialMT-70" x="637.507812"/>
     <use xlink:href="#ArialMT-65" x="693.123047"/>
     <use xlink:href="#ArialMT-72" x="748.738281"/>
     <use xlink:href="#ArialMT-20" x="782.039062"/>
     <use xlink:href="#ArialMT-76" x="809.822266"/>
     <use xlink:href="#ArialMT-65" x="859.822266"/>
     <use xlink:href="#ArialMT-68" x="915.4375"/>
     <use xlink:href="#ArialMT-69" x="971.052734"/>
     <use xlink:href="#ArialMT-63" x="993.269531"/>
     <use xlink:href="#ArialMT-6c" x="1043.269531"/>
     <use xlink:href="#ArialMT-65" x="1065.486328"/>
    </g>
   </g>
  </g>
  <g id="axes_3">
   <g id="patch_12">
    <path d="M 50.2625 548.12 
L 415.395 548.12 
L 415.395 312.10625 
L 50.2625 312.10625 
z
" style="fill: #ffffff"/>
   </g>
   <g id="matplotlib.axis_5">
    <g id="xtick_15">
     <g id="line2d_57">
      <path d="M 64.8678 548.12 
L 64.8678 312.10625 
" clip-path="url(#p9e7cfb2f6d)" style="fill: none; stroke: #b0b0b0; stroke-width: 0.8; stroke-linecap: square"/>
     </g>
     <g id="line2d_58">
      <g>
       <use xlink:href="#m61f9306f44" x="64.8678" y="548.12" style="stroke: #000000; stroke-width: 0.8"/>
      </g>
     </g>
     <g id="text_18">
      <!-- 150 -->
      <g transform="translate(56.526394 562.277812)scale(0.1 -0.1)">
       <use xlink:href="#ArialMT-31"/>
       <use xlink:href="#ArialMT-35" x="55.615234"/>
       <use xlink:href="#ArialMT-30" x="111.230469"/>
      </g>
     </g>
    </g>
    <g id="xtick_16">
     <g id="line2d_59">
      <path d="M 123.289 548.12 
L 123.289 312.10625 
" clip-path="url(#p9e7cfb2f6d)" style="fill: none; stroke: #b0b0b0; stroke-width: 0.8; stroke-linecap: square"/>
     </g>
     <g id="line2d_60">
      <g>
       <use xlink:href="#m61f9306f44" x="123.289" y="548.12" style="stroke: #000000; stroke-width: 0.8"/>
      </g>
     </g>
     <g id="text_19">
      <!-- 750 -->
      <g transform="translate(114.947594 562.277812)scale(0.1 -0.1)">
       <use xlink:href="#ArialMT-37"/>
       <use xlink:href="#ArialMT-35" x="55.615234"/>
       <use xlink:href="#ArialMT-30" x="111.230469"/>
      </g>
     </g>
    </g>
    <g id="xtick_17">
     <g id="line2d_61">
      <path d="M 181.7102 548.12 
L 181.7102 312.10625 
" clip-path="url(#p9e7cfb2f6d)" style="fill: none; stroke: #b0b0b0; stroke-width: 0.8; stroke-linecap: square"/>
     </g>
     <g id="line2d_62">
      <g>
       <use xlink:href="#m61f9306f44" x="181.7102" y="548.12" style="stroke: #000000; stroke-width: 0.8"/>
      </g>
     </g>
     <g id="text_20">
      <!-- 1350 -->
      <g transform="translate(170.588325 562.277812)scale(0.1 -0.1)">
       <use xlink:href="#ArialMT-31"/>
       <use xlink:href="#ArialMT-33" x="55.615234"/>
       <use xlink:href="#ArialMT-35" x="111.230469"/>
       <use xlink:href="#ArialMT-30" x="166.845703"/>
      </g>
     </g>
    </g>
    <g id="xtick_18">
     <g id="line2d_63">
      <path d="M 240.1314 548.12 
L 240.1314 312.10625 
" clip-path="url(#p9e7cfb2f6d)" style="fill: none; stroke: #b0b0b0; stroke-width: 0.8; stroke-linecap: square"/>
     </g>
     <g id="line2d_64">
      <g>
       <use xlink:href="#m61f9306f44" x="240.1314" y="548.12" style="stroke: #000000; stroke-width: 0.8"/>
      </g>
     </g>
     <g id="text_21">
      <!-- 1950 -->
      <g transform="translate(229.009525 562.277812)scale(0.1 -0.1)">
       <defs>
        <path id="ArialMT-39" d="M 350 1059 
L 891 1109 
Q 959 728 1153 556 
Q 1347 384 1650 384 
Q 1909 384 2104 503 
Q 2300 622 2425 820 
Q 2550 1019 2634 1356 
Q 2719 1694 2719 2044 
Q 2719 2081 2716 2156 
Q 2547 1888 2255 1720 
Q 1963 1553 1622 1553 
Q 1053 1553 659 1965 
Q 266 2378 266 3053 
Q 266 3750 677 4175 
Q 1088 4600 1706 4600 
Q 2153 4600 2523 4359 
Q 2894 4119 3086 3673 
Q 3278 3228 3278 2384 
Q 3278 1506 3087 986 
Q 2897 466 2520 194 
Q 2144 -78 1638 -78 
Q 1100 -78 759 220 
Q 419 519 350 1059 
z
M 2653 3081 
Q 2653 3566 2395 3850 
Q 2138 4134 1775 4134 
Q 1400 4134 1122 3828 
Q 844 3522 844 3034 
Q 844 2597 1108 2323 
Q 1372 2050 1759 2050 
Q 2150 2050 2401 2323 
Q 2653 2597 2653 3081 
z
" transform="scale(0.015625)"/>
       </defs>
       <use xlink:href="#ArialMT-31"/>
       <use xlink:href="#ArialMT-39" x="55.615234"/>
       <use xlink:href="#ArialMT-35" x="111.230469"/>
       <use xlink:href="#ArialMT-30" x="166.845703"/>
      </g>
     </g>
    </g>
    <g id="xtick_19">
     <g id="line2d_65">
      <path d="M 298.5526 548.12 
L 298.5526 312.10625 
" clip-path="url(#p9e7cfb2f6d)" style="fill: none; stroke: #b0b0b0; stroke-width: 0.8; stroke-linecap: square"/>
     </g>
     <g id="line2d_66">
      <g>
       <use xlink:href="#m61f9306f44" x="298.5526" y="548.12" style="stroke: #000000; stroke-width: 0.8"/>
      </g>
     </g>
     <g id="text_22">
      <!-- 2550 -->
      <g transform="translate(287.430725 562.277812)scale(0.1 -0.1)">
       <use xlink:href="#ArialMT-32"/>
       <use xlink:href="#ArialMT-35" x="55.615234"/>
       <use xlink:href="#ArialMT-35" x="111.230469"/>
       <use xlink:href="#ArialMT-30" x="166.845703"/>
      </g>
     </g>
    </g>
    <g id="xtick_20">
     <g id="line2d_67">
      <path d="M 356.9738 548.12 
L 356.9738 312.10625 
" clip-path="url(#p9e7cfb2f6d)" style="fill: none; stroke: #b0b0b0; stroke-width: 0.8; stroke-linecap: square"/>
     </g>
     <g id="line2d_68">
      <g>
       <use xlink:href="#m61f9306f44" x="356.9738" y="548.12" style="stroke: #000000; stroke-width: 0.8"/>
      </g>
     </g>
     <g id="text_23">
      <!-- 3150 -->
      <g transform="translate(345.851925 562.277812)scale(0.1 -0.1)">
       <use xlink:href="#ArialMT-33"/>
       <use xlink:href="#ArialMT-31" x="55.615234"/>
       <use xlink:href="#ArialMT-35" x="111.230469"/>
       <use xlink:href="#ArialMT-30" x="166.845703"/>
      </g>
     </g>
    </g>
    <g id="xtick_21">
     <g id="line2d_69">
      <path d="M 415.395 548.12 
L 415.395 312.10625 
" clip-path="url(#p9e7cfb2f6d)" style="fill: none; stroke: #b0b0b0; stroke-width: 0.8; stroke-linecap: square"/>
     </g>
     <g id="line2d_70">
      <g>
       <use xlink:href="#m61f9306f44" x="415.395" y="548.12" style="stroke: #000000; stroke-width: 0.8"/>
      </g>
     </g>
     <g id="text_24">
      <!-- 3750 -->
      <g transform="translate(404.273125 562.277812)scale(0.1 -0.1)">
       <use xlink:href="#ArialMT-33"/>
       <use xlink:href="#ArialMT-37" x="55.615234"/>
       <use xlink:href="#ArialMT-35" x="111.230469"/>
       <use xlink:href="#ArialMT-30" x="166.845703"/>
      </g>
     </g>
    </g>
   </g>
   <g id="matplotlib.axis_6">
    <g id="ytick_14">
     <g id="line2d_71">
      <path d="M 50.2625 527.846649 
L 415.395 527.846649 
" clip-path="url(#p9e7cfb2f6d)" style="fill: none; stroke: #b0b0b0; stroke-width: 0.8; stroke-linecap: square"/>
     </g>
     <g id="line2d_72">
      <g>
       <use xlink:href="#mb3f8f192a2" x="50.2625" y="527.846649" style="stroke: #000000; stroke-width: 0.8"/>
      </g>
     </g>
     <g id="text_25">
      <!-- 40 -->
      <g transform="translate(32.140625 531.425555)scale(0.1 -0.1)">
       <use xlink:href="#ArialMT-34"/>
       <use xlink:href="#ArialMT-30" x="55.615234"/>
      </g>
     </g>
    </g>
    <g id="ytick_15">
     <g id="line2d_73">
      <path d="M 50.2625 499.338035 
L 415.395 499.338035 
" clip-path="url(#p9e7cfb2f6d)" style="fill: none; stroke: #b0b0b0; stroke-width: 0.8; stroke-linecap: square"/>
     </g>
     <g id="line2d_74">
      <g>
       <use xlink:href="#mb3f8f192a2" x="50.2625" y="499.338035" style="stroke: #000000; stroke-width: 0.8"/>
      </g>
     </g>
     <g id="text_26">
      <!-- 50 -->
      <g transform="translate(32.140625 502.916941)scale(0.1 -0.1)">
       <use xlink:href="#ArialMT-35"/>
       <use xlink:href="#ArialMT-30" x="55.615234"/>
      </g>
     </g>
    </g>
    <g id="ytick_16">
     <g id="line2d_75">
      <path d="M 50.2625 470.829421 
L 415.395 470.829421 
" clip-path="url(#p9e7cfb2f6d)" style="fill: none; stroke: #b0b0b0; stroke-width: 0.8; stroke-linecap: square"/>
     </g>
     <g id="line2d_76">
      <g>
       <use xlink:href="#mb3f8f192a2" x="50.2625" y="470.829421" style="stroke: #000000; stroke-width: 0.8"/>
      </g>
     </g>
     <g id="text_27">
      <!-- 60 -->
      <g transform="translate(32.140625 474.408327)scale(0.1 -0.1)">
       <use xlink:href="#ArialMT-36"/>
       <use xlink:href="#ArialMT-30" x="55.615234"/>
      </g>
     </g>
    </g>
    <g id="ytick_17">
     <g id="line2d_77">
      <path d="M 50.2625 442.320807 
L 415.395 442.320807 
" clip-path="url(#p9e7cfb2f6d)" style="fill: none; stroke: #b0b0b0; stroke-width: 0.8; stroke-linecap: square"/>
     </g>
     <g id="line2d_78">
      <g>
       <use xlink:href="#mb3f8f192a2" x="50.2625" y="442.320807" style="stroke: #000000; stroke-width: 0.8"/>
      </g>
     </g>
     <g id="text_28">
      <!-- 70 -->
      <g transform="translate(32.140625 445.899713)scale(0.1 -0.1)">
       <use xlink:href="#ArialMT-37"/>
       <use xlink:href="#ArialMT-30" x="55.615234"/>
      </g>
     </g>
    </g>
    <g id="ytick_18">
     <g id="line2d_79">
      <path d="M 50.2625 413.812193 
L 415.395 413.812193 
" clip-path="url(#p9e7cfb2f6d)" style="fill: none; stroke: #b0b0b0; stroke-width: 0.8; stroke-linecap: square"/>
     </g>
     <g id="line2d_80">
      <g>
       <use xlink:href="#mb3f8f192a2" x="50.2625" y="413.812193" style="stroke: #000000; stroke-width: 0.8"/>
      </g>
     </g>
     <g id="text_29">
      <!-- 80 -->
      <g transform="translate(32.140625 417.391099)scale(0.1 -0.1)">
       <use xlink:href="#ArialMT-38"/>
       <use xlink:href="#ArialMT-30" x="55.615234"/>
      </g>
     </g>
    </g>
    <g id="ytick_19">
     <g id="line2d_81">
      <path d="M 50.2625 385.303579 
L 415.395 385.303579 
" clip-path="url(#p9e7cfb2f6d)" style="fill: none; stroke: #b0b0b0; stroke-width: 0.8; stroke-linecap: square"/>
     </g>
     <g id="line2d_82">
      <g>
       <use xlink:href="#mb3f8f192a2" x="50.2625" y="385.303579" style="stroke: #000000; stroke-width: 0.8"/>
      </g>
     </g>
     <g id="text_30">
      <!-- 90 -->
      <g transform="translate(32.140625 388.882486)scale(0.1 -0.1)">
       <use xlink:href="#ArialMT-39"/>
       <use xlink:href="#ArialMT-30" x="55.615234"/>
      </g>
     </g>
    </g>
    <g id="ytick_20">
     <g id="line2d_83">
      <path d="M 50.2625 356.794966 
L 415.395 356.794966 
" clip-path="url(#p9e7cfb2f6d)" style="fill: none; stroke: #b0b0b0; stroke-width: 0.8; stroke-linecap: square"/>
     </g>
     <g id="line2d_84">
      <g>
       <use xlink:href="#mb3f8f192a2" x="50.2625" y="356.794966" style="stroke: #000000; stroke-width: 0.8"/>
      </g>
     </g>
     <g id="text_31">
      <!-- 100 -->
      <g transform="translate(26.579688 360.373872)scale(0.1 -0.1)">
       <use xlink:href="#ArialMT-31"/>
       <use xlink:href="#ArialMT-30" x="55.615234"/>
       <use xlink:href="#ArialMT-30" x="111.230469"/>
      </g>
     </g>
    </g>
    <g id="ytick_21">
     <g id="line2d_85">
      <path d="M 50.2625 328.286352 
L 415.395 328.286352 
" clip-path="url(#p9e7cfb2f6d)" style="fill: none; stroke: #b0b0b0; stroke-width: 0.8; stroke-linecap: square"/>
     </g>
     <g id="line2d_86">
      <g>
       <use xlink:href="#mb3f8f192a2" x="50.2625" y="328.286352" style="stroke: #000000; stroke-width: 0.8"/>
      </g>
     </g>
     <g id="text_32">
      <!-- 110 -->
      <g transform="translate(27.317188 331.865258)scale(0.1 -0.1)">
       <use xlink:href="#ArialMT-31"/>
       <use xlink:href="#ArialMT-31" x="48.240234"/>
       <use xlink:href="#ArialMT-30" x="103.855469"/>
      </g>
     </g>
    </g>
    <g id="text_33">
     <!-- $[s]$ -->
     <g transform="translate(20.592188 436.663125)rotate(-90)scale(0.1 -0.1)">
      <defs>
       <path id="DejaVuSans-Oblique-73" d="M 3200 3397 
L 3091 2853 
Q 2863 2978 2609 3040 
Q 2356 3103 2088 3103 
Q 1634 3103 1373 2948 
Q 1113 2794 1113 2528 
Q 1113 2219 1719 2053 
Q 1766 2041 1788 2034 
L 1972 1978 
Q 2547 1819 2739 1644 
Q 2931 1469 2931 1166 
Q 2931 609 2489 259 
Q 2047 -91 1331 -91 
Q 1053 -91 747 -37 
Q 441 16 72 128 
L 184 722 
Q 500 559 806 475 
Q 1113 391 1394 391 
Q 1816 391 2080 572 
Q 2344 753 2344 1031 
Q 2344 1331 1650 1516 
L 1591 1531 
L 1394 1581 
Q 956 1697 753 1886 
Q 550 2075 550 2369 
Q 550 2928 970 3256 
Q 1391 3584 2113 3584 
Q 2397 3584 2667 3537 
Q 2938 3491 3200 3397 
z
" transform="scale(0.015625)"/>
      </defs>
      <use xlink:href="#DejaVuSans-5b" transform="translate(0 0.015625)"/>
      <use xlink:href="#DejaVuSans-Oblique-73" transform="translate(39.013672 0.015625)"/>
      <use xlink:href="#DejaVuSans-5d" transform="translate(91.113281 0.015625)"/>
     </g>
    </g>
   </g>
   <g id="line2d_87">
    <path d="M 50.2625 537.392102 
L 50.2625 537.392102 
L 64.8678 537.392102 
L 64.8678 522.282024 
L 79.4731 522.282024 
L 79.4731 446.768293 
L 94.0784 446.768293 
L 94.0784 525.725323 
L 108.6837 525.725323 
L 108.6837 421.39021 
L 123.289 421.39021 
L 123.289 419.368907 
L 137.8943 419.368907 
L 137.8943 482.413546 
L 152.4996 482.413546 
L 152.4996 466.153227 
L 167.1049 466.153227 
L 167.1049 434.684091 
L 181.7102 434.684091 
L 181.7102 477.939686 
L 196.3155 477.939686 
L 196.3155 457.524337 
L 210.9208 457.524337 
L 210.9208 493.509691 
L 225.5261 493.509691 
L 225.5261 465.588255 
L 240.1314 465.588255 
L 240.1314 504.872247 
L 254.7367 504.872247 
L 254.7367 354.981647 
L 269.342 354.981647 
L 269.342 454.745488 
L 283.9473 454.745488 
L 283.9473 453.843761 
L 298.5526 453.843761 
L 298.5526 449.822364 
L 313.1579 449.822364 
L 313.1579 394.541796 
L 327.7632 394.541796 
L 327.7632 414.416604 
L 342.3685 414.416604 
L 342.3685 408.337969 
L 356.9738 408.337969 
L 356.9738 389.332918 
L 371.5791 389.332918 
L 371.5791 323.57727 
L 386.1844 323.57727 
L 386.1844 338.533984 
L 400.7897 338.533984 
L 400.7897 322.834148 
L 415.395 322.834148 
" clip-path="url(#p9e7cfb2f6d)" style="fill: none; stroke: #1f77b4; stroke-width: 1.2; stroke-linecap: square"/>
   </g>
   <g id="patch_13">
    <path d="M 50.2625 548.12 
L 50.2625 312.10625 
" style="fill: none; stroke: #000000; stroke-width: 0.8; stroke-linejoin: miter; stroke-linecap: square"/>
   </g>
   <g id="patch_14">
    <path d="M 415.395 548.12 
L 415.395 312.10625 
" style="fill: none; stroke: #000000; stroke-width: 0.8; stroke-linejoin: miter; stroke-linecap: square"/>
   </g>
   <g id="patch_15">
    <path d="M 50.2625 548.12 
L 415.395 548.12 
" style="fill: none; stroke: #000000; stroke-width: 0.8; stroke-linejoin: miter; stroke-linecap: square"/>
   </g>
   <g id="patch_16">
    <path d="M 50.2625 312.10625 
L 415.395 312.10625 
" style="fill: none; stroke: #000000; stroke-width: 0.8; stroke-linejoin: miter; stroke-linecap: square"/>
   </g>
   <g id="text_34">
    <!-- Average travel time -->
    <g transform="translate(181.248438 306.10625)scale(0.12 -0.12)">
     <defs>
      <path id="ArialMT-6d" d="M 422 0 
L 422 3319 
L 925 3319 
L 925 2853 
Q 1081 3097 1340 3245 
Q 1600 3394 1931 3394 
Q 2300 3394 2536 3241 
Q 2772 3088 2869 2813 
Q 3263 3394 3894 3394 
Q 4388 3394 4653 3120 
Q 4919 2847 4919 2278 
L 4919 0 
L 4359 0 
L 4359 2091 
Q 4359 2428 4304 2576 
Q 4250 2725 4106 2815 
Q 3963 2906 3769 2906 
Q 3419 2906 3187 2673 
Q 2956 2441 2956 1928 
L 2956 0 
L 2394 0 
L 2394 2156 
Q 2394 2531 2256 2718 
Q 2119 2906 1806 2906 
Q 1569 2906 1367 2781 
Q 1166 2656 1075 2415 
Q 984 2175 984 1722 
L 984 0 
L 422 0 
z
" transform="scale(0.015625)"/>
     </defs>
     <use xlink:href="#ArialMT-41"/>
     <use xlink:href="#ArialMT-76" x="64.949219"/>
     <use xlink:href="#ArialMT-65" x="114.949219"/>
     <use xlink:href="#ArialMT-72" x="170.564453"/>
     <use xlink:href="#ArialMT-61" x="203.865234"/>
     <use xlink:href="#ArialMT-67" x="259.480469"/>
     <use xlink:href="#ArialMT-65" x="315.095703"/>
     <use xlink:href="#ArialMT-20" x="370.710938"/>
     <use xlink:href="#ArialMT-74" x="398.494141"/>
     <use xlink:href="#ArialMT-72" x="426.277344"/>
     <use xlink:href="#ArialMT-61" x="459.578125"/>
     <use xlink:href="#ArialMT-76" x="515.193359"/>
     <use xlink:href="#ArialMT-65" x="565.193359"/>
     <use xlink:href="#ArialMT-6c" x="620.808594"/>
     <use xlink:href="#ArialMT-20" x="643.025391"/>
     <use xlink:href="#ArialMT-74" x="670.808594"/>
     <use xlink:href="#ArialMT-69" x="698.591797"/>
     <use xlink:href="#ArialMT-6d" x="720.808594"/>
     <use xlink:href="#ArialMT-65" x="804.109375"/>
    </g>
   </g>
  </g>
  <g id="axes_4">
   <g id="patch_17">
    <path d="M 476.9975 548.12 
L 842.13 548.12 
L 842.13 312.10625 
L 476.9975 312.10625 
z
" style="fill: #ffffff"/>
   </g>
   <g id="matplotlib.axis_7">
    <g id="xtick_22">
     <g id="line2d_88">
      <path d="M 491.6028 548.12 
L 491.6028 312.10625 
" clip-path="url(#p9fb4d58ec7)" style="fill: none; stroke: #b0b0b0; stroke-width: 0.8; stroke-linecap: square"/>
     </g>
     <g id="line2d_89">
      <g>
       <use xlink:href="#m61f9306f44" x="491.6028" y="548.12" style="stroke: #000000; stroke-width: 0.8"/>
      </g>
     </g>
     <g id="text_35">
      <!-- 150 -->
      <g transform="translate(483.261394 562.277812)scale(0.1 -0.1)">
       <use xlink:href="#ArialMT-31"/>
       <use xlink:href="#ArialMT-35" x="55.615234"/>
       <use xlink:href="#ArialMT-30" x="111.230469"/>
      </g>
     </g>
    </g>
    <g id="xtick_23">
     <g id="line2d_90">
      <path d="M 550.024 548.12 
L 550.024 312.10625 
" clip-path="url(#p9fb4d58ec7)" style="fill: none; stroke: #b0b0b0; stroke-width: 0.8; stroke-linecap: square"/>
     </g>
     <g id="line2d_91">
      <g>
       <use xlink:href="#m61f9306f44" x="550.024" y="548.12" style="stroke: #000000; stroke-width: 0.8"/>
      </g>
     </g>
     <g id="text_36">
      <!-- 750 -->
      <g transform="translate(541.682594 562.277812)scale(0.1 -0.1)">
       <use xlink:href="#ArialMT-37"/>
       <use xlink:href="#ArialMT-35" x="55.615234"/>
       <use xlink:href="#ArialMT-30" x="111.230469"/>
      </g>
     </g>
    </g>
    <g id="xtick_24">
     <g id="line2d_92">
      <path d="M 608.4452 548.12 
L 608.4452 312.10625 
" clip-path="url(#p9fb4d58ec7)" style="fill: none; stroke: #b0b0b0; stroke-width: 0.8; stroke-linecap: square"/>
     </g>
     <g id="line2d_93">
      <g>
       <use xlink:href="#m61f9306f44" x="608.4452" y="548.12" style="stroke: #000000; stroke-width: 0.8"/>
      </g>
     </g>
     <g id="text_37">
      <!-- 1350 -->
      <g transform="translate(597.323325 562.277812)scale(0.1 -0.1)">
       <use xlink:href="#ArialMT-31"/>
       <use xlink:href="#ArialMT-33" x="55.615234"/>
       <use xlink:href="#ArialMT-35" x="111.230469"/>
       <use xlink:href="#ArialMT-30" x="166.845703"/>
      </g>
     </g>
    </g>
    <g id="xtick_25">
     <g id="line2d_94">
      <path d="M 666.8664 548.12 
L 666.8664 312.10625 
" clip-path="url(#p9fb4d58ec7)" style="fill: none; stroke: #b0b0b0; stroke-width: 0.8; stroke-linecap: square"/>
     </g>
     <g id="line2d_95">
      <g>
       <use xlink:href="#m61f9306f44" x="666.8664" y="548.12" style="stroke: #000000; stroke-width: 0.8"/>
      </g>
     </g>
     <g id="text_38">
      <!-- 1950 -->
      <g transform="translate(655.744525 562.277812)scale(0.1 -0.1)">
       <use xlink:href="#ArialMT-31"/>
       <use xlink:href="#ArialMT-39" x="55.615234"/>
       <use xlink:href="#ArialMT-35" x="111.230469"/>
       <use xlink:href="#ArialMT-30" x="166.845703"/>
      </g>
     </g>
    </g>
    <g id="xtick_26">
     <g id="line2d_96">
      <path d="M 725.2876 548.12 
L 725.2876 312.10625 
" clip-path="url(#p9fb4d58ec7)" style="fill: none; stroke: #b0b0b0; stroke-width: 0.8; stroke-linecap: square"/>
     </g>
     <g id="line2d_97">
      <g>
       <use xlink:href="#m61f9306f44" x="725.2876" y="548.12" style="stroke: #000000; stroke-width: 0.8"/>
      </g>
     </g>
     <g id="text_39">
      <!-- 2550 -->
      <g transform="translate(714.165725 562.277812)scale(0.1 -0.1)">
       <use xlink:href="#ArialMT-32"/>
       <use xlink:href="#ArialMT-35" x="55.615234"/>
       <use xlink:href="#ArialMT-35" x="111.230469"/>
       <use xlink:href="#ArialMT-30" x="166.845703"/>
      </g>
     </g>
    </g>
    <g id="xtick_27">
     <g id="line2d_98">
      <path d="M 783.7088 548.12 
L 783.7088 312.10625 
" clip-path="url(#p9fb4d58ec7)" style="fill: none; stroke: #b0b0b0; stroke-width: 0.8; stroke-linecap: square"/>
     </g>
     <g id="line2d_99">
      <g>
       <use xlink:href="#m61f9306f44" x="783.7088" y="548.12" style="stroke: #000000; stroke-width: 0.8"/>
      </g>
     </g>
     <g id="text_40">
      <!-- 3150 -->
      <g transform="translate(772.586925 562.277812)scale(0.1 -0.1)">
       <use xlink:href="#ArialMT-33"/>
       <use xlink:href="#ArialMT-31" x="55.615234"/>
       <use xlink:href="#ArialMT-35" x="111.230469"/>
       <use xlink:href="#ArialMT-30" x="166.845703"/>
      </g>
     </g>
    </g>
    <g id="xtick_28">
     <g id="line2d_100">
      <path d="M 842.13 548.12 
L 842.13 312.10625 
" clip-path="url(#p9fb4d58ec7)" style="fill: none; stroke: #b0b0b0; stroke-width: 0.8; stroke-linecap: square"/>
     </g>
     <g id="line2d_101">
      <g>
       <use xlink:href="#m61f9306f44" x="842.13" y="548.12" style="stroke: #000000; stroke-width: 0.8"/>
      </g>
     </g>
     <g id="text_41">
      <!-- 3750 -->
      <g transform="translate(831.008125 562.277812)scale(0.1 -0.1)">
       <use xlink:href="#ArialMT-33"/>
       <use xlink:href="#ArialMT-37" x="55.615234"/>
       <use xlink:href="#ArialMT-35" x="111.230469"/>
       <use xlink:href="#ArialMT-30" x="166.845703"/>
      </g>
     </g>
    </g>
   </g>
   <g id="matplotlib.axis_8">
    <g id="ytick_22">
     <g id="line2d_102">
      <path d="M 476.9975 548.12 
L 842.13 548.12 
" clip-path="url(#p9fb4d58ec7)" style="fill: none; stroke: #b0b0b0; stroke-width: 0.8; stroke-linecap: square"/>
     </g>
     <g id="line2d_103">
      <g>
       <use xlink:href="#mb3f8f192a2" x="476.9975" y="548.12" style="stroke: #000000; stroke-width: 0.8"/>
      </g>
     </g>
     <g id="text_42">
      <!-- 35 -->
      <g transform="translate(453.035 551.698906)scale(0.1 -0.1)">
       <defs>
        <path id="ArialMT-2212" d="M 3381 1997 
L 356 1997 
L 356 2522 
L 3381 2522 
L 3381 1997 
z
" transform="scale(0.015625)"/>
       </defs>
       <use xlink:href="#ArialMT-2212"/>
       <use xlink:href="#ArialMT-33" x="58.398438"/>
       <use xlink:href="#ArialMT-35" x="114.013672"/>
      </g>
     </g>
    </g>
    <g id="ytick_23">
     <g id="line2d_104">
      <path d="M 476.9975 514.40375 
L 842.13 514.40375 
" clip-path="url(#p9fb4d58ec7)" style="fill: none; stroke: #b0b0b0; stroke-width: 0.8; stroke-linecap: square"/>
     </g>
     <g id="line2d_105">
      <g>
       <use xlink:href="#mb3f8f192a2" x="476.9975" y="514.40375" style="stroke: #000000; stroke-width: 0.8"/>
      </g>
     </g>
     <g id="text_43">
      <!-- 30 -->
      <g transform="translate(453.035 517.982656)scale(0.1 -0.1)">
       <use xlink:href="#ArialMT-2212"/>
       <use xlink:href="#ArialMT-33" x="58.398438"/>
       <use xlink:href="#ArialMT-30" x="114.013672"/>
      </g>
     </g>
    </g>
    <g id="ytick_24">
     <g id="line2d_106">
      <path d="M 476.9975 480.6875 
L 842.13 480.6875 
" clip-path="url(#p9fb4d58ec7)" style="fill: none; stroke: #b0b0b0; stroke-width: 0.8; stroke-linecap: square"/>
     </g>
     <g id="line2d_107">
      <g>
       <use xlink:href="#mb3f8f192a2" x="476.9975" y="480.6875" style="stroke: #000000; stroke-width: 0.8"/>
      </g>
     </g>
     <g id="text_44">
      <!-- 25 -->
      <g transform="translate(453.035 484.266406)scale(0.1 -0.1)">
       <use xlink:href="#ArialMT-2212"/>
       <use xlink:href="#ArialMT-32" x="58.398438"/>
       <use xlink:href="#ArialMT-35" x="114.013672"/>
      </g>
     </g>
    </g>
    <g id="ytick_25">
     <g id="line2d_108">
      <path d="M 476.9975 446.97125 
L 842.13 446.97125 
" clip-path="url(#p9fb4d58ec7)" style="fill: none; stroke: #b0b0b0; stroke-width: 0.8; stroke-linecap: square"/>
     </g>
     <g id="line2d_109">
      <g>
       <use xlink:href="#mb3f8f192a2" x="476.9975" y="446.97125" style="stroke: #000000; stroke-width: 0.8"/>
      </g>
     </g>
     <g id="text_45">
      <!-- 20 -->
      <g transform="translate(453.035 450.550156)scale(0.1 -0.1)">
       <use xlink:href="#ArialMT-2212"/>
       <use xlink:href="#ArialMT-32" x="58.398438"/>
       <use xlink:href="#ArialMT-30" x="114.013672"/>
      </g>
     </g>
    </g>
    <g id="ytick_26">
     <g id="line2d_110">
      <path d="M 476.9975 413.255 
L 842.13 413.255 
" clip-path="url(#p9fb4d58ec7)" style="fill: none; stroke: #b0b0b0; stroke-width: 0.8; stroke-linecap: square"/>
     </g>
     <g id="line2d_111">
      <g>
       <use xlink:href="#mb3f8f192a2" x="476.9975" y="413.255" style="stroke: #000000; stroke-width: 0.8"/>
      </g>
     </g>
     <g id="text_46">
      <!-- 15 -->
      <g transform="translate(453.035 416.833906)scale(0.1 -0.1)">
       <use xlink:href="#ArialMT-2212"/>
       <use xlink:href="#ArialMT-31" x="58.398438"/>
       <use xlink:href="#ArialMT-35" x="114.013672"/>
      </g>
     </g>
    </g>
    <g id="ytick_27">
     <g id="line2d_112">
      <path d="M 476.9975 379.53875 
L 842.13 379.53875 
" clip-path="url(#p9fb4d58ec7)" style="fill: none; stroke: #b0b0b0; stroke-width: 0.8; stroke-linecap: square"/>
     </g>
     <g id="line2d_113">
      <g>
       <use xlink:href="#mb3f8f192a2" x="476.9975" y="379.53875" style="stroke: #000000; stroke-width: 0.8"/>
      </g>
     </g>
     <g id="text_47">
      <!-- 10 -->
      <g transform="translate(453.035 383.117656)scale(0.1 -0.1)">
       <use xlink:href="#ArialMT-2212"/>
       <use xlink:href="#ArialMT-31" x="58.398438"/>
       <use xlink:href="#ArialMT-30" x="114.013672"/>
      </g>
     </g>
    </g>
    <g id="ytick_28">
     <g id="line2d_114">
      <path d="M 476.9975 345.8225 
L 842.13 345.8225 
" clip-path="url(#p9fb4d58ec7)" style="fill: none; stroke: #b0b0b0; stroke-width: 0.8; stroke-linecap: square"/>
     </g>
     <g id="line2d_115">
      <g>
       <use xlink:href="#mb3f8f192a2" x="476.9975" y="345.8225" style="stroke: #000000; stroke-width: 0.8"/>
      </g>
     </g>
     <g id="text_48">
      <!-- 5 -->
      <g transform="translate(458.595937 349.401406)scale(0.1 -0.1)">
       <use xlink:href="#ArialMT-2212"/>
       <use xlink:href="#ArialMT-35" x="58.398438"/>
      </g>
     </g>
    </g>
    <g id="ytick_29">
     <g id="line2d_116">
      <path d="M 476.9975 312.10625 
L 842.13 312.10625 
" clip-path="url(#p9fb4d58ec7)" style="fill: none; stroke: #b0b0b0; stroke-width: 0.8; stroke-linecap: square"/>
     </g>
     <g id="line2d_117">
      <g>
       <use xlink:href="#mb3f8f192a2" x="476.9975" y="312.10625" style="stroke: #000000; stroke-width: 0.8"/>
      </g>
     </g>
     <g id="text_49">
      <!-- 0 -->
      <g transform="translate(464.436562 315.685156)scale(0.1 -0.1)">
       <use xlink:href="#ArialMT-30"/>
      </g>
     </g>
    </g>
    <g id="text_50">
     <!-- $[veh]$ -->
     <g transform="translate(447.0475 443.263125)rotate(-90)scale(0.1 -0.1)">
      <use xlink:href="#DejaVuSans-5b" transform="translate(0 0.015625)"/>
      <use xlink:href="#DejaVuSans-Oblique-76" transform="translate(39.013672 0.015625)"/>
      <use xlink:href="#DejaVuSans-Oblique-65" transform="translate(98.193359 0.015625)"/>
      <use xlink:href="#DejaVuSans-Oblique-68" transform="translate(159.716797 0.015625)"/>
      <use xlink:href="#DejaVuSans-5d" transform="translate(223.095703 0.015625)"/>
     </g>
    </g>
   </g>
   <g id="line2d_118">
    <path d="M 491.6028 372.7955 
L 491.6028 413.255 
L 492.576487 413.255 
L 492.576487 379.53875 
L 494.52386 379.53875 
L 494.52386 413.255 
L 495.497547 413.255 
L 495.497547 386.282 
L 496.471233 386.282 
L 496.471233 379.53875 
L 497.44492 379.53875 
L 497.44492 393.02525 
L 498.418607 393.02525 
L 498.418607 440.228 
L 499.392293 440.228 
L 499.392293 393.02525 
L 500.36598 393.02525 
L 500.36598 372.7955 
L 501.339667 372.7955 
L 501.339667 386.282 
L 502.313353 386.282 
L 502.313353 399.7685 
L 503.28704 399.7685 
L 503.28704 393.02525 
L 504.260727 393.02525 
L 504.260727 426.7415 
L 507.181787 426.7415 
L 507.181787 393.02525 
L 508.155473 393.02525 
L 508.155473 413.255 
L 509.12916 413.255 
L 509.12916 433.48475 
L 510.102847 433.48475 
L 510.102847 426.7415 
L 511.076533 426.7415 
L 511.076533 406.51175 
L 512.05022 406.51175 
L 512.05022 379.53875 
L 513.023907 379.53875 
L 513.023907 406.51175 
L 513.997593 406.51175 
L 513.997593 372.7955 
L 514.97128 372.7955 
L 514.97128 366.05225 
L 515.944967 366.05225 
L 515.944967 339.07925 
L 516.918653 339.07925 
L 516.918653 352.56575 
L 517.89234 352.56575 
L 517.89234 406.51175 
L 520.8134 406.51175 
L 520.8134 413.255 
L 521.787087 413.255 
L 521.787087 419.99825 
L 522.760773 419.99825 
L 522.760773 386.282 
L 523.73446 386.282 
L 523.73446 399.7685 
L 524.708147 399.7685 
L 524.708147 379.53875 
L 525.681833 379.53875 
L 525.681833 372.7955 
L 526.65552 372.7955 
L 526.65552 386.282 
L 527.629207 386.282 
L 527.629207 399.7685 
L 529.57658 399.7685 
L 529.57658 426.7415 
L 530.550267 426.7415 
L 530.550267 419.99825 
L 531.523953 419.99825 
L 531.523953 399.7685 
L 532.49764 399.7685 
L 532.49764 413.255 
L 533.471327 413.255 
L 533.471327 406.51175 
L 534.445013 406.51175 
L 534.445013 440.228 
L 535.4187 440.228 
L 535.4187 453.7145 
L 537.366073 453.7145 
L 537.366073 446.97125 
L 538.33976 446.97125 
L 538.33976 393.02525 
L 539.313447 393.02525 
L 539.313447 446.97125 
L 540.287133 446.97125 
L 540.287133 453.7145 
L 541.26082 453.7145 
L 541.26082 494.174 
L 542.234507 494.174 
L 542.234507 467.201 
L 543.208193 467.201 
L 543.208193 494.174 
L 544.18188 494.174 
L 544.18188 473.94425 
L 545.155567 473.94425 
L 545.155567 480.6875 
L 546.129253 480.6875 
L 546.129253 433.48475 
L 547.10294 433.48475 
L 547.10294 419.99825 
L 549.050313 419.99825 
L 549.050313 460.45775 
L 550.997687 460.45775 
L 550.997687 433.48475 
L 551.971373 433.48475 
L 551.971373 446.97125 
L 552.94506 446.97125 
L 552.94506 413.255 
L 553.918747 413.255 
L 553.918747 419.99825 
L 555.86612 419.99825 
L 555.86612 426.7415 
L 558.78718 426.7415 
L 558.78718 393.02525 
L 559.760867 393.02525 
L 559.760867 399.7685 
L 560.734553 399.7685 
L 560.734553 393.02525 
L 561.70824 393.02525 
L 561.70824 406.51175 
L 562.681927 406.51175 
L 562.681927 419.99825 
L 563.655613 419.99825 
L 563.655613 386.282 
L 564.6293 386.282 
L 564.6293 366.05225 
L 565.602987 366.05225 
L 565.602987 372.7955 
L 566.576673 372.7955 
L 566.576673 393.02525 
L 567.55036 393.02525 
L 567.55036 419.99825 
L 568.524047 419.99825 
L 568.524047 393.02525 
L 569.497733 393.02525 
L 569.497733 379.53875 
L 571.445107 379.53875 
L 571.445107 386.282 
L 572.418793 386.282 
L 572.418793 426.7415 
L 573.39248 426.7415 
L 573.39248 419.99825 
L 574.366167 419.99825 
L 574.366167 440.228 
L 575.339853 440.228 
L 575.339853 406.51175 
L 576.31354 406.51175 
L 576.31354 399.7685 
L 577.287227 399.7685 
L 577.287227 393.02525 
L 578.260913 393.02525 
L 578.260913 433.48475 
L 579.2346 433.48475 
L 579.2346 406.51175 
L 580.208287 406.51175 
L 580.208287 413.255 
L 581.181973 413.255 
L 581.181973 433.48475 
L 582.15566 433.48475 
L 582.15566 399.7685 
L 583.129347 399.7685 
L 583.129347 406.51175 
L 584.103033 406.51175 
L 584.103033 413.255 
L 585.07672 413.255 
L 585.07672 440.228 
L 586.050407 440.228 
L 586.050407 453.7145 
L 587.024093 453.7145 
L 587.024093 460.45775 
L 587.99778 460.45775 
L 587.99778 446.97125 
L 588.971467 446.97125 
L 588.971467 413.255 
L 589.945153 413.255 
L 589.945153 440.228 
L 591.892527 440.228 
L 591.892527 446.97125 
L 592.866213 446.97125 
L 592.866213 419.99825 
L 593.8399 419.99825 
L 593.8399 433.48475 
L 594.813587 433.48475 
L 594.813587 426.7415 
L 595.787273 426.7415 
L 595.787273 433.48475 
L 596.76096 433.48475 
L 596.76096 419.99825 
L 597.734647 419.99825 
L 597.734647 399.7685 
L 598.708333 399.7685 
L 598.708333 413.255 
L 599.68202 413.255 
L 599.68202 433.48475 
L 600.655707 433.48475 
L 600.655707 419.99825 
L 601.629393 419.99825 
L 601.629393 399.7685 
L 602.60308 399.7685 
L 602.60308 386.282 
L 604.550453 386.282 
L 604.550453 406.51175 
L 605.52414 406.51175 
L 605.52414 440.228 
L 606.497827 440.228 
L 606.497827 419.99825 
L 607.471513 419.99825 
L 607.471513 426.7415 
L 608.4452 426.7415 
L 608.4452 433.48475 
L 609.418887 433.48475 
L 609.418887 453.7145 
L 611.36626 453.7145 
L 611.36626 440.228 
L 612.339947 440.228 
L 612.339947 446.97125 
L 613.313633 446.97125 
L 613.313633 426.7415 
L 615.261007 426.7415 
L 615.261007 433.48475 
L 616.234693 433.48475 
L 616.234693 446.97125 
L 617.20838 446.97125 
L 617.20838 453.7145 
L 618.182067 453.7145 
L 618.182067 419.99825 
L 619.155753 419.99825 
L 619.155753 399.7685 
L 620.12944 399.7685 
L 620.12944 419.99825 
L 621.103127 419.99825 
L 621.103127 406.51175 
L 622.076813 406.51175 
L 622.076813 419.99825 
L 624.997873 419.99825 
L 624.997873 433.48475 
L 625.97156 433.48475 
L 625.97156 406.51175 
L 626.945247 406.51175 
L 626.945247 393.02525 
L 628.89262 393.02525 
L 628.89262 379.53875 
L 629.866307 379.53875 
L 629.866307 393.02525 
L 630.839993 393.02525 
L 630.839993 419.99825 
L 631.81368 419.99825 
L 631.81368 433.48475 
L 632.787367 433.48475 
L 632.787367 393.02525 
L 633.761053 393.02525 
L 633.761053 433.48475 
L 634.73474 433.48475 
L 634.73474 467.201 
L 635.708427 467.201 
L 635.708427 446.97125 
L 636.682113 446.97125 
L 636.682113 419.99825 
L 637.6558 419.99825 
L 637.6558 406.51175 
L 638.629487 406.51175 
L 638.629487 419.99825 
L 639.603173 419.99825 
L 639.603173 406.51175 
L 641.550547 406.51175 
L 641.550547 426.7415 
L 642.524233 426.7415 
L 642.524233 433.48475 
L 643.49792 433.48475 
L 643.49792 446.97125 
L 644.471607 446.97125 
L 644.471607 460.45775 
L 645.445293 460.45775 
L 645.445293 453.7145 
L 646.41898 453.7145 
L 646.41898 446.97125 
L 647.392667 446.97125 
L 647.392667 440.228 
L 648.366353 440.228 
L 648.366353 460.45775 
L 649.34004 460.45775 
L 649.34004 473.94425 
L 650.313727 473.94425 
L 650.313727 446.97125 
L 651.287413 446.97125 
L 651.287413 426.7415 
L 652.2611 426.7415 
L 652.2611 379.53875 
L 653.234787 379.53875 
L 653.234787 406.51175 
L 654.208473 406.51175 
L 654.208473 399.7685 
L 655.18216 399.7685 
L 655.18216 406.51175 
L 657.129533 406.51175 
L 657.129533 426.7415 
L 658.10322 426.7415 
L 658.10322 413.255 
L 659.076907 413.255 
L 659.076907 393.02525 
L 660.050593 393.02525 
L 660.050593 413.255 
L 661.02428 413.255 
L 661.02428 386.282 
L 661.997967 386.282 
L 661.997967 399.7685 
L 662.971653 399.7685 
L 662.971653 413.255 
L 663.94534 413.255 
L 663.94534 419.99825 
L 664.919027 419.99825 
L 664.919027 433.48475 
L 665.892713 433.48475 
L 665.892713 406.51175 
L 666.8664 406.51175 
L 666.8664 399.7685 
L 667.840087 399.7685 
L 667.840087 419.99825 
L 668.813773 419.99825 
L 668.813773 433.48475 
L 669.78746 433.48475 
L 669.78746 413.255 
L 670.761147 413.255 
L 670.761147 440.228 
L 671.734833 440.228 
L 671.734833 460.45775 
L 672.70852 460.45775 
L 672.70852 440.228 
L 673.682207 440.228 
L 673.682207 426.7415 
L 674.655893 426.7415 
L 674.655893 440.228 
L 675.62958 440.228 
L 675.62958 413.255 
L 677.576953 413.255 
L 677.576953 419.99825 
L 678.55064 419.99825 
L 678.55064 446.97125 
L 679.524327 446.97125 
L 679.524327 413.255 
L 681.4717 413.255 
L 681.4717 440.228 
L 682.445387 440.228 
L 682.445387 413.255 
L 683.419073 413.255 
L 683.419073 419.99825 
L 684.39276 419.99825 
L 684.39276 426.7415 
L 685.366447 426.7415 
L 685.366447 393.02525 
L 686.340133 393.02525 
L 686.340133 413.255 
L 687.31382 413.255 
L 687.31382 399.7685 
L 688.287507 399.7685 
L 688.287507 393.02525 
L 689.261193 393.02525 
L 689.261193 433.48475 
L 690.23488 433.48475 
L 690.23488 419.99825 
L 693.15594 419.99825 
L 693.15594 386.282 
L 694.129627 386.282 
L 694.129627 393.02525 
L 695.103313 393.02525 
L 695.103313 419.99825 
L 696.077 419.99825 
L 696.077 433.48475 
L 697.050687 433.48475 
L 697.050687 413.255 
L 698.024373 413.255 
L 698.024373 426.7415 
L 699.971747 426.7415 
L 699.971747 386.282 
L 701.91912 386.282 
L 701.91912 399.7685 
L 702.892807 399.7685 
L 702.892807 372.7955 
L 703.866493 372.7955 
L 703.866493 406.51175 
L 704.84018 406.51175 
L 704.84018 446.97125 
L 705.813867 446.97125 
L 705.813867 419.99825 
L 706.787553 419.99825 
L 706.787553 453.7145 
L 707.76124 453.7145 
L 707.76124 487.43075 
L 708.734927 487.43075 
L 708.734927 453.7145 
L 709.708613 453.7145 
L 709.708613 406.51175 
L 710.6823 406.51175 
L 710.6823 426.7415 
L 711.655987 426.7415 
L 711.655987 487.43075 
L 712.629673 487.43075 
L 712.629673 433.48475 
L 713.60336 433.48475 
L 713.60336 419.99825 
L 714.577047 419.99825 
L 714.577047 433.48475 
L 715.550733 433.48475 
L 715.550733 460.45775 
L 717.498107 460.45775 
L 717.498107 473.94425 
L 718.471793 473.94425 
L 718.471793 440.228 
L 719.44548 440.228 
L 719.44548 473.94425 
L 720.419167 473.94425 
L 720.419167 467.201 
L 721.392853 467.201 
L 721.392853 446.97125 
L 722.36654 446.97125 
L 722.36654 413.255 
L 723.340227 413.255 
L 723.340227 433.48475 
L 726.261287 433.48475 
L 726.261287 413.255 
L 727.234973 413.255 
L 727.234973 419.99825 
L 728.20866 419.99825 
L 728.20866 433.48475 
L 729.182347 433.48475 
L 729.182347 446.97125 
L 730.156033 446.97125 
L 730.156033 419.99825 
L 731.12972 419.99825 
L 731.12972 413.255 
L 732.103407 413.255 
L 732.103407 446.97125 
L 733.077093 446.97125 
L 733.077093 433.48475 
L 734.05078 433.48475 
L 734.05078 460.45775 
L 735.024467 460.45775 
L 735.024467 473.94425 
L 736.97184 473.94425 
L 736.97184 453.7145 
L 737.945527 453.7145 
L 737.945527 473.94425 
L 738.919213 473.94425 
L 738.919213 494.174 
L 739.8929 494.174 
L 739.8929 460.45775 
L 740.866587 460.45775 
L 740.866587 473.94425 
L 743.787647 473.94425 
L 743.787647 467.201 
L 744.761333 467.201 
L 744.761333 487.43075 
L 745.73502 487.43075 
L 745.73502 494.174 
L 746.708707 494.174 
L 746.708707 473.94425 
L 747.682393 473.94425 
L 747.682393 440.228 
L 748.65608 440.228 
L 748.65608 426.7415 
L 749.629767 426.7415 
L 749.629767 453.7145 
L 751.57714 453.7145 
L 751.57714 473.94425 
L 752.550827 473.94425 
L 752.550827 494.174 
L 753.524513 494.174 
L 753.524513 460.45775 
L 754.4982 460.45775 
L 754.4982 440.228 
L 755.471887 440.228 
L 755.471887 453.7145 
L 756.445573 453.7145 
L 756.445573 426.7415 
L 757.41926 426.7415 
L 757.41926 433.48475 
L 758.392947 433.48475 
L 758.392947 426.7415 
L 759.366633 426.7415 
L 759.366633 406.51175 
L 760.34032 406.51175 
L 760.34032 426.7415 
L 762.287693 426.7415 
L 762.287693 419.99825 
L 763.26138 419.99825 
L 763.26138 446.97125 
L 764.235067 446.97125 
L 764.235067 453.7145 
L 765.208753 453.7145 
L 765.208753 467.201 
L 766.18244 467.201 
L 766.18244 453.7145 
L 767.156127 453.7145 
L 767.156127 440.228 
L 768.129813 440.228 
L 768.129813 460.45775 
L 769.1035 460.45775 
L 769.1035 446.97125 
L 771.050873 446.97125 
L 771.050873 433.48475 
L 774.94562 433.48475 
L 774.94562 440.228 
L 775.919307 440.228 
L 775.919307 433.48475 
L 776.892993 433.48475 
L 776.892993 473.94425 
L 778.840367 473.94425 
L 778.840367 467.201 
L 779.814053 467.201 
L 779.814053 473.94425 
L 780.78774 473.94425 
L 780.78774 480.6875 
L 782.735113 480.6875 
L 782.735113 440.228 
L 783.7088 440.228 
L 783.7088 426.7415 
L 784.682487 426.7415 
L 784.682487 440.228 
L 786.62986 440.228 
L 786.62986 480.6875 
L 787.603547 480.6875 
L 787.603547 473.94425 
L 788.577233 473.94425 
L 788.577233 480.6875 
L 789.55092 480.6875 
L 789.55092 473.94425 
L 791.498293 473.94425 
L 791.498293 453.7145 
L 792.47198 453.7145 
L 792.47198 426.7415 
L 793.445667 426.7415 
L 793.445667 433.48475 
L 794.419353 433.48475 
L 794.419353 413.255 
L 795.39304 413.255 
L 795.39304 446.97125 
L 796.366727 446.97125 
L 796.366727 480.6875 
L 797.340413 480.6875 
L 797.340413 467.201 
L 798.3141 467.201 
L 798.3141 473.94425 
L 799.287787 473.94425 
L 799.287787 453.7145 
L 800.261473 453.7145 
L 800.261473 467.201 
L 802.208847 467.201 
L 802.208847 460.45775 
L 803.182533 460.45775 
L 803.182533 433.48475 
L 804.15622 433.48475 
L 804.15622 426.7415 
L 805.129907 426.7415 
L 805.129907 440.228 
L 806.103593 440.228 
L 806.103593 453.7145 
L 807.07728 453.7145 
L 807.07728 487.43075 
L 808.050967 487.43075 
L 808.050967 467.201 
L 809.024653 467.201 
L 809.024653 507.6605 
L 809.99834 507.6605 
L 809.99834 534.6335 
L 810.972027 534.6335 
L 810.972027 521.147 
L 811.945713 521.147 
L 811.945713 500.91725 
L 813.893087 500.91725 
L 813.893087 521.147 
L 814.866773 521.147 
L 814.866773 507.6605 
L 815.84046 507.6605 
L 815.84046 487.43075 
L 816.814147 487.43075 
L 816.814147 494.174 
L 817.787833 494.174 
L 817.787833 480.6875 
L 818.76152 480.6875 
L 818.76152 494.174 
L 819.735207 494.174 
L 819.735207 507.6605 
L 820.708893 507.6605 
L 820.708893 473.94425 
L 821.68258 473.94425 
L 821.68258 487.43075 
L 822.656267 487.43075 
L 822.656267 467.201 
L 823.629953 467.201 
L 823.629953 440.228 
L 824.60364 440.228 
L 824.60364 473.94425 
L 827.5247 473.94425 
L 827.5247 467.201 
L 828.498387 467.201 
L 828.498387 460.45775 
L 829.472073 460.45775 
L 829.472073 467.201 
L 831.419447 467.201 
L 831.419447 426.7415 
L 833.36682 426.7415 
L 833.36682 446.97125 
L 834.340507 446.97125 
L 834.340507 473.94425 
L 835.314193 473.94425 
L 835.314193 453.7145 
L 836.28788 453.7145 
L 836.28788 426.7415 
L 837.261567 426.7415 
L 837.261567 413.255 
L 839.20894 413.255 
L 839.20894 399.7685 
L 840.182627 399.7685 
L 840.182627 426.7415 
L 841.156313 426.7415 
L 841.156313 426.7415 
" clip-path="url(#p9fb4d58ec7)" style="fill: none; stroke: #808080; stroke-width: 0.9; stroke-linecap: square"/>
   </g>
   <g id="patch_18">
    <path d="M 476.9975 548.12 
L 476.9975 312.10625 
" style="fill: none; stroke: #000000; stroke-width: 0.8; stroke-linejoin: miter; stroke-linecap: square"/>
   </g>
   <g id="patch_19">
    <path d="M 842.13 548.12 
L 842.13 312.10625 
" style="fill: none; stroke: #000000; stroke-width: 0.8; stroke-linejoin: miter; stroke-linecap: square"/>
   </g>
   <g id="patch_20">
    <path d="M 476.9975 548.12 
L 842.13 548.12 
" style="fill: none; stroke: #000000; stroke-width: 0.8; stroke-linejoin: miter; stroke-linecap: square"/>
   </g>
   <g id="patch_21">
    <path d="M 476.9975 312.10625 
L 842.13 312.10625 
" style="fill: none; stroke: #000000; stroke-width: 0.8; stroke-linejoin: miter; stroke-linecap: square"/>
   </g>
   <g id="text_51">
    <!-- RL Reward -->
    <g transform="translate(629.778437 306.10625)scale(0.12 -0.12)">
     <defs>
      <path id="ArialMT-52" d="M 503 0 
L 503 4581 
L 2534 4581 
Q 3147 4581 3465 4457 
Q 3784 4334 3975 4021 
Q 4166 3709 4166 3331 
Q 4166 2844 3850 2509 
Q 3534 2175 2875 2084 
Q 3116 1969 3241 1856 
Q 3506 1613 3744 1247 
L 4541 0 
L 3778 0 
L 3172 953 
Q 2906 1366 2734 1584 
Q 2563 1803 2427 1890 
Q 2291 1978 2150 2013 
Q 2047 2034 1813 2034 
L 1109 2034 
L 1109 0 
L 503 0 
z
M 1109 2559 
L 2413 2559 
Q 2828 2559 3062 2645 
Q 3297 2731 3419 2920 
Q 3541 3109 3541 3331 
Q 3541 3656 3305 3865 
Q 3069 4075 2559 4075 
L 1109 4075 
L 1109 2559 
z
" transform="scale(0.015625)"/>
      <path id="ArialMT-4c" d="M 469 0 
L 469 4581 
L 1075 4581 
L 1075 541 
L 3331 541 
L 3331 0 
L 469 0 
z
" transform="scale(0.015625)"/>
      <path id="ArialMT-77" d="M 1034 0 
L 19 3319 
L 600 3319 
L 1128 1403 
L 1325 691 
Q 1338 744 1497 1375 
L 2025 3319 
L 2603 3319 
L 3100 1394 
L 3266 759 
L 3456 1400 
L 4025 3319 
L 4572 3319 
L 3534 0 
L 2950 0 
L 2422 1988 
L 2294 2553 
L 1622 0 
L 1034 0 
z
" transform="scale(0.015625)"/>
      <path id="ArialMT-64" d="M 2575 0 
L 2575 419 
Q 2259 -75 1647 -75 
Q 1250 -75 917 144 
Q 584 363 401 755 
Q 219 1147 219 1656 
Q 219 2153 384 2558 
Q 550 2963 881 3178 
Q 1213 3394 1622 3394 
Q 1922 3394 2156 3267 
Q 2391 3141 2538 2938 
L 2538 4581 
L 3097 4581 
L 3097 0 
L 2575 0 
z
M 797 1656 
Q 797 1019 1065 703 
Q 1334 388 1700 388 
Q 2069 388 2326 689 
Q 2584 991 2584 1609 
Q 2584 2291 2321 2609 
Q 2059 2928 1675 2928 
Q 1300 2928 1048 2622 
Q 797 2316 797 1656 
z
" transform="scale(0.015625)"/>
     </defs>
     <use xlink:href="#ArialMT-52"/>
     <use xlink:href="#ArialMT-4c" x="72.216797"/>
     <use xlink:href="#ArialMT-20" x="124.082031"/>
     <use xlink:href="#ArialMT-52" x="151.865234"/>
     <use xlink:href="#ArialMT-65" x="224.082031"/>
     <use xlink:href="#ArialMT-77" x="279.697266"/>
     <use xlink:href="#ArialMT-61" x="351.914062"/>
     <use xlink:href="#ArialMT-72" x="407.529297"/>
     <use xlink:href="#ArialMT-64" x="440.830078"/>
    </g>
   </g>
  </g>
  <g id="text_52">
   <!-- Exp. 7, episode 31 -->
   <g transform="translate(382.30125 20.145)scale(0.12 -0.12)">
    <defs>
     <path id="ArialMT-45" d="M 506 0 
L 506 4581 
L 3819 4581 
L 3819 4041 
L 1113 4041 
L 1113 2638 
L 3647 2638 
L 3647 2100 
L 1113 2100 
L 1113 541 
L 3925 541 
L 3925 0 
L 506 0 
z
" transform="scale(0.015625)"/>
     <path id="ArialMT-78" d="M 47 0 
L 1259 1725 
L 138 3319 
L 841 3319 
L 1350 2541 
Q 1494 2319 1581 2169 
Q 1719 2375 1834 2534 
L 2394 3319 
L 3066 3319 
L 1919 1756 
L 3153 0 
L 2463 0 
L 1781 1031 
L 1600 1309 
L 728 0 
L 47 0 
z
" transform="scale(0.015625)"/>
     <path id="ArialMT-2c" d="M 569 0 
L 569 641 
L 1209 641 
L 1209 0 
Q 1209 -353 1084 -570 
Q 959 -788 688 -906 
L 531 -666 
Q 709 -588 793 -436 
Q 878 -284 888 0 
L 569 0 
z
" transform="scale(0.015625)"/>
    </defs>
    <use xlink:href="#ArialMT-45"/>
    <use xlink:href="#ArialMT-78" x="66.699219"/>
    <use xlink:href="#ArialMT-70" x="116.699219"/>
    <use xlink:href="#ArialMT-2e" x="172.314453"/>
    <use xlink:href="#ArialMT-20" x="200.097656"/>
    <use xlink:href="#ArialMT-37" x="227.880859"/>
    <use xlink:href="#ArialMT-2c" x="283.496094"/>
    <use xlink:href="#ArialMT-20" x="311.279297"/>
    <use xlink:href="#ArialMT-65" x="339.0625"/>
    <use xlink:href="#ArialMT-70" x="394.677734"/>
    <use xlink:href="#ArialMT-69" x="450.292969"/>
    <use xlink:href="#ArialMT-73" x="472.509766"/>
    <use xlink:href="#ArialMT-6f" x="522.509766"/>
    <use xlink:href="#ArialMT-64" x="578.125"/>
    <use xlink:href="#ArialMT-65" x="633.740234"/>
    <use xlink:href="#ArialMT-20" x="689.355469"/>
    <use xlink:href="#ArialMT-33" x="717.138672"/>
    <use xlink:href="#ArialMT-31" x="772.753906"/>
   </g>
  </g>
 </g>
 <defs>
  <clipPath id="pa3ba4b8f9e">
   <rect x="50.2625" y="47.09625" width="365.1325" height="236.01375"/>
  </clipPath>
  <clipPath id="pc20278b36f">
   <rect x="476.9975" y="47.09625" width="365.1325" height="236.01375"/>
  </clipPath>
  <clipPath id="p9e7cfb2f6d">
   <rect x="50.2625" y="312.10625" width="365.1325" height="236.01375"/>
  </clipPath>
  <clipPath id="p9fb4d58ec7">
   <rect x="476.9975" y="312.10625" width="365.1325" height="236.01375"/>
  </clipPath>
 </defs>
</svg>
